<?xml version="1.0" standalone="no"?>
<!DOCTYPE svg PUBLIC "-//W3C//DTD SVG 1.1//EN" "http://www.w3.org/Graphics/SVG/1.1/DTD/svg11.dtd" >
<svg xmlns="http://www.w3.org/2000/svg" xmlns:xlink="http://www.w3.org/1999/xlink" version="1.1">
<metadata></metadata>
<defs>
<font id="hoefler_textblack" horiz-adv-x="1282" >
<font-face units-per-em="2048" ascent="1638" descent="-410" />
<missing-glyph horiz-adv-x="419" />
<glyph unicode="&#xfb01;" horiz-adv-x="1353" d="M1370 35q0 -11 -5 -29q-4 -16 -11 -16q-54 0 -159 5t-167 5q-66 0 -129 -5t-121 -5q-7 0 -11 16q-5 18 -5 29q0 8 5 26q5 17 11 19q46 6 68 33q22 26 22 114v400q0 64 -25 85t-89 21h-203v-506q0 -77 24 -109t82 -38q7 0 12 -18q5 -20 5 -27q0 -11 -5 -29q-4 -16 -12 -16 q-56 0 -136 5t-144 5q-60 0 -160 -5t-151 -5q-8 0 -12 15q-5 17 -5 30q0 8 5 26q5 17 12 19q90 11 114 40q25 31 25 132v473q0 10 -6 19q-7 10 -19 10h-114q-9 0 -15 17q-6 18 -6 26t6 26q7 20 12 21q37 8 88 24q54 16 54 33q0 212 193 395q194 183 436 183q158 0 260 -72 t102 -160q0 -70 -40 -119t-132 -49q-62 0 -93 39t-54 84q-19 37 -52 83q-30 42 -71 42q-91 0 -145 -88q-54 -89 -54 -242v-129h166q70 0 227 16q146 15 193 46q13 8 24 11q12 3 21 3q13 0 28 -4q17 -5 17 -10q-7 -94 -11 -188q-6 -144 -6 -171v-319q0 -96 33 -131t107 -41 q6 0 11 -18q5 -20 5 -27z" />
<glyph unicode="&#xfb02;" horiz-adv-x="1355" d="M1370 35q0 -11 -5 -29q-4 -16 -11 -16q-54 0 -159 5t-167 5q-66 0 -129 -5t-121 -5q-7 0 -11 16q-5 18 -5 29q0 8 5 26q5 17 11 19q46 6 68 33q22 26 22 114v506h-317v-506q0 -77 24 -109t82 -38q7 0 12 -18q5 -20 5 -27q0 -11 -5 -29q-4 -16 -12 -16q-56 0 -136 5 t-144 5q-60 0 -160 -5t-151 -5q-8 0 -12 15q-5 17 -5 30q0 8 5 26q5 17 12 19q90 11 114 40q25 31 25 132v473q0 10 -6 19q-7 10 -19 10h-114q-9 0 -15 17q-6 18 -6 26t6 26q7 20 12 21q37 8 88 24q54 16 54 33q0 212 193 395q194 183 436 183q63 0 110 -14q46 -14 92 -42 q7 3 57 25q31 13 48 22q9 6 20 11q15 6 25 6q24 0 36 -9q11 -8 9 -18q-2 -28 -5.5 -93t-4.5 -83q-7 -122 -7 -170v-862q0 -96 33 -131t107 -41q6 0 11 -18q5 -20 5 -27zM868 868v287q0 79 -46 125q-47 47 -117 47q-78 0 -114 -60t-36 -188v-211h313z" />
<glyph unicode="&#xfb03;" horiz-adv-x="2017" d="M2034 35q0 -11 -5 -29q-4 -16 -12 -16q-53 0 -158 5t-165 5q-64 0 -131 -5t-121 -5q-7 0 -11 16q-6 22 -6 29q0 4 6 26q5 17 11 19q44 6 67 33q23 28 23 114v400q0 64 -26 85t-89 21h-203v-506q0 -76 25 -109q24 -32 82 -38q7 0 11 -18q5 -20 5 -27q0 -11 -5 -29 q-4 -16 -11 -16q-56 0 -136 5t-143 5q-64 0 -137 -5t-127 -5q-7 0 -11 16q-5 18 -5 29q0 8 5 26q5 17 11 19q46 6 68 33q22 26 22 114v506h-317v-506q0 -77 24 -109t82 -38q7 0 12 -18q5 -20 5 -27q0 -11 -5 -29q-4 -16 -12 -16q-56 0 -136 5t-142 5t-162 -5t-151 -5 q-8 0 -12 16q-5 18 -5 29q0 8 5 26q5 17 12 19q90 11 114 40q25 31 25 132v473q0 10 -6 19q-7 10 -19 10h-112q-12 0 -16 17q-5 20 -5 26t5 26q5 19 11 21q37 8 88 24q54 16 54 33q0 194 193 369q194 176 438 176q93 0 165 -25q70 -24 115 -59q0 -2 4 -5q3 -2 6 -5 q75 57 178 93q96 34 195 34q156 0 258 -72q103 -73 103 -160q0 -70 -40 -119t-132 -49q-62 0 -94 39t-54 84q-22 42 -51 83q-30 42 -72 42q-90 0 -144 -88q-54 -89 -54 -242v-129h165q71 0 229 16q146 15 191 46q13 8 25 11t20 3q14 0 29 -4q16 -4 16 -10q-7 -94 -11 -188 q-5 -120 -5 -171v-319q0 -96 33 -131q34 -35 106 -41q7 0 12 -18q5 -20 5 -27zM922 1116q-29 70 -88 116t-119 46q-79 0 -119 -60q-41 -61 -41 -204v-146h313v33q0 73 17 121q20 56 37 94z" />
<glyph unicode="&#xfb04;" horiz-adv-x="2019" d="M2034 35q0 -11 -5 -29q-4 -16 -12 -16q-53 0 -158 5t-165 5q-64 0 -131 -5t-121 -5q-7 0 -11 16q-6 22 -6 29q0 4 6 26q5 17 11 19q44 6 67 33q23 28 23 114v506h-318v-506q0 -76 25 -109q24 -32 82 -38q7 0 11 -18q5 -20 5 -27q0 -11 -5 -29q-4 -16 -11 -16 q-56 0 -136 5t-143 5q-64 0 -137 -5t-127 -5q-7 0 -11 16q-5 18 -5 29q0 8 5 26q5 17 11 19q46 6 68 33q22 26 22 114v506h-317v-506q0 -77 24 -109t82 -38q7 0 12 -18q5 -20 5 -27q0 -11 -5 -29q-4 -16 -12 -16q-56 0 -136 5t-142 5t-162 -5t-151 -5q-8 0 -12 16 q-5 18 -5 29q0 8 5 26q5 17 12 19q90 11 114 40q25 31 25 132v473q0 10 -6 19q-7 10 -19 10h-112q-12 0 -16 17q-5 20 -5 26t5 26q5 19 11 21q37 8 88 24q54 16 54 33q0 194 193 369q194 176 438 176q93 0 165 -25q70 -24 115 -59q0 -2 4 -5q3 -2 6 -5q75 57 178 93 q96 34 195 34q60 0 108 -14q47 -13 93 -42q20 10 56 25q31 13 48 22q7 6 21 11q15 6 24 6q24 0 36 -9q11 -8 9 -18q-2 -28 -5.5 -93t-4.5 -83q-6 -105 -6 -170v-862q0 -96 33 -131q34 -35 106 -41q7 0 12 -18q5 -20 5 -27zM1532 868v287q0 79 -46 125q-47 47 -118 47 q-78 0 -114 -60q-35 -58 -35 -188v-211h313zM922 1116q-29 70 -88 116t-119 46q-79 0 -119 -60q-41 -61 -41 -204v-146h313v33q0 73 17 121q20 56 37 94z" />
<glyph unicode="&#xd;" horiz-adv-x="1638" />
<glyph horiz-adv-x="0" />
<glyph horiz-adv-x="0" />
<glyph unicode=" "  horiz-adv-x="419" />
<glyph unicode="&#x09;" horiz-adv-x="419" />
<glyph unicode="&#xa0;" horiz-adv-x="419" />
<glyph unicode="!" horiz-adv-x="655" d="M541 1253l-158 -798q0 -15 -17 -21q-18 -6 -32 -6q-15 0 -33 5q-16 4 -18 22l-156 798q-15 63 35 128t172 65q117 0 168 -66t39 -127zM502 127q0 -68 -50 -118t-118 -50t-118 50t-50 118q0 72 48 120t120 48q68 0 118 -50t50 -118z" />
<glyph unicode="&#x22;" horiz-adv-x="913" d="M831 1278l-112 -457q-4 -7 -17 -15q-11 -7 -32 -7q-22 0 -33 7q-13 8 -14 15l-115 457q-15 53 26 111q40 57 136 57q98 0 137 -58q39 -59 24 -110zM406 1278l-113 -457q-5 -9 -15 -15q-11 -7 -34 -7q-22 0 -33 7q-13 8 -14 15l-115 457q-15 53 26 111q40 57 136 57 q98 0 137 -58q40 -60 25 -110z" />
<glyph unicode="#" horiz-adv-x="1515" d="M1462 963q0 -30 -9 -51t-23 -21h-332l-111 -379h299q12 0 17 -27q4 -24 4 -47q0 -21 -10 -48q-9 -23 -21 -23h-334l-119 -398q-4 -12 -30 -16q-24 -4 -50 -4t-47 4q-12 2 -17 6t-3 10l119 398h-287l-119 -398q-6 -11 -31 -16q-21 -4 -49 -4q-27 0 -48 4q-12 2 -17 6 t-4 10l120 398h-280q-12 0 -17 24q-4 21 -4 47q0 24 11 49t20 25h313l113 379h-280q-12 0 -17 24q-4 21 -4 48q0 23 9 48t22 25h313l123 414q1 11 31 16q25 4 49 4q20 0 47 -5q12 -2 17 -6t3 -9l-122 -414h286l123 414q4 11 32 16q24 4 48 4q20 0 48 -5q13 -2 18.5 -6 t3.5 -9l-125 -414h301q10 0 15 -24q5 -27 5 -49zM950 891h-286l-113 -379h289z" />
<glyph unicode="$" horiz-adv-x="1167" d="M928 637q59 -49 97 -114t38 -146q0 -192 -130 -303q-131 -111 -347 -117l-6 -78q0 -11 -18 -16q-16 -4 -30 -4q-7 0 -27 5q-18 4 -18 17l7 80q-97 11 -204 43q-111 33 -177 45q0 45 -2 197q-1 98 -7 174q0 5 19 10q16 4 29 4q11 0 24 -4q16 -5 17 -10q35 -148 121 -246 q87 -99 190 -117l35 402q-10 5 -58 33t-79 46q-80 47 -130 91q-64 54 -99 116q-34 61 -34 140q0 180 143 293q142 112 326 112h6l7 82q0 13 18 16t29 3q3 0 27 -6q18 -5 18 -15l-6 -84q65 -6 141 -29q69 -21 135 -34q0 -71 5 -169q4 -71 11 -167q0 -6 -16 -10q-18 -5 -27 -5 q-8 0 -25 5t-18 10q-28 122 -84 202q-54 78 -133 99l-32 -381q35 -20 135 -80q83 -49 129 -90zM604 1192q-61 -6 -104 -49t-43 -107q0 -52 32 -93t84 -79zM750 223q0 52 -32 95q-31 42 -91 85l-33 -348q84 11 120 54q36 44 36 114z" />
<glyph unicode="%" horiz-adv-x="2113" d="M2001 510q0 -95 -38 -200q-37 -101 -108 -177q-78 -84 -172 -130q-93 -46 -235 -46q-150 0 -237 88t-87 217q0 199 147 376t404 177q149 0 238 -87q88 -87 88 -218zM1552 1257l-888 -1335q-7 -8 -25 -2t-31 14t-27 24q-12 14 -8 24l748 1120q-63 -34 -133 -51 q-63 -15 -123 -15q-11 0 -41 2q-22 2 -39 6q2 -11 3 -28q1 -12 1 -35q-2 -204 -147 -376q-146 -173 -404 -173q-148 0 -237 87q-88 87 -88 218q0 199 147 376t406 177q102 0 172 -38t104 -93q33 -13 67 -20q30 -6 72 -6q91 0 193 47q98 45 188 137q6 10 27 2q21 -7 29 -14 q8 -4 26 -22q15 -15 8 -26zM1729 647q0 36 -14 56t-42 20q-99 0 -188 -233q-88 -231 -88 -365q0 -37 12 -56q12 -20 43 -20q99 0 188 233q89 234 89 365zM719 1124q-33 18 -46 31q-18 18 -28 41q-94 -21 -177 -242q-83 -222 -83 -354q0 -37 13 -56q14 -20 42 -20 q100 0 189 231q88 230 88 361z" />
<glyph unicode="&#x26;" horiz-adv-x="1814" d="M1755 860q0 -13 -5 -30q-4 -15 -11 -15q-113 -17 -157 -47q-40 -28 -103 -100l-258 -324q145 -160 201 -193q58 -34 130 -34q50 0 80 18t58 49q2 2 8 -2q6 -5 10 -6l10 -10q7 -7 8 -10q5 -9 11 -26t0 -21q-53 -69 -158 -112q-106 -44 -217 -44q-127 0 -217 34 q-92 35 -180 142q-85 -90 -180 -131q-94 -41 -232 -41q-208 0 -349 108t-141 257q0 144 103 244q104 101 295 141q-64 57 -96 118q-33 62 -33 125q0 147 122 252t326 105q160 0 236 -79t76 -161q0 -81 -66 -158q-63 -74 -180 -141l313 -352q124 157 144 185q40 56 40 122 q0 37 -25 58q-27 22 -163 34q-7 0 -11 16q-5 18 -5 29t5 29q4 16 11 16q69 0 140 -6t165 -6q92 0 152 6t127 6q7 0 11 -15q5 -17 5 -30zM934 1065q0 59 -27 101t-94 42t-100 -47t-33 -117q0 -53 28 -101q26 -45 87 -112q78 52 109 118q30 64 30 116zM905 199l-391 444 q-53 -39 -73 -92q-21 -56 -21 -127q0 -134 80 -217q79 -82 196 -82q66 0 117 18t92 56z" />
<glyph unicode="'" horiz-adv-x="532" d="M426 1278l-113 -457q-5 -9 -15 -15q-11 -7 -34 -7q-22 0 -33 7q-13 8 -14 15l-115 457q-15 53 26 111q41 57 136 57q98 0 137 -58q40 -60 25 -110z" />
<glyph unicode="(" horiz-adv-x="739" d="M782 -227q5 -5 0 -23q-5 -20 -8 -24q-7 -12 -18 -23q-13 -13 -19 -8q-261 163 -437 372q-177 210 -177 508q0 292 170 501q169 207 444 382q6 5 20 -9q9 -9 17 -22q4 -7 9 -26t-1 -23q-156 -139 -216 -335q-60 -195 -60 -468q0 -282 58 -469q58 -186 218 -333z" />
<glyph unicode=")" horiz-adv-x="739" d="M-33 1380q-6 6 0 24q2 5 3.5 10t3 8t1.5 5q6 15 20 24q13 8 17 7q262 -163 438 -371q177 -209 177 -509q0 -298 -177 -510q-174 -208 -438 -373q-7 -2 -18 9q-15 15 -19 22q-3 5 -8 25q-5 18 0 24q159 147 218 335q59 189 59 468q0 272 -59 466q-58 191 -218 336z" />
<glyph unicode="*" horiz-adv-x="804" d="M731 946q0 -10 -3 -23t-9 -24q-17 -25 -36 -35t-38 -10q-10 0 -30 5q-10 3 -31 13q-45 27 -77 80t-75 80q0 -47 32 -105t32 -106q0 -47 -24 -76q-24 -28 -69 -28q-44 0 -67 29q-25 31 -25 75q0 48 32 106t32 105q-39 -21 -76 -80t-76 -80q-22 -10 -32 -13q-17 -5 -29 -5 q-24 0 -42 11q-19 12 -34 34q-6 11 -9 25q-3 12 -3 22q0 30 13 47q14 19 44 37q41 26 109 27t106 24q-44 25 -107 26q-64 1 -108 26q-29 16 -42 37q-15 24 -15 47q0 14 3 23t9 24q11 20 33 33q21 12 43 12q16 0 29 -4q10 -3 32 -13q31 -19 76 -80q44 -60 76 -79 q0 41 -32 105t-32 105q0 46 24 74q24 29 68 29t68 -29q25 -30 25 -74q0 -46 -32 -107t-32 -103q36 23 74 78q40 59 78 81q15 10 28 13q15 4 33 4q22 0 41 -11q18 -11 33 -34q6 -10 9 -23q3 -12 3 -24q0 -27 -15 -50q-14 -21 -40 -34q-40 -21 -112 -27q-68 -6 -103 -25 q29 -17 107 -25q77 -8 108 -26q28 -16 42 -36q13 -19 13 -48z" />
<glyph unicode="+" horiz-adv-x="894" d="M823 453q0 -25 -7 -47q-8 -25 -19 -25h-279v-275q0 -12 -24 -19q-22 -7 -50 -7q-22 0 -46 7q-25 7 -25 19v275h-275q-11 0 -19 25q-7 22 -7 47q0 24 7 48q7 25 19 25h275v273q0 9 24 17q22 7 47 7q26 0 50 -6t24 -18v-273h279q12 0 19 -26q7 -25 7 -47z" />
<glyph unicode="," horiz-adv-x="655" d="M530 72q0 -156 -84 -276q-83 -119 -225 -199q-6 -2 -19 7q-16 11 -22 19q-8 11 -14 26t0 19q74 50 120 96q50 50 50 152q0 24 -3 35q-3 10 -11 10q-6 0 -14 -3t-17 -3q-60 0 -105 42t-45 132q0 74 53 138q52 63 134 63q91 0 147 -74q55 -73 55 -184z" />
<glyph unicode="-" horiz-adv-x="843" d="M733 453q0 -43 -7 -65q-7 -23 -19 -23h-533q-12 0 -19 23q-8 26 -8 65q0 37 8 63q8 25 19 25h533q11 0 19 -25q7 -22 7 -63z" />
<glyph unicode="." horiz-adv-x="655" d="M514 143q0 -75 -54 -131q-54 -55 -132 -55q-76 0 -131 55q-56 56 -56 131t56 131t131 56q78 0 132 -56t54 -131z" />
<glyph unicode="/" horiz-adv-x="628" d="M659 1460l-440 -1483q-6 -10 -31 -15q-27 -5 -49 -5q-24 0 -49 5q-22 4 -18 15l440 1483q5 12 32 17q24 4 48 4q20 0 47 -5q12 -2 17 -6.5t3 -9.5z" />
<glyph unicode="0" horiz-adv-x="1259" d="M1171 461q0 -211 -138 -358q-137 -146 -404 -146t-406 145t-139 359q0 210 138 363t407 153q263 0 403 -152q139 -151 139 -364zM799 461q0 198 -34 307q-35 111 -136 111q-100 0 -136 -107q-36 -106 -36 -311q0 -200 33 -300q35 -106 139 -106q101 0 136 106 q34 103 34 300z" />
<glyph unicode="1" horiz-adv-x="974" d="M881 33q0 -8 -5 -28q-4 -17 -12 -17q-71 0 -185 6t-192 6q-73 0 -194 -6q-122 -6 -184 -6q-8 0 -12 17q-5 20 -5 28q0 10 5 28q5 17 12 17q93 12 149 27q55 15 55 139v446q0 117 -60 136q-60 20 -144 30q-8 0 -12 16q-5 18 -5 29t5 29q4 16 12 16q72 0 186 -6t192 -6 q74 0 194 6t183 6q8 0 12 -15q5 -17 5 -30t-5 -30q-4 -15 -12 -15q-79 -7 -142 -34q-60 -26 -60 -132v-446q0 -115 59 -136q66 -23 143 -30q7 0 12 -16q5 -17 5 -29z" />
<glyph unicode="2" horiz-adv-x="1058" d="M1001 332q-27 -53 -75 -164q-53 -123 -72 -180q-43 9 -122 10q-114 2 -234 2q-124 0 -278 -2q-112 -1 -148 -8q-10 0 -17 14q-8 16 -8 29q0 5 2 11q1 2 2 5t2 4q275 197 387 306q113 110 113 229q0 70 -40 114q-41 46 -128 46q-77 0 -129 -41q-48 -38 -102 -97 q-5 -4 -23 1q-12 3 -27 14q-10 10 -16 21q-8 14 -6 20q91 142 201 227q112 86 270 86q157 0 248 -87q92 -87 92 -212q0 -130 -111 -239t-362 -214l315 9q70 5 105 33q38 30 78 96q2 6 21 5q18 -1 30 -8q11 -5 23 -14q13 -10 9 -16z" />
<glyph unicode="3" horiz-adv-x="1021" d="M930 33q0 -197 -198 -344q-199 -148 -445 -148q-133 0 -209 46t-76 124q0 60 44 101t110 41q53 0 83 -35q27 -31 44 -70q19 -41 35 -69q20 -35 49 -35q103 0 159 92t56 274q0 96 -38 167t-134 71q-56 0 -83 -11q-31 -12 -67 -34q-7 -2 -18 8q-15 13 -21 25q-7 12 -8 26 q-2 17 4 21q133 67 209 162q78 97 78 184q0 64 -34 105q-35 42 -101 42q-64 0 -111 -32q-48 -32 -102 -91q-5 -4 -23 1q-12 3 -27 14q-10 10 -16 21q-8 14 -6 20q90 128 202 199q110 69 236 69q148 0 237 -89t89 -196q0 -118 -75 -194t-226 -127q194 0 289 -100 q94 -98 94 -238z" />
<glyph unicode="4" horiz-adv-x="1224" d="M1153 74q0 -22 -6 -48t-19 -26h-225v-418q0 -17 -43 -29t-131 -12q-85 0 -129 12q-43 12 -43 29v418h-491q-10 0 -18 15q-7 14 -7 28q0 4 2 12q1 2 2.5 6t1.5 5l768 886q6 10 19 15q11 4 26 4q23 0 41 -9q19 -10 19 -22q-10 -128 -12 -180q-5 -112 -5 -164v-451h225 q10 0 18 -24q7 -22 7 -47zM557 145v334l-297 -334h297z" />
<glyph unicode="5" horiz-adv-x="1042" d="M971 1018l-53 -146q-52 -133 -85 -172q-35 -41 -112 -41h-402l-20 -63q-15 -37 -7 -52q8 -16 34 -16q277 -23 420 -142q145 -121 145 -286q0 -240 -227 -400q-229 -161 -586 -161q-6 0 -11 17q-6 22 -6 28q0 7 6 29q4 16 11 16q217 0 351 96q132 95 132 275 q0 121 -102 184t-303 78q-22 0 -34 17q-11 15 -11 36q0 4 2 16q1 3 2.5 9t1.5 8l180 576q1 7 11 15q9 7 26 9l424 17q41 2 73 22q35 23 52 53q5 11 23 12q20 2 30 -3q12 -5 27 -16q12 -9 8 -15z" />
<glyph unicode="6" horiz-adv-x="1277" d="M1176 459q0 -211 -144 -357q-144 -145 -383 -145q-266 0 -406 146q-141 147 -141 382q0 310 286 554t722 358q5 1 16 -14q12 -17 13 -25q1 -10 3 -29q2 -18 -5 -20q-301 -112 -489 -317q-187 -203 -187 -560q0 -180 34 -278q35 -99 154 -99q80 0 122 91q42 92 42 253 q0 154 -21 229q-21 74 -87 74q-16 0 -28 -3q-9 -2 -26 -9q-5 0 -19 8t-22 19q-10 14 -14 24q-6 15 -2 21q34 35 92 63q61 29 131 29q151 0 255 -113t104 -282z" />
<glyph unicode="7" horiz-adv-x="1062" d="M1065 918q0 -5 -2 -13q-1 -2 -2.5 -5.5t-1.5 -4.5l-686 -1329q-6 -15 -34 -21q-27 -6 -58 -6q-24 0 -53 10q-15 5 -21 11t-4 12l604 1032h-469q-63 0 -101 -44q-39 -46 -69 -136q-5 -8 -17 -12t-28 -4q-11 0 -28 5q-15 5 -17 11q24 101 47 263q27 186 33 274 q48 -10 144 -11q144 -2 261 -2q64 0 284 2q162 1 193 8q11 5 18 -13q7 -17 7 -27z" />
<glyph unicode="8" horiz-adv-x="1177" d="M1075 371q0 -171 -152 -292q-154 -122 -376 -122q-200 0 -322 94q-123 95 -123 236q0 119 81 205t206 143q-123 78 -187 172q-65 95 -65 190q0 166 138 283t356 117q175 0 287 -89q110 -88 110 -227q0 -99 -70 -171q-71 -72 -180 -124q143 -84 221 -188q76 -101 76 -227z M850 1085q0 101 -63 156q-62 55 -136 55q-77 0 -123 -41q-45 -41 -45 -125q0 -74 46 -135q45 -60 176 -145q76 49 110 108q35 61 35 127zM715 248q0 106 -78 183q-80 78 -174 140q-86 -47 -128 -117q-42 -71 -42 -175t77 -164q76 -60 173 -60q79 0 125 51q47 52 47 142z" />
<glyph unicode="9" horiz-adv-x="1277" d="M1176 449q0 -314 -277 -558t-698 -352q-7 0 -15 14l-7.5 12.5t-6.5 10.5q-4 15 -3 31q2 17 7 18q316 122 479 332q162 208 162 496q0 221 -36 324q-36 104 -140 104q-95 0 -135 -91q-41 -93 -41 -255q0 -154 30 -211q31 -58 97 -58q11 0 26 3q16 3 25 7q6 5 22 -6 q14 -10 19 -18q6 -8 14 -25q7 -16 2 -20q-45 -45 -90 -68q-46 -24 -133 -24q-149 0 -262 108t-113 271q0 202 152 343q150 140 403 140q245 0 381 -147q138 -149 138 -381z" />
<glyph unicode=":" horiz-adv-x="655" d="M514 717q0 -75 -54 -131t-132 -56q-75 0 -131 56t-56 131q0 78 56 132q55 54 131 54q78 0 132 -54t54 -132zM514 143q0 -75 -54 -131q-54 -55 -132 -55q-76 0 -131 55q-56 56 -56 131t56 131t131 56q78 0 132 -56t54 -131z" />
<glyph unicode=";" horiz-adv-x="655" d="M514 717q0 -76 -55 -131q-56 -56 -131 -56q-78 0 -132 56q-55 57 -55 131t55 131q54 55 132 55q76 0 131 -55t55 -131zM530 72q0 -156 -84 -276q-83 -119 -225 -199q-6 -2 -19 7q-16 11 -22 19q-8 11 -14 26t0 19q74 50 120 96q50 50 50 152q0 24 -3 35q-3 10 -11 10 q-6 0 -14 -3t-17 -3q-60 0 -105 42t-45 132q0 74 53 138q52 63 134 63q91 0 147 -74q55 -73 55 -184z" />
<glyph unicode="&#x3c;" horiz-adv-x="1089" d="M958 94q11 -5 7 -31q-5 -27 -15 -45q-10 -17 -28 -38t-29 -15l-795 404q-14 7 -20 25t-6 36q0 20 6 37q7 18 20 25l795 403q11 6 30 -15t27 -38q11 -26 14 -45q4 -27 -6 -31l-669 -336z" />
<glyph unicode="=" horiz-adv-x="894" d="M823 604q0 -25 -7 -47q-8 -25 -19 -25h-699q-11 0 -19 25q-7 22 -7 47q0 24 7 48q8 26 19 26h699q11 0 19 -27q7 -25 7 -47zM823 297q0 -25 -7 -47q-8 -25 -19 -25h-699q-11 0 -19 25q-7 22 -7 47q0 24 7 48q8 26 19 26h699q11 0 19 -27q7 -25 7 -47z" />
<glyph unicode="&#x3e;" horiz-adv-x="1089" d="M1018 430q0 -18 -7 -36q-7 -19 -20 -25l-794 -404q-10 -4 -29 15q-20 20 -29 38q-12 23 -15 48q-3 22 7 28l670 336l-670 336q-10 6 -5 31q3 18 13 45q10 20 29 39q18 19 29 14l794 -403q15 -7 21 -25q6 -17 6 -37z" />
<glyph unicode="?" horiz-adv-x="825" d="M778 971q0 -179 -73 -246t-156 -96q-67 -21 -142 -64q-71 -41 -61 -123l2 -8q0 -6 -16 -15q-18 -10 -31 -11q-15 0 -31 3q-15 3 -20 9l-39 270q-12 90 51 130q63 41 144 65q62 19 148 52q71 27 71 93q0 35 -30 68q-29 32 -116 32q-49 0 -108 -14t-103 -14q-80 0 -129 49 t-49 117q0 81 55 130q56 50 158 50q157 0 317 -148q158 -146 158 -329zM471 127q0 -68 -50 -118t-118 -50t-118 50t-50 118q0 72 48 120t120 48q68 0 118 -50t50 -118z" />
<glyph unicode="@" horiz-adv-x="1683" d="M1589 854q0 -199 -147 -355q-148 -157 -357 -157q-127 0 -169 49t-13 150q-70 -97 -136 -146q-71 -53 -151 -53q-70 0 -111 48q-40 47 -40 126q0 149 177 332q176 182 325 182q42 0 72 -23q32 -24 32 -61l27 66q5 9 37 13q37 5 67 5q36 0 77 -12q13 -4 22 -8t12.5 -7 t1.5 -6l-187 -426q-26 -58 -18 -82q7 -22 37 -22q150 0 243 114t93 273q0 180 -146 312t-417 132q-291 0 -456 -175t-165 -453q0 -260 168 -429t438 -169q196 0 317 50q114 47 208 114q5 4 19 -10q11 -11 17 -21q7 -12 11 -28q4 -18 0 -19q-112 -83 -240 -141 q-133 -60 -348 -60q-363 0 -583 222q-220 221 -220 528q0 135 54 263q53 125 163 238q106 106 264 172q157 66 353 66q300 0 485 -168q184 -168 184 -424zM1024 895q0 19 -6 28t-19 9q-48 0 -181 -163q-134 -164 -134 -253q0 -22 8 -33q7 -10 33 -10q59 0 179 173 q120 172 120 249z" />
<glyph unicode="A" horiz-adv-x="1632" d="M1620 35q0 -11 -5 -29q-4 -16 -11 -16q-87 0 -199 5t-184 5q-82 0 -202 -5t-208 -5q-7 0 -11 15q-5 17 -5 30q0 9 3 26q3 18 9 19q99 6 130 25q32 20 32 61q0 19 -7 41q0 2 -16 45l-55 143h-430l-49 -119q-14 -32 -20 -54q-7 -24 -7 -44q0 -42 24 -68t130 -30q7 0 8 -18 q2 -24 2 -27q0 -13 -5 -30q-4 -15 -12 -15q-82 0 -137 5t-131 5q-62 0 -119 -5t-120 -5q-7 0 -11 17q-4 16 -4 28q0 10 9 26q9 17 16 19q87 7 137 53q48 44 100 152l508 1145q2 6 23 11q23 5 39 5t39 -5q20 -4 22 -11l455 -1145q38 -103 88 -149q50 -45 153 -56q7 0 14 -18 q7 -17 7 -27zM852 494l-172 450l-180 -450h352z" />
<glyph unicode="B" horiz-adv-x="1617" d="M1538 385q0 -164 -125 -280q-124 -115 -455 -115q-87 0 -220 5t-214 5q-82 0 -207 -5t-213 -5q-7 0 -11 16q-5 18 -5 29q0 8 5 26q5 17 11 19q123 15 159 51q38 38 38 121v899q0 83 -38 121q-36 36 -159 51q-7 2 -11 18q-5 18 -5 27q0 11 5 29q4 16 11 16q89 0 207 -5 t201 -5t200 5t206 5q283 0 413 -89q129 -88 129 -230q0 -117 -102 -207q-103 -91 -299 -119q234 -11 356 -128q123 -118 123 -255zM1036 1067q0 132 -49 188q-50 58 -160 58h-24q-41 0 -70 -19q-26 -17 -26 -75v-414h108q120 0 170 62q51 63 51 200zM1116 406q0 148 -64 224 q-65 77 -192 77h-153v-488q0 -69 36 -98q39 -31 101 -31q98 0 185 75t87 241z" />
<glyph unicode="C" horiz-adv-x="1624" d="M1509 492q-3 -26 -12.5 -104.5t-16.5 -130.5q-21 -167 -26 -212q-90 0 -228 -44t-292 -44q-212 0 -370 62q-160 63 -267 165q-106 101 -159 235q-52 131 -52 275q0 296 235 525q233 227 629 227q171 0 287 -31t207 -31q4 -95 12 -221q3 -48 9.5 -130.5t7.5 -94.5 q0 -6 -19 -11q-20 -5 -33 -5q-11 0 -23 4q-14 4 -18 12q-27 151 -152 280q-126 130 -286 130q-242 0 -338 -186t-96 -468q0 -275 95 -457t331 -182q188 0 307 131q117 129 178 306q1 7 18 12q13 4 25 4q9 0 29 -5q18 -5 18 -11z" />
<glyph unicode="D" horiz-adv-x="1832" d="M1546 1204q104 -102 151 -228q48 -127 48 -282q0 -138 -43 -267q-44 -131 -143 -226q-109 -104 -253 -157q-147 -54 -393 -54q-77 0 -193 3q-115 3 -194 3q-45 0 -219 -2q-25 0 -203 -4q-7 0 -11 16q-5 18 -5 29q0 8 5 26q5 17 11 19q123 15 159 51q38 38 38 121v899 q0 83 -38 121q-36 36 -159 51q-7 2 -11 18q-5 18 -5 27q0 11 5 29q4 16 11 16q178 -4 203 -4q174 -2 219 -2q78 0 195 3t192 3q210 0 369 -54q158 -54 264 -155zM1323 694q0 287 -87 454t-331 165l-80 -4q-40 0 -80 -23q-38 -22 -38 -96v-977q0 -74 38 -96q40 -23 80 -23 l80 -4q232 0 325 161t93 443z" />
<glyph unicode="E" horiz-adv-x="1566" d="M1454 469q-12 -88 -28 -243q-12 -117 -19 -236q-103 4 -324 7q-195 3 -313 3q-143 0 -338 -4q-217 -4 -328 -6q-7 0 -11 16q-5 18 -5 29q0 8 5 26q5 17 11 19q123 15 159 51q38 38 38 121v899q0 83 -38 121q-36 36 -159 51q-7 2 -11 18q-5 18 -5 27q0 11 5 29q4 16 11 16 q112 -2 312 -6q180 -4 334 -4q110 0 313 3q228 3 328 7q-4 -84 3 -217q3 -62 11 -240q0 -8 -15 -17t-42 -9q-16 0 -25 4q-10 4 -10 8q-17 130 -108 245q-92 116 -257 116h-123q-41 0 -80 -21q-38 -20 -38 -100v-424h69q103 0 165 61t73 162q0 7 17 11q20 5 28 5q13 0 30 -5 q15 -4 15 -11q0 -68 -5 -141t-5 -135q0 -65 5 -135t5 -136q0 -6 -15 -11q-17 -5 -30 -5q-9 0 -27 5q-16 4 -18 11q-12 106 -69 165q-57 58 -169 58h-69v-436q0 -74 38 -97q39 -24 80 -24h107q154 0 276 113t152 276q0 5 9 7q12 2 22 2q19 0 44 -9q21 -7 19 -20z" />
<glyph unicode="F" horiz-adv-x="1523" d="M1430 940q0 -8 -19 -17q-20 -10 -37 -10q-6 0 -21 5q-14 5 -14 8q-18 136 -113 257q-94 120 -276 120h-123q-43 0 -82 -21q-38 -20 -38 -100v-432h102q105 0 166 61q62 62 74 162q0 7 15 11q17 5 30 5q12 0 29 -5q16 -5 16 -11q0 -76 -6 -142q-7 -77 -7 -135 q0 -60 7 -134q6 -63 6 -136q0 -6 -16 -11q-17 -5 -29 -5q-13 0 -30 5q-15 5 -15 11q-15 108 -71 165q-57 58 -169 58h-102v-397q0 -82 47 -121q46 -39 166 -51q6 0 11 -18q5 -20 5 -27q0 -11 -5 -29q-4 -16 -11 -16q-88 0 -211 5t-205 5q-83 0 -196 -5t-202 -5q-6 0 -11 15 q-5 17 -5 30q0 8 5 26q5 17 11 19q121 15 157 51q38 38 38 121v899q0 83 -38 121q-36 36 -157 51q-7 2 -11 18q-5 18 -5 27q0 13 5 30q5 15 11 15q110 -1 316 -6q183 -4 336 -4q116 0 321 3q229 3 330 7q0 -98 7 -232q5 -102 14 -241z" />
<glyph unicode="G" horiz-adv-x="1695" d="M1681 618q0 -7 -5 -27q-4 -18 -11 -18q-98 -10 -135 -53t-37 -119v-206q0 -49 5 -74q3 -15 18 -49q-117 -41 -283 -79q-159 -36 -332 -36q-199 0 -354 61q-157 62 -258 166q-101 101 -152 234q-51 134 -51 276q0 156 56 286q58 134 171 241q110 103 284 164t380 61 q117 0 248 -35t223 -35q0 -99 4 -216q4 -132 6 -222q0 -7 -17 -11q-20 -5 -32 -5q-15 0 -26 4q-10 4 -15 12q-47 170 -169 289t-292 119q-184 0 -292 -183q-107 -181 -107 -469q0 -277 104 -457q105 -182 289 -182q125 0 169 33t44 98v244q0 70 -37 98t-164 43q-6 0 -11 17 q-5 18 -5 30q0 13 5 30q5 16 11 16q88 0 177 -7q77 -6 167 -6q95 0 201 6q124 7 207 7q6 0 11 -17q5 -18 5 -29z" />
<glyph unicode="H" horiz-adv-x="1966" d="M1878 35q0 -11 -5 -29q-4 -16 -11 -16q-90 0 -203 5t-197 5t-187 -5t-194 -5q-7 0 -11 15q-5 17 -5 30q0 8 5 26q5 17 11 19q119 15 148 51q31 39 31 121v405h-553v-405q0 -82 30 -121t150 -51q7 0 11 -18q5 -20 5 -27q0 -11 -5 -29q-4 -16 -11 -16q-90 0 -195 5t-188 5 t-196 -5t-202 -5q-6 0 -11 15q-5 17 -5 30q0 8 5 26q5 17 11 19q121 15 157 51q38 38 38 121v899q0 83 -38 121q-36 36 -157 51q-7 2 -11 18q-5 18 -5 27q0 13 5 30q5 15 11 15q89 0 202 -5t196 -5t188 5t195 5q7 0 11 -16q5 -18 5 -29q0 -8 -5 -28q-4 -17 -11 -17 q-120 -12 -150 -51t-30 -121v-393h553v393q0 87 -28 123q-26 34 -151 49q-7 2 -11 18q-5 18 -5 27q0 13 5 30q4 15 11 15q91 0 194 -5t187 -5q85 0 197 5t203 5q7 0 11 -16q5 -18 5 -29q0 -8 -5 -28q-4 -17 -11 -17q-119 -12 -158 -51t-39 -121v-899q0 -82 39 -121t158 -51 q6 0 11 -18q5 -20 5 -27z" />
<glyph unicode="I" horiz-adv-x="1007" d="M918 35q0 -10 -6 -30q-4 -15 -11 -15q-89 0 -202 5t-195 5q-84 0 -197 -5t-203 -5q-7 0 -11 16q-5 18 -5 29q0 8 5 26q5 17 11 19q123 15 159 51q38 38 38 121v899q0 83 -38 121q-36 36 -159 51q-7 2 -11 18q-5 18 -5 27q0 11 5 29q4 16 11 16q90 0 203 -5t197 -5 q82 0 195 5t202 5q7 0 11 -15q6 -20 6 -30q0 -4 -6 -28q-4 -17 -11 -17q-117 -12 -156 -51q-38 -38 -38 -121v-899q0 -83 38 -121q39 -39 156 -51q7 0 11 -18q6 -24 6 -27z" />
<glyph unicode="J" horiz-adv-x="1110" d="M1006 1366q0 -7 -6 -29q-4 -16 -11 -16q-116 -12 -156 -52t-40 -122v-959q0 -363 -198 -546t-493 -183q-141 0 -258 72q-116 71 -116 178q0 100 61 152q62 53 160 53q73 0 120 -51q44 -49 74 -111q19 -38 62 -109q31 -51 74 -51q59 0 83 80q25 83 25 285v1190 q0 79 -38 120q-36 39 -156 54q-7 0 -12 15q-5 17 -5 30q0 8 5 28q4 17 12 17q99 0 201 -6t196 -6t196 6t203 6q7 0 11 -17q6 -24 6 -28z" />
<glyph unicode="K" horiz-adv-x="1816" d="M1819 35q0 -13 -5 -30q-4 -15 -12 -15q-92 0 -169 5t-163 5q-81 0 -208 -5t-215 -5q-8 0 -12 16q-5 18 -5 29t4 26q5 18 10 19q52 6 76 21q25 16 25 44q0 13 -7 30q-6 13 -26 44l-264 365q-21 31 -51 47q-27 14 -88 14v-393q0 -82 30 -121t150 -51q7 0 11 -18 q5 -20 5 -27q0 -11 -5 -29q-4 -16 -11 -16q-90 0 -195 5t-188 5t-196 -5t-201 -5q-7 0 -12 15q-5 17 -5 30q0 8 5 26q5 17 12 19q120 15 156 51q38 38 38 121v899q0 85 -25 119q-26 35 -186 53q-7 2 -11 18q-5 18 -5 27q0 13 5 30q5 15 11 15q88 0 210 -5t204 -5t205 5 t211 5q7 0 11 -16q5 -18 5 -29q0 -8 -5 -28q-4 -17 -11 -17q-143 -15 -178 -50t-35 -122v-393q40 0 64 10q25 10 58 43l392 373q14 14 28 34q11 16 11 35q0 26 -29 44q-30 19 -100 26q-8 2 -12 18q-5 18 -5 27q0 11 5 29q4 16 12 16q63 0 176 -5t182 -5q59 0 124 5t101 5 q6 0 11 -15q6 -20 6 -30t-7 -29q-6 -16 -12 -16q-116 -12 -204 -60t-152 -110l-248 -246l481 -694q44 -65 97 -96t114 -37q8 0 12 -18q5 -20 5 -27z" />
<glyph unicode="L" horiz-adv-x="1486" d="M1434 518q-14 -105 -28 -280q-11 -131 -17 -248q-102 4 -322 7q-192 3 -313 3q-154 0 -338 -4q-205 -4 -310 -6q-6 0 -11 15q-5 17 -5 30q0 8 5 26q5 17 11 19q121 15 157 51q38 38 38 121v899q0 83 -38 121q-36 36 -157 51q-7 2 -11 18q-5 18 -5 27q0 13 5 30 q5 15 11 15q87 0 202 -5t196 -5q83 0 196 5t203 5q7 0 11 -16q6 -22 6 -29q0 -4 -6 -28q-4 -17 -11 -17q-119 -12 -158 -51q-38 -38 -38 -121v-930q0 -74 39 -97q40 -24 81 -24h117q143 0 255 136q112 137 142 303q0 4 8 6q10 2 21 2q22 0 44 -8t20 -21z" />
<glyph unicode="M" horiz-adv-x="2168" d="M2122 35q0 -14 -4 -29q-4 -16 -11 -16q-87 0 -204 5t-199 5q-84 0 -194 -5t-199 -5q-7 0 -13 15t-6 30q0 8 5 26q5 17 12 19q110 12 152 51t36 121l-37 885l-448 -1164q-1 -3 -21 -10q-18 -6 -41 -6q-28 0 -43 6q-13 5 -18 10l-453 1119l-51 -840q-6 -84 36 -122 q43 -38 161 -50q6 0 9 -18t3 -27q0 -15 -6 -30t-13 -15q-70 0 -142 5t-136 5q-67 0 -137 -5t-133 -5q-7 0 -11 17q-4 16 -4 28q0 14 7 28q8 15 14 17q122 15 167 50q46 36 54 122l84 899q6 86 -37 122q-42 35 -162 50q-5 1 -10 18q-4 15 -4 27q0 16 7 30q8 15 13 15 q43 0 138 -5t131 -5q47 0 152 5t161 5l373 -926l358 926q69 0 161 -5t136 -5q53 0 146 5t145 5q7 0 11 -16q5 -18 5 -29q0 -12 -4 -28q-4 -17 -10 -17q-112 -12 -153 -51q-40 -38 -35 -121l43 -899q4 -82 42 -121t160 -51q7 0 12 -18q5 -20 5 -27z" />
<glyph unicode="N" horiz-adv-x="1808" d="M1808 1368q0 -8 -5 -28q-4 -17 -11 -17q-114 -12 -161 -50q-46 -37 -48 -122l-22 -1169q0 -6 -14 -14q-13 -7 -44 -7q-23 0 -39 3q-17 3 -24 13l-996 1006l-12 -731q-4 -79 43 -120q46 -40 166 -52q7 0 11 -15q5 -17 5 -30q0 -11 -5 -29q-4 -16 -11 -16q-70 0 -143 5 t-138 5q-66 0 -136 -5t-132 -5q-7 0 -11 16q-5 18 -5 29q0 13 6 28q6 16 12 17q117 12 162 51t45 121l33 833q1 110 -45 167q-45 56 -178 71q-7 2 -11 18q-4 15 -4 27q0 13 5 30q5 15 12 15q41 0 116 -5t111 -5q49 0 104 5t127 5l889 -926v664q0 84 -49 121q-47 36 -168 51 q-7 2 -11 16q-5 17 -5 29q0 11 5 29q4 16 11 16q79 0 136 -6t128 -6q74 0 146 6t139 6q6 0 11 -15q5 -17 5 -30z" />
<glyph unicode="O" horiz-adv-x="1781" d="M1694 694q0 -308 -210 -522q-210 -215 -593 -215t-594 216q-211 215 -211 521t211 529t594 223q375 0 589 -220t214 -532zM1272 694q0 283 -82 468q-82 186 -299 186q-219 0 -300 -188t-81 -466q0 -285 81 -462t300 -177q217 0 299 178q82 177 82 461z" />
<glyph unicode="P" horiz-adv-x="1529" d="M1464 969q0 -200 -165 -315q-164 -115 -449 -115q-44 0 -75 4q-32 4 -68 12v-303q0 -83 38 -121q39 -39 158 -51q7 0 11 -18q6 -24 6 -27q0 -7 -6 -29q-4 -16 -11 -16q-90 0 -203 5t-196 5t-196 -5t-202 -5q-6 0 -11 15q-5 17 -5 30q0 8 5 26q5 17 11 19q121 15 157 51 q38 38 38 121v932q0 67 -40 97t-155 42q-7 2 -11 18q-5 18 -5 27q0 13 5 30q5 15 11 15q88 0 210 -5t204 -5q87 0 164 5t170 5q322 0 467 -119q143 -118 143 -325zM1042 997q0 179 -55 247q-56 69 -158 69q-65 0 -94 -31q-28 -29 -28 -98v-471q0 -47 42 -61q40 -13 58 -13 q121 0 178 90t57 268z" />
<glyph unicode="Q" horiz-adv-x="1781" d="M1638 -350q0 -12 -4 -27q-4 -17 -12 -18q-33 -9 -112 -22q-65 -11 -156 -11q-215 0 -404 98t-284 310q-283 63 -432 260q-148 196 -148 454q0 306 211 529t594 223q375 0 589 -220t214 -532q0 -254 -147 -450q-148 -197 -419 -260q56 -171 144 -234t235 -63q11 0 51 2 q29 1 64 6q3 1 6 -2.5t5 -11.5q5 -18 5 -31zM1272 694q0 283 -82 468q-82 186 -299 186q-219 0 -300 -188t-81 -466q0 -282 81 -461q81 -178 300 -178q217 0 299 178q82 177 82 461z" />
<glyph unicode="R" horiz-adv-x="1656" d="M1708 35q-2 -13 -9 -29t-13 -16q-47 0 -152 5t-129 5q-41 0 -129 -5t-129 -5l-258 524q-29 60 -74 85q-43 24 -117 24v-371q0 -81 31 -121q30 -39 150 -51q7 0 11 -18q5 -20 5 -27q0 -11 -5 -29q-4 -16 -11 -16q-90 0 -195 5t-188 5t-196 -5t-202 -5q-6 0 -11 15 q-5 17 -5 30q0 8 5 26q5 17 11 19q121 15 157 51q38 38 38 121v899q0 83 -38 121q-36 36 -157 51q-7 2 -11 18q-5 18 -5 27q0 13 5 30q5 15 11 15q89 0 206 -5t200 -5q86 0 168 5t174 5q333 0 479 -109q148 -110 148 -257q0 -138 -67 -225q-65 -85 -216 -130l280 -469 q43 -71 89 -102t139 -41q6 0 9 -18q3 -16 1 -27zM1051 1010q0 157 -58 230t-176 73q-73 0 -96 -29t-23 -100v-463q28 -3 36 -4q32 -2 44 -2q147 0 209 65q64 67 64 230z" />
<glyph unicode="S" horiz-adv-x="1378" d="M913 844q121 -72 228 -171q106 -99 106 -251q0 -216 -156 -341q-155 -124 -395 -124q-147 0 -249 40t-236 64q-2 98 -2 197q0 122 -6 217q0 7 17 11q24 6 30 6q13 0 28 -5q14 -5 15 -12q39 -183 163 -301q125 -119 240 -119q118 0 171 53t53 142q0 109 -107 186 q-105 75 -229 148q-130 75 -232 170q-106 99 -106 241q0 191 144 321q143 130 396 130q109 0 195 -28q91 -30 176 -46q0 -23 7 -184q3 -78 14 -182q0 -8 -18 -12q-20 -5 -27 -5q-16 0 -29 4q-14 4 -19 13q-39 161 -114 250q-77 92 -187 92q-94 0 -151 -52q-55 -51 -55 -129 q0 -103 103 -175q102 -71 232 -148z" />
<glyph unicode="T" horiz-adv-x="1587" d="M1556 934q0 -12 -15 -19q-16 -8 -36 -8q-7 0 -22 3t-17 8q-28 112 -136 248q-108 137 -202 137h-30q-46 0 -68 -20q-20 -19 -20 -60v-971q0 -82 39 -121t157 -51q8 0 12 -18q5 -20 5 -27q0 -11 -5 -29q-4 -16 -12 -16q-86 0 -201 5t-196 5q-84 0 -197 -5t-202 -5 q-8 0 -12 16q-5 18 -5 29q0 8 5 26q5 17 12 19q122 15 158 51q38 38 38 121v971q0 44 -18 62t-70 18h-16q-84 0 -207 -126t-174 -259q-2 -7 -16 -9q-18 -2 -21 -2q-17 0 -36 8q-17 7 -17 19q16 78 44 251q23 140 34 247q85 -14 223 -21q162 -8 477 -8q266 0 464 8 q175 7 245 21q8 -128 16 -234q13 -168 22 -264z" />
<glyph unicode="U" horiz-adv-x="1703" d="M1702 1368q0 -8 -5 -28q-4 -17 -11 -17q-120 -12 -160 -49q-41 -38 -41 -123v-645q0 -222 -137 -386q-136 -163 -418 -163q-339 0 -517 151q-177 150 -177 463v580q0 83 -38 121q-36 36 -159 51q-7 2 -11 18q-5 18 -5 27q0 11 5 29q4 16 11 16q90 0 203 -5t196 -5 q81 0 196 5t202 5q7 0 11 -16q5 -18 5 -29q0 -8 -5 -28q-4 -17 -11 -17q-119 -12 -158 -51t-39 -121v-649q0 -208 78 -307t278 -99q182 0 270 115q87 114 87 315v625q0 84 -40 121q-39 36 -159 51q-7 2 -11 18q-5 18 -5 27q0 13 5 30q4 15 11 15q61 0 131 -5t135 -5t132 5 t135 5q7 0 11 -16q5 -18 5 -29z" />
<glyph unicode="V" horiz-adv-x="1646" d="M1677 1368q-1 -10 -9 -28q-7 -17 -13 -17q-88 -6 -133 -55q-46 -51 -92 -150l-543 -1145q-5 -7 -19 -11q-17 -5 -43 -5q-25 0 -42 5q-14 4 -19 11l-490 1145q-50 116 -88 155t-135 50q-6 1 -12 18t-6 27q0 12 6 29q6 16 12 16q89 0 192 -5t177 -5q82 0 197 5t204 5 q6 0 10 -17q5 -20 5 -28t-5 -28q-4 -17 -10 -17q-88 -4 -127 -23q-38 -18 -39 -63q-1 -17 8 -47q10 -33 13 -39l303 -717l317 692q9 23 16 48q9 33 9 51q-1 46 -23 69q-21 23 -135 29q-6 1 -9 18t-3 27q-1 15 3 30t11 15q83 0 133 -5t129 -5q63 0 115 5t119 5q7 0 11 -16 q5 -18 5 -29z" />
<glyph unicode="W" horiz-adv-x="2416" d="M2451 1374q0 -10 -6 -31q-6 -20 -16 -20q-60 -5 -112 -62q-50 -56 -107 -165l-572 -1123q-4 -4 -22 -10t-39 -6q-27 0 -42 6t-19 10l-242 519l-359 -519q-4 -4 -16 -10t-45 -6q-21 0 -39 6t-22 10l-541 1145q-49 104 -84 151q-29 39 -150 54q-7 2 -14 18q-8 18 -8 27 q0 14 4 29q4 16 10 16q94 0 184 -5t175 -5q87 0 152 5t159 5q6 0 12 -15t6 -30q0 -4 -2 -28q-1 -17 -8 -17q-50 -1 -75 -17q-23 -14 -23 -42q0 -22 13 -54q13 -33 28 -59l397 -809l189 270l-236 506q-62 132 -105 167q-40 33 -88 38q-7 2 -14 18q-8 18 -8 27q0 11 5 29 q4 16 11 16q94 0 162 -5t156 -5q85 0 160 5t167 5q8 0 12 -16q5 -18 5 -29q0 -4 -2 -28q-1 -17 -8 -17q-56 0 -80 -21q-25 -22 -25 -53q0 -26 10 -50q11 -25 21 -48l96 -197l119 172q32 45 48 77q15 30 15 57q0 31 -24 46q-25 15 -88 17q-6 1 -9 18q-4 22 -4 27q0 12 7 30 q6 15 12 15q65 0 123 -5t86 -5q44 0 89 5t101 5q3 0 8 -12q5 -13 5 -27q0 -6 -7 -31q-6 -20 -16 -20q-41 -2 -85 -41q-46 -41 -85 -96l-240 -350l213 -441l369 731q20 42 29 66q10 27 10 55q0 32 -23 53q-23 22 -84 23q-6 1 -9 18t-3 27q0 15 6 30t13 15q66 0 114 -5t82 -5 q47 0 95 5t116 5q3 0 8 -12q4 -11 4 -27z" />
<glyph unicode="X" horiz-adv-x="1718" d="M1712 35q0 -11 -5 -29q-4 -16 -11 -16q-59 0 -192 5t-197 5q-80 0 -217 -5t-224 -5q-6 0 -11 15q-5 17 -5 30q0 8 5 26q5 17 11 19q82 11 110 21q34 12 34 46q0 15 -13 41q-14 28 -39 64l-206 301l-246 -301q-18 -21 -30 -45q-11 -22 -11 -41q0 -36 35 -57 q35 -22 108 -29q6 0 9 -18q4 -24 4 -27q0 -7 -6 -29q-4 -16 -11 -16q-92 0 -155 5t-140 5q-61 0 -119 -5t-131 -5q-7 0 -11 15q-5 17 -5 30q0 8 8 26q8 17 15 19q93 11 161 55q70 46 142 131l323 373l-334 487q-69 99 -121 140q-57 45 -174 57q-7 2 -11 18q-5 18 -5 27 q0 11 5 29q4 16 11 16q60 0 188 -5t193 -5q80 0 222 5t227 5q7 0 11 -16q5 -18 5 -29q0 -8 -5 -28q-4 -17 -11 -17q-74 -8 -106 -26q-31 -18 -31 -44q0 -24 15 -54t30 -48l190 -277l232 277q9 10 25 39q12 21 12 41q0 33 -30 55q-29 22 -145 37q-6 1 -9 18t-3 27q0 11 5 29 q4 16 12 16q92 0 164 -5t159 -5q74 0 114 5t134 5q7 0 11 -16q5 -18 5 -29q0 -9 -8 -28q-7 -17 -14 -17q-82 -6 -146 -47q-61 -39 -159 -148l-297 -342l366 -534q60 -84 117 -125q51 -36 160 -47q6 0 11 -18q5 -20 5 -27z" />
<glyph unicode="Y" horiz-adv-x="1595" d="M1665 1368q0 -9 -8 -28q-7 -17 -15 -17q-83 -7 -144 -47q-60 -39 -122 -125l-360 -522v-377q0 -81 31 -121q30 -39 149 -51q6 0 11 -18q5 -20 5 -27q0 -11 -5 -29q-4 -16 -11 -16q-90 0 -195 5t-188 5t-196 -5t-201 -5q-8 0 -12 15q-5 17 -5 30q0 8 5 26q5 17 12 19 q120 15 156 51q38 38 38 121v375l-331 524q-56 86 -112 123t-169 49q-7 2 -11 18q-5 18 -5 27q0 11 5 29q4 16 11 16q60 0 175 -5t183 -5q67 0 212 5t231 5q7 0 11 -15q5 -17 5 -30q0 -8 -5 -28q-4 -17 -11 -17q-73 -7 -105 -28q-30 -19 -30 -46q0 -21 12 -45q9 -19 31 -53 l260 -403l270 403q15 21 27 46q10 20 10 42q0 31 -29 52t-115 32q-7 2 -8 18q-2 22 -2 27q0 13 5 30q5 15 12 15q82 0 145 -5t141 -5q59 0 117 5t109 5q7 0 11 -16q5 -18 5 -29z" />
<glyph unicode="Z" horiz-adv-x="1519" d="M1430 453q-4 -42 -11.5 -126.5t-10.5 -114.5q-9 -100 -15 -230q-61 12 -242 15q-180 3 -436 3q-255 0 -406 -3q-152 -3 -209 -15q-15 -2 -22 9q-8 13 -8 27q0 3 2 9l2 6l891 1270h-336q-156 0 -259 -111q-104 -111 -153 -258q-5 -6 -17 -9q-13 -3 -22 -3q-20 0 -37 9 q-16 9 -16 19q13 70 37 224q20 130 28 247q47 -9 206 -14q136 -4 401 -4q235 0 405 3t219 15q13 5 22 -10t9 -27q0 -5 -1 -8q-1 -4 -3 -6l-889 -1270h356q145 0 270 119q124 118 154 250q0 6 15 9t24 3q20 0 37 -9q16 -9 15 -19z" />
<glyph unicode="[" horiz-adv-x="948" d="M932 -215q1 -5 3 -22q1 -14 -7 -27q-6 -10 -18 -24q-12 -13 -17 -9q-49 21 -126 33t-159 12q-121 0 -212 -23q-95 -24 -130 -24q-13 0 -24 11q-13 13 -13 26q0 65 9 362q8 264 8 387q0 25 -52 35q-67 13 -112 19q-6 1 -12 18q-7 19 -7 23q0 3 7 22q6 18 12 19 q63 8 113 18q51 11 51 35q0 117 -8 384q-9 301 -9 365q0 14 13 27q12 12 24 12q32 0 133 -24q105 -25 209 -25q82 0 160 12q79 12 125 33q6 5 18 -10q13 -16 17 -23q5 -11 7 -27q2 -15 -3 -20q-40 -68 -108 -107q-67 -38 -165 -38q-18 0 -36 3q-22 4 -33 7q-4 -141 -6 -311 q-2 -226 -2 -352q0 -199 2 -371q2 -130 6 -293q12 3 31 7q17 3 38 3q95 0 165 -39q71 -39 108 -104z" />
<glyph unicode="\" horiz-adv-x="645" d="M612 -23q2 -5 -2.5 -9t-16.5 -6q-27 -5 -48 -5q-22 0 -49 5q-25 5 -31 15l-440 1483q-2 6 4 9l14 8q12 2 25 3q10 1 24 1q17 0 49 -5q29 -5 31 -16z" />
<glyph unicode="]" horiz-adv-x="931" d="M23 1378q-5 7 -4 21q1 11 8 28q7 14 17 24q11 11 17 9q54 -21 122 -34q59 -11 163 -11q117 0 212 24q91 23 130 23q14 0 25 -11q12 -12 12 -26q0 -98 -8 -362t-8 -387q0 -25 59 -37q56 -11 104 -16q7 0 13 -18t6 -23q0 -6 -6 -24q-6 -17 -13 -17q-45 -5 -107 -20 q-56 -13 -56 -34q0 -117 8 -384t8 -365q0 -15 -12 -27t-25 -12q-28 0 -133 25q-101 24 -209 24q-105 0 -162 -10q-58 -10 -123 -35q-6 -2 -16 8q-11 11 -18 25q-9 18 -8 27q1 7 4 20q33 64 108 105q73 40 164 40q22 0 37 -3q25 -5 33 -7q5 156 6 309q2 204 2 355 q0 144 -2 366q-1 166 -6 297q-8 -2 -32 -7q-15 -3 -38 -3q-92 0 -163 40q-72 40 -109 103z" />
<glyph unicode="^" horiz-adv-x="921" d="M877 1051q0 -10 -8 -23q-7 -12 -15 -18q-7 -6 -16 -11q-7 -4 -17 -4q-7 0 -15 3q-5 2 -13 8l-332 145l-332 -145q-4 -1 -14 -7q-7 -4 -15 -4t-16 3q-3 1 -18 12q-12 8 -17 19q-6 12 -6 22q0 4 3 10l5 10l365 340q7 9 19 14q16 7 26 7q14 0 26 -7q11 -6 17 -14l364 -340 q2 -2 5 -9q4 -10 4 -11z" />
<glyph unicode="_" horiz-adv-x="1024" d="M1049 -72q0 -19 -7 -47q-6 -24 -18 -24h-1022q-12 0 -19 24q-8 26 -8 47q0 22 8 48q7 24 17 24h1024q10 0 17 -24q8 -26 8 -48z" />
<glyph unicode="`" horiz-adv-x="819" d="M616 1151q0 -12 -4 -23q-4 -12 -10 -16q-8 -10 -20 -16q-18 -9 -21 -9t-7 2l-3 1l-385 184q-26 13 -35 33q-10 21 -10 47q0 27 10 55q7 21 25 49q17 24 55 45q39 21 68 21q18 0 33 -6q14 -6 26 -19l272 -330q4 -4 5 -8t1 -10z" />
<glyph unicode="a" horiz-adv-x="1093" d="M1120 88q-2 -8 -2 -10q0 -4 -6 -8q-40 -46 -121 -74q-84 -29 -168 -29q-83 0 -136 38q-52 37 -69 101q-45 -69 -119 -105q-71 -34 -180 -34q-115 0 -197 53q-81 52 -81 162q0 121 133 197q132 76 447 145l6 201q0 62 -19 84q-17 20 -61 20t-79 -16t-40 -68 q-11 -128 -53 -176q-43 -49 -127 -49q-75 0 -116 44q-40 43 -40 106q0 102 167 188t374 86q188 0 257 -94q68 -93 62 -256l-10 -356q-4 -72 21 -94q24 -21 47 -21q18 0 34 6q18 7 29 16q8 6 28 -15q19 -20 19 -42zM616 449q-122 -29 -174 -78q-53 -50 -53 -142q0 -51 28 -82 q27 -30 77 -30q40 0 74 25t42 98z" />
<glyph unicode="b" horiz-adv-x="1249" d="M1188 467q0 -187 -142 -348q-142 -162 -415 -162q-129 0 -188 35t-136 35q-37 0 -63 -16q-24 -15 -39 -48q-4 -5 -20 -10q-13 -4 -23 -4q-9 0 -26 5q-15 4 -15 11q0 8 2 34t3 44q3 51 3 129v924q0 78 -31 106t-106 35q-6 0 -11 15q-6 20 -6 26q0 5 6 27q4 16 11 16 q91 21 220 68q126 46 189 77q7 6 21 11q15 6 24 6q26 0 37 -8t11 -19q-10 -124 -12 -180q-5 -113 -5 -166v-287q39 53 106 82q71 31 154 31q184 0 318 -116q133 -115 133 -353zM817 459q0 175 -41 257q-40 81 -145 81q-73 0 -114 -47q-40 -46 -40 -103v-454q0 -59 31 -98 q30 -38 98 -38q124 0 167 126q44 127 44 276z" />
<glyph unicode="c" horiz-adv-x="1067" d="M1020 692q0 -54 -35 -101q-34 -46 -102 -46q-79 0 -110 45t-48 102t-37 100q-22 48 -80 48q-80 0 -126 -75q-46 -74 -46 -298q0 -156 45 -252t191 -96q78 0 159 32t121 72q2 5 14 -3q10 -6 17 -15q9 -9 17 -22t8 -19q0 -5 -1 -8l-3 -9q-55 -78 -166 -133 q-110 -55 -250 -55q-208 0 -365 133t-157 359q0 225 156 355q155 130 386 130q151 0 282 -71q130 -70 130 -173z" />
<glyph unicode="d" horiz-adv-x="1255" d="M1253 104q0 -9 -5 -26q-4 -15 -11 -15q-60 -6 -180 -40q-118 -34 -183 -62q-2 0 -8.5 -2.5t-11.5 -4.5q-17 -5 -29 -5q-16 0 -25 9t-9 17l-7 125q-38 -65 -106 -104t-162 -39q-208 0 -330 137q-120 135 -120 340q0 222 133 362t366 140q76 0 127 -24q54 -25 84 -50v234 q0 78 -31 106t-108 35q-6 0 -11 15q-5 17 -5 26t5 27q4 16 11 16q93 21 223 69q134 50 189 76q9 6 20 11q15 6 25 6q22 0 35 -8q12 -7 12 -19q-10 -124 -12 -180q-5 -113 -5 -166v-834q0 -72 23 -97t90 -32q7 0 11 -16q5 -18 5 -27zM776 231v459q0 56 -42 93q-43 38 -122 38 q-72 0 -124 -67t-52 -320q0 -186 48 -261t118 -75q53 0 98 33q47 34 76 100z" />
<glyph unicode="e" horiz-adv-x="1103" d="M1049 539q0 -15 -11 -23t-28 -8h-566q-2 -20 -2 -38v-44q0 -172 57 -240q57 -67 163 -67q75 0 165 37q95 39 134 92q1 4 12 -3q5 -3 18 -14q13 -13 18 -21q7 -11 7 -22q0 -5 -1 -8q-1 -5 -5 -8q-51 -74 -152 -143q-102 -70 -268 -70q-219 0 -369 141q-149 140 -149 334 q0 218 142 360t376 142q212 0 336 -115q123 -114 123 -282zM709 692q0 60 -28 105q-27 43 -83 43q-67 0 -100 -66q-32 -65 -43 -172l168 4q42 1 65 18q21 15 21 68z" />
<glyph unicode="f" horiz-adv-x="819" d="M1065 1264q0 -60 -39 -106t-115 -46q-55 0 -88 33q-31 31 -55 74q-15 32 -42 72q-24 36 -52 36q-50 0 -84 -30q-35 -30 -35 -222v-190h229q13 0 19 -25q6 -24 6 -47q0 -22 -7 -47q-7 -27 -18 -25l-231 9v-498q0 -98 33 -131q34 -34 121 -41q7 0 11 -18q5 -20 5 -27 q0 -13 -5 -30q-4 -15 -11 -15q-53 0 -160 5t-168 5q-63 0 -161 -5t-152 -5q-8 0 -12 16q-5 18 -5 29q0 8 5 26q5 17 12 19q91 10 115 40t24 132v473q0 10 -6 19q-7 10 -19 10h-112q-9 0 -15 17q-6 18 -6 26t6 26q6 19 13 21q35 8 86 24q53 17 53 33q0 245 178 411 q179 167 371 167q152 0 232 -63q79 -63 79 -152z" />
<glyph unicode="g" horiz-adv-x="1153" d="M1153 768q0 -25 -7 -47q-8 -25 -20 -25l-151 4q12 -35 13 -37q5 -20 5 -51q0 -154 -116 -248q-119 -96 -338 -96h-25h-18h-3h-1h-2h-3q-60 -5 -97 -31q-38 -27 -38 -51q0 -28 19 -42q17 -13 94 -13l301 -4q165 0 244 -71q77 -70 77 -175q0 -208 -200 -330 q-199 -122 -453 -122q-187 0 -296 78q-111 79 -111 184q0 85 50 132t167 71q-88 34 -131 110t-43 121q0 49 77 105t175 73q-110 51 -163 112q-55 64 -55 167q0 138 114 246t331 108q91 0 181 -23q91 -23 151 -79l245 6q13 2 20 -25q7 -25 7 -47zM662 614q0 109 -20 167 q-20 57 -93 57q-76 0 -94 -79q-19 -84 -19 -177q0 -109 20 -163q19 -52 93 -52q71 0 92 68q21 69 21 179zM893 -238q0 38 -30 53q-31 16 -113 17l-248 4q-28 0 -81 5q-40 4 -71 14q-38 -7 -61 -32t-23 -79q0 -77 70 -123q69 -45 196 -45q172 0 267 51q94 51 94 135z" />
<glyph unicode="h" horiz-adv-x="1263" d="M1298 35q0 -11 -5 -29q-4 -16 -11 -16q-54 0 -146 5t-155 5q-62 0 -137 -5t-129 -5q-8 0 -12 16q-5 18 -5 29q0 8 5 26q5 17 12 19q40 6 61 40t21 132v323q0 102 -25 147q-24 44 -94 44q-59 0 -96 -40q-36 -39 -74 -128v-346q0 -91 19 -129t61 -43q6 0 11 -18 q5 -20 5 -27q0 -13 -5 -30q-5 -15 -11 -15q-56 0 -129 5t-137 5q-63 0 -155 -5t-144 -5q-7 0 -12 15q-5 17 -5 30q0 8 5 26q5 17 12 19q89 10 113 40t24 132v846q0 79 -31 105q-31 27 -106 34q-7 2 -12 17q-5 17 -5 26t5 27q4 16 12 16q93 20 222 68q120 44 187 77 q7 6 21 11q15 6 24 6q26 0 37 -8q10 -7 10 -19q-7 -93 -11 -180q-5 -113 -5 -166v-364q45 96 133 142t176 46q154 0 240 -95t86 -216v-373q0 -98 24 -131t115 -41q6 0 11 -18q5 -20 5 -27z" />
<glyph unicode="i" horiz-adv-x="673" d="M537 1278q0 -77 -56 -133q-55 -55 -131 -55t-131 55t-55 133q0 76 55 131t131 55t131 -55q56 -56 56 -131zM690 35q0 -11 -5 -29q-4 -16 -11 -16q-54 0 -159 5t-167 5q-60 0 -153 -5t-146 -5q-7 0 -11 16q-5 18 -5 29q0 8 5 26q5 17 11 19q76 7 108 41q31 32 31 131v307 q0 83 -31 107q-32 25 -108 32q-6 2 -11 18q-5 17 -5 25q0 9 5 27q4 16 11 16q100 21 221 67q130 49 191 79q6 4 20 10q15 6 25 6q23 0 36 -8q11 -7 9 -18q-2 -26 -5 -85.5t-5 -89.5q-6 -102 -6 -172v-321q0 -98 32 -131q33 -35 107 -41q6 0 11 -18q5 -20 5 -27z" />
<glyph unicode="j" horiz-adv-x="634" d="M526 1278q0 -78 -55 -133t-131 -55t-131 55t-55 133q0 76 55 131t131 55t131 -55t55 -131zM541 918q0 -2 -4.5 -68t-6.5 -107q-6 -102 -6 -172v-614q0 -170 -136 -302q-135 -131 -368 -226q-8 -2 -27 25q-20 28 -20 44q0 3 2 9t7 8q109 64 152 139q44 77 44 192v711 q0 80 -32 107q-31 27 -107 34q-6 0 -11 16q-5 17 -5 25q0 9 5 27q4 16 11 16q95 22 216 66q125 46 196 80q6 4 20 10q15 6 25 6q22 0 35 -8q12 -7 10 -18z" />
<glyph unicode="k" d="M1311 35q0 -13 -5 -30q-4 -15 -12 -15q-64 0 -125 6t-133 6t-166 -6t-155 -6q-8 0 -12 16q-5 18 -5 29q0 8 5 26q5 17 12 19q31 5 44 12t13 25t-10 41t-45 61l-150 166q-11 11 -23 15q-18 6 -36 6v-154q0 -92 20 -129q21 -38 62 -43q6 0 11 -18q5 -20 5 -27q0 -11 -5 -29 q-4 -16 -11 -16q-63 0 -126 6t-134 6q-70 0 -158 -6q-89 -6 -149 -6q-7 0 -12 15q-5 17 -5 30q0 8 5 26q5 17 12 19q74 7 106 39q31 31 31 133v846q0 79 -32 106q-32 28 -105 35q-7 2 -12 17q-5 17 -5 26t5 26q5 15 12 15q88 20 216 67q121 44 195 80q7 6 21 11q15 6 24 6 q24 0 36 -9q11 -8 9 -18q-1 -21 -2.5 -48.5t-4 -64.5t-3.5 -63q-6 -105 -6 -170v-618q16 0 29 4t28 16l187 154q40 34 57 57q16 22 16 39q0 20 -19 32q-18 11 -79 17q-7 0 -11 16q-5 18 -5 29t5 29q4 16 11 16q65 0 122 -6t116 -6q47 0 102 6t117 6q7 0 11 -16q5 -18 5 -29 q0 -7 -5 -27q-5 -18 -11 -18q-49 -4 -123 -35q-70 -29 -172 -110l-98 -82l305 -369q55 -59 106 -98q48 -36 92 -41q8 0 12 -18q5 -20 5 -27z" />
<glyph unicode="l" horiz-adv-x="645" d="M659 35q0 -11 -5 -29q-4 -16 -11 -16q-65 0 -159 6t-167 6q-69 0 -153 -6t-146 -6q-7 0 -11 16q-5 18 -5 29q0 8 5 26q5 17 11 19q76 7 108 41t32 131v846q0 81 -31 107q-31 27 -109 34q-6 2 -11 17q-5 17 -5 26t5 26q4 15 11 15q88 20 216 67q125 46 196 80q7 6 21 11 q15 6 24 6q24 0 36 -9q11 -8 9 -18q-1 -21 -2.5 -48.5t-4 -64.5t-3.5 -63q-6 -105 -6 -170v-862q0 -96 33 -131q34 -35 106 -41q7 0 11 -18q5 -20 5 -27z" />
<glyph unicode="m" horiz-adv-x="1951" d="M1987 35q0 -7 -6 -29q-4 -16 -11 -16q-54 0 -146 5t-155 5q-64 0 -142 -5t-132 -5q-7 0 -12 15q-5 17 -5 30q0 8 5 26q5 17 12 19q57 7 73 40q15 32 15 132v323q0 97 -25 145q-24 46 -92 46q-74 0 -109 -35q-34 -33 -77 -110v-369q0 -96 15 -131t73 -41q6 0 11 -18 q5 -20 5 -27q0 -13 -5 -30q-4 -15 -11 -15q-58 0 -113 5t-121 5q-63 0 -151 -5t-142 -5q-7 0 -11 16q-5 18 -5 29q0 8 5 26q5 17 11 19q59 7 75 40q15 32 15 132v323q0 100 -32 145q-33 46 -103 46q-63 0 -99 -43q-38 -46 -71 -125v-346q0 -95 17 -131q17 -35 73 -41 q8 0 12 -18q5 -20 5 -27q0 -11 -5 -29q-4 -16 -12 -16q-56 0 -134 5t-142 5q-61 0 -154 -5t-145 -5q-7 0 -11 15q-5 17 -5 30q0 8 5 26q5 17 11 19q90 11 114 40q23 29 23 132v323q0 84 -19 107q-21 26 -93 33q-7 2 -12 17q-5 17 -5 26q0 8 5 26q5 17 12 17q71 17 186 61 q102 39 184 76q5 3 21 10q15 6 24 6q23 0 36 -8q11 -7 11 -18l-10 -197q56 111 144 159q85 46 172 46q110 0 204 -55q95 -56 125 -152q62 108 152 158q89 49 194 49q154 0 238 -95t84 -216v-373q0 -100 24 -132q25 -32 115 -40q6 0 11 -18q6 -24 6 -27z" />
<glyph unicode="n" d="M1317 33q0 -11 -5 -29q-4 -16 -12 -16q-64 0 -146 6t-155 6q-70 0 -137 -6q-68 -6 -129 -6q-7 0 -11 16q-5 18 -5 29q0 10 5 27q5 16 11 18q41 6 62 40q20 33 20 132v325q0 104 -23 146q-24 43 -96 43q-59 0 -96 -40q-36 -39 -74 -128v-346q0 -89 20 -129q19 -38 60 -43 q6 0 11 -16q6 -20 6 -29q0 -10 -6 -30q-4 -15 -11 -15q-63 0 -129 6t-137 6q-72 0 -155 -6t-144 -6q-7 0 -11 15q-5 17 -5 30q0 11 5 28q5 15 11 17q90 12 114 42q23 29 23 130v321q0 86 -18 110q-18 25 -94 32q-8 0 -12 16q-5 18 -5 27q0 8 5 25q5 16 12 16q75 19 191 64 q124 47 179 75q5 3 21 10q15 6 24 6q24 0 36 -9q11 -8 9 -17l-8 -197q41 101 130 154t188 53q154 0 239 -96q86 -97 86 -215v-375q0 -97 25 -130q24 -32 114 -42q8 0 12 -18q5 -20 5 -27z" />
<glyph unicode="o" horiz-adv-x="1218" d="M1153 440q0 -195 -138 -339t-405 -144q-264 0 -404 143t-140 340q0 196 139 345q140 151 405 151q261 0 402 -149t141 -347zM780 442q0 200 -32 296q-33 100 -138 100q-104 0 -138 -102q-34 -101 -34 -294q0 -199 34 -292q35 -95 138 -95q101 0 136 96q34 93 34 291z" />
<glyph unicode="p" horiz-adv-x="1280" d="M1214 475q0 -210 -138 -363t-380 -153q-62 0 -109 12q-45 12 -83 33v-283q0 -98 33 -131q34 -34 122 -41q8 0 12 -17q5 -20 5 -28q0 -10 -5 -28q-5 -17 -12 -17q-54 0 -161 5q-128 6 -168 6q-43 0 -161 -6q-98 -5 -151 -5q-6 0 -11 16q-5 17 -5 29q0 9 5 27q4 16 11 18 q90 11 114 40q24 30 24 132v850q0 79 -20 107t-93 35q-6 2 -11 17q-5 17 -5 26q0 8 5 25q5 16 11 16q75 19 191 64q128 49 180 75q6 4 20 10q15 6 25 6q24 0 36 -9q11 -8 9 -17l-8 -160q34 66 109 118q74 52 196 52q192 0 303 -133q110 -132 110 -328zM817 172q18 53 22 121 q5 80 5 166q0 165 -47 239t-123 74q-64 0 -95 -24q-31 -23 -75 -103v-434q0 -73 37 -114q37 -42 114 -42q67 0 107 31q38 29 55 86z" />
<glyph unicode="q" horiz-adv-x="1232" d="M1290 -496q0 -10 -5 -28q-5 -17 -11 -17q-64 0 -153 6q-103 7 -160 7q-53 0 -168 -7q-99 -6 -160 -6q-6 0 -11 16q-6 20 -6 29q0 10 6 30q4 15 11 15q93 12 124 40q29 26 29 135v346q-40 -57 -104 -84q-63 -27 -154 -27q-207 0 -329 137q-121 136 -121 340q0 219 163 360 q162 140 394 140q126 0 185 -34t138 -34q30 0 62 19t39 45q1 6 18 9q16 3 25 3q12 0 27 -5q14 -5 14 -11q0 -9 -5 -85q-3 -50 -3 -122v-997q0 -104 24 -134t115 -41q7 0 11 -16q5 -18 5 -29zM786 201v489q0 54 -35 93q-36 40 -110 40q-88 0 -140 -73t-52 -314 q0 -178 46 -257t126 -79q59 0 97 23t68 78z" />
<glyph unicode="r" horiz-adv-x="1001" d="M1006 770q0 -72 -42 -118t-110 -46q-42 0 -72 19q-27 17 -47 37q-12 14 -40 38q-22 19 -48 19q-43 0 -68 -27q-28 -30 -55 -78v-360q0 -95 33 -130q32 -33 123 -44q6 0 11 -17q5 -18 5 -28q0 -8 -5 -28q-4 -17 -11 -17q-64 0 -161 6t-169 6q-70 0 -160 -6t-151 -6 q-7 0 -11 17q-5 20 -5 28q0 10 5 28q5 17 11 17q90 12 115 43q24 30 24 131v321q0 83 -19 108q-20 27 -96 34q-7 0 -11 15q-5 17 -5 26q0 8 5 26q5 17 11 17q74 18 187 61q102 39 184 76q5 3 21 10q15 6 24 6q23 0 36 -8q11 -7 11 -18l-10 -197q45 86 127 148q78 59 150 59 q100 0 156 -46q57 -46 57 -122z" />
<glyph unicode="s" horiz-adv-x="972" d="M653 557q89 -39 163 -97q77 -60 77 -169q0 -146 -116 -238t-300 -92q-130 0 -188 29q-56 28 -164 28q-2 18 -7.5 68t-8.5 79q-9 84 -19 136q-1 3 2.5 6t12.5 5q20 5 28 5q13 0 30 -5q15 -5 17 -11q44 -110 121 -175q79 -67 158 -67q62 0 92 33q31 34 31 90q0 68 -78 106 q-30 14 -85 39.5t-73 34.5q-85 37 -163 103q-74 62 -74 174q0 127 128 213t279 86q96 0 169 -25q71 -24 140 -24q0 -54 4 -123q5 -78 9 -129q0 -7 -18 -11q-20 -5 -27 -5q-16 0 -29 4q-14 4 -16 12q-22 93 -83 148t-126 55q-61 0 -95 -25q-32 -23 -32 -78q0 -69 82 -108 q95 -45 159 -72z" />
<glyph unicode="t" horiz-adv-x="874" d="M852 823q0 -24 -7 -48q-7 -25 -20 -25l-305 8v-531q0 -58 24 -85t81 -27q46 0 85 23q38 22 68 59q8 13 21 8q11 -4 22 -15q12 -16 16 -25q7 -14 7 -26v-8q0 -5 -4 -6q-46 -58 -131 -106q-89 -50 -207 -50q-168 0 -254 89t-84 290l4 385q0 13 -6 21t-19 8h-127 q-8 0 -14 18t-6 27q0 8 6 26q5 16 12 21q120 65 231 144q115 82 195 165q6 8 20 12q17 5 25 5q13 0 30 -5q15 -5 15 -12l-8 -268h303q13 0 20 -27q7 -25 7 -45z" />
<glyph unicode="u" d="M1280 82q0 -14 -5 -27q-5 -12 -11 -12q-59 -6 -187 -29q-124 -23 -188 -43q-4 0 -21 -5t-28 -5q-17 0 -26 9t-9 16l-10 143q-46 -84 -125 -126q-78 -42 -189 -42q-159 0 -245 92t-86 260v330q0 92 -32 122q-31 30 -114 28q-7 0 -11 14q-5 17 -5 29t5 30q5 17 11 17 q79 0 219 14q150 15 228 33q18 6 32 -8q15 -15 15 -21v-629q0 -80 33 -119q34 -40 104 -40q49 0 88 39t63 100v391q0 89 -31 120q-32 32 -116 30q-7 0 -11 15q-5 17 -5 28q0 12 5 30q5 17 11 17q67 0 219 12q144 11 229 31q19 6 32 -8q14 -16 14 -21v-625q0 -89 23 -113 q25 -26 108 -32q7 0 11 -17q5 -20 5 -28z" />
<glyph unicode="v" horiz-adv-x="1105" d="M1165 862q0 -10 -5 -28q-5 -17 -11 -17q-70 -8 -114 -44q-45 -37 -77 -97l-344 -701q-6 -8 -19 -12q-12 -4 -42 -4q-31 0 -44 5q-9 4 -15 11l-351 701q-40 78 -63 101q-28 28 -119 40q-6 0 -11 16q-5 17 -5 29q0 13 5 30q4 15 11 15q64 0 148 -6t155 -6q72 0 162 6t152 6 q7 0 11 -16q5 -18 5 -29q0 -10 -5 -28q-5 -17 -11 -17q-58 -6 -80 -21q-23 -15 -23 -42q0 -24 7 -41q2 -6 8 -18.5t8 -18.5l164 -346l172 346l12 31q4 9 4 28q0 32 -23 53q-23 22 -84 29q-6 0 -11 17q-5 18 -5 28q0 11 5 29q4 16 11 16q64 0 112 -6t108 -6q35 0 84 6t102 6 q7 0 11 -16q5 -18 5 -29z" />
<glyph unicode="w" horiz-adv-x="1708" d="M1767 862q0 -10 -5 -28q-5 -17 -11 -17q-70 -8 -114 -44q-43 -36 -76 -97l-344 -701q-4 -7 -20 -12q-13 -4 -40 -4q-33 0 -46 5q-9 4 -15 11l-230 531l-284 -531q-6 -7 -20 -12q-12 -4 -42 -4q-32 0 -45 5q-11 4 -16 11l-318 701q-30 72 -72 102q-44 32 -108 39 q-6 0 -11 16q-5 17 -5 29q0 13 5 30q4 15 11 15q64 0 148 -6t155 -6q73 0 145 6t134 6q7 0 11 -15q5 -17 5 -30q0 -12 -5 -29q-5 -16 -11 -16q-36 -5 -53 -16t-17 -41q0 -18 7 -39q8 -23 18 -45l151 -336l164 293l-18 43q-39 88 -69 112q-31 25 -56 29q-7 0 -12 17 q-5 18 -5 28q0 11 5 29q4 16 12 16q62 0 118 -6q55 -6 127 -6t162 6t152 6q7 0 11 -16q5 -18 5 -29q0 -10 -5 -28q-5 -17 -11 -17q-54 -6 -75 -21t-21 -48q0 -17 4 -30q8 -26 14 -42l129 -336l156 336q9 26 12 35q4 13 4 28q0 32 -20 51q-21 20 -78 27q-7 0 -12 17 q-5 18 -5 28q0 11 5 29q4 16 12 16q64 0 107 -6t104 -6q35 0 84 6t102 6q7 0 11 -16q5 -18 5 -29z" />
<glyph unicode="x" horiz-adv-x="1183" d="M1194 35q0 -13 -5 -30q-5 -15 -11 -15q-55 0 -153 5t-161 5q-60 0 -170 -5t-159 -5q-7 0 -12 15q-5 17 -5 30q0 8 5 26q5 17 12 19q38 5 50 11q15 7 15 22q0 16 -11 37q-15 29 -40 69l-66 107l-77 -111q-27 -38 -37 -56q-11 -20 -11 -36q0 -19 15 -29q13 -9 53 -14 q6 0 10 -18q4 -16 4 -27q0 -13 -5 -30q-5 -15 -11 -15q-43 0 -103 5t-104 5q-57 0 -112 -5t-93 -5q-7 0 -11 16q-5 18 -5 29q0 9 6 26q6 18 12 19q101 12 146 32q42 19 114 107l152 187l-193 270q-73 100 -109 115q-31 13 -128 24q-7 2 -11 16q-5 17 -5 29q0 13 5 30 q5 15 11 15q64 0 154 -6t161 -6t166 6t156 6q7 0 11 -16q5 -18 5 -29q0 -7 -5 -27q-4 -18 -11 -18q-32 -1 -48 -11t-16 -24t14 -39q13 -23 44 -65l73 -105l74 107q8 13 20.5 31.5t16.5 24.5q12 20 12 42q0 18 -15 26q-14 7 -54 13q-7 2 -12 18q-5 17 -5 27q0 11 5 29 q4 16 12 16q48 0 111 -6t112 -6q61 0 103 6t85 6q7 0 12 -15q5 -17 5 -30q0 -7 -5 -27q-5 -18 -12 -18q-92 -8 -139 -32q-48 -25 -119 -109l-149 -187l182 -268q56 -81 97 -104q43 -25 141 -35q6 0 11 -18q5 -20 5 -27z" />
<glyph unicode="y" horiz-adv-x="1116" d="M1145 860q0 -13 -5 -30q-4 -15 -12 -15q-69 -6 -114 -42q-46 -37 -74 -99l-385 -828q-109 -230 -180 -324q-69 -91 -185 -91q-79 0 -124 39q-46 40 -46 104t46 108t112 44q53 0 85 -20q31 -19 59 -19q24 0 56 38q30 36 91 177l29 65l-357 707q-34 70 -66 99 q-35 31 -114 42q-7 2 -11 16q-5 17 -5 29q0 13 5 30q4 15 11 15q64 0 148 -6t155 -6q72 0 161 6t153 6q7 0 11 -16q5 -18 5 -29q0 -7 -5 -27q-5 -18 -11 -18q-52 -5 -75 -18q-28 -16 -28 -45q0 -24 7 -41q2 -6 8 -18.5t8 -18.5l164 -346l153 346q11 30 11 31q3 11 3 28 q0 32 -22 53q-23 22 -82 29q-7 2 -11 16q-5 17 -5 29q0 13 5 30q4 15 11 15q64 0 112 -6t107 -6q34 0 84 6t100 6q8 0 12 -15q5 -17 5 -30z" />
<glyph unicode="z" horiz-adv-x="1024" d="M987 313q-26 -68 -49 -172q-19 -87 -37 -151q-43 9 -144 10q-144 2 -278 2q-136 0 -276 -2q-101 -1 -142 -8q-9 -2 -16 12q-8 16 -8 29q0 4 2 12q1 2 2.5 5.5t1.5 4.5l518 740h-182q-85 0 -139 -54t-84 -145q-4 -7 -20 -12q-13 -4 -30 -4q-8 0 -25 5q-15 5 -15 11 q19 51 46 156q28 109 38 166q43 -9 114 -12q79 -3 254 -3q77 0 267 2q138 1 169 10q9 2 16 -10q7 -11 7 -28q0 -11 -1 -15q-2 -7 -5 -10l-514 -737h233q64 0 125 64q61 63 82 134q0 9 18 13q16 4 29 4t30 -5q7 -2 10.5 -5.5t2.5 -6.5z" />
<glyph unicode="{" horiz-adv-x="905" d="M819 -254q0 -11 -5 -29q-4 -16 -11 -16q-273 0 -391 102q-119 102 -113 258l16 324q5 70 -33 109t-147 47q-6 0 -12 17q-6 18 -6 24q0 5 6 23t12 18q103 8 145 48q41 40 35 107l-16 324q-7 159 108 261q114 101 396 101q7 0 11 -17q5 -20 5 -28q0 -10 -5 -28 q-5 -17 -11 -17q-99 -15 -127 -52q-28 -38 -27 -132l17 -381q5 -78 -56 -151q-60 -72 -215 -76q150 -5 213 -79q64 -76 58 -149l-17 -381q-4 -87 28 -129q32 -41 126 -53q7 0 11 -17q5 -20 5 -28z" />
<glyph unicode="|" horiz-adv-x="296" d="M242 -4q0 -12 -27 -16q-30 -5 -47 -5q-20 0 -48 5q-26 5 -26 16v1425q0 12 26 17q23 4 48 4q17 0 47 -5q27 -5 27 -16v-1425z" />
<glyph unicode="}" horiz-adv-x="905" d="M123 1419q0 11 5 29q4 16 11 16q270 0 391 -103t113 -257l-16 -324q-6 -63 39 -106q44 -43 141 -49q6 0 12 -18t6 -23q0 -6 -6 -24q-6 -17 -12 -17q-102 -6 -143 -47q-42 -42 -37 -109l16 -324q6 -159 -108 -261q-113 -101 -396 -101q-7 0 -11 17q-5 20 -5 28q0 11 5 29 q4 16 11 16q96 15 126 54q32 42 28 130l-17 381q-6 77 55 150q60 72 216 78q-146 6 -210 74q-65 70 -61 153l17 381q1 94 -27 131q-27 36 -127 51q-6 2 -11 19q-5 18 -5 26z" />
<glyph unicode="~" horiz-adv-x="921" d="M868 616q-28 -183 -92 -245q-63 -61 -164 -49l-276 26q-66 6 -111 -24q-44 -29 -78 -91q-1 -5 -6 -6q-6 -2 -12 -2q-21 0 -40 15t-13 49q29 152 100 234q73 83 211 67l238 -27q73 -6 111 23q39 29 61 86q0 5 7 6q10 2 13 2q17 0 37 -16t14 -48z" />
<glyph unicode="&#xa1;" horiz-adv-x="569" d="M104 -358l158 798q0 15 18 21t31 6q15 0 33 -6t18 -21l156 -798q15 -64 -33 -129q-47 -64 -174 -64q-113 0 -166 63t-41 130zM143 768q0 67 51 118q50 50 117 50q68 0 118 -50t50 -118q0 -72 -48 -120t-120 -48q-67 0 -117 50q-51 51 -51 118z" />
<glyph unicode="&#xa2;" horiz-adv-x="1067" d="M1020 690q0 -54 -35 -100q-35 -45 -102 -45q-66 0 -96 29q-31 30 -48 71q-10 25 -25 83q-13 49 -32 75l-11 -109q-14 -130 -28 -231q-20 -183 -28 -245l-11 -95q1 0 12 -1.5t18 -2.5q24 -2 38 -2q80 0 159 33q82 34 121 73q1 4 14 -4q8 -5 17 -14q7 -7 17 -23 q8 -13 8 -18q0 -6 -1 -9q-3 -7 -3 -8q-55 -78 -166 -133q-110 -55 -250 -55h-2l-1 -18q-2 -27 -5 -41q-1 -8 -3 -21.5t-2 -18.5l-2 -18q0 -12 -14 -15q-15 -3 -27 -3q-9 0 -26 5q-14 4 -14 17l12 119q-179 24 -309 155q-129 131 -129 331q0 221 156 353t386 132h6l13 111 q0 12 15 15t26 3q10 0 25 -6q16 -6 16 -17l-13 -112q133 -18 229 -85q95 -66 95 -155zM565 500l24 216l13 122q-76 0 -121 -76t-45 -295q0 -97 19 -184q18 -82 71 -123l13 108q23 212 26 232z" />
<glyph unicode="&#xa3;" horiz-adv-x="1296" d="M1227 299q-34 -144 -137 -244q-101 -98 -263 -98q-97 0 -173 29q-77 29 -124 65q-39 -39 -111 -66q-75 -28 -134 -28q-104 0 -165 47t-61 119q0 94 67 156q65 61 161 61q52 0 91 -10q40 -10 81 -27q6 23 9 42q3 20 3 44q0 43 -13 86q-13 44 -38 86l-254 -4q-13 0 -19 21 t-6 38q0 19 6 40q6 22 19 22l201 -4q-50 52 -74 105q-25 56 -25 120q0 161 144 276q143 115 368 115q186 0 284 -99q97 -98 97 -194q0 -90 -44 -132q-43 -42 -103 -42q-66 0 -103 34t-37 99q0 39 26 62t26 74q0 42 -30 71q-31 29 -87 29q-86 0 -131 -58t-45 -159 q0 -73 45 -155q44 -81 61 -148l252 6q11 0 18 -21q7 -20 7 -41q0 -18 -7 -38q-7 -21 -18 -21l-229 4q2 -8 4.5 -22t3.5 -21q4 -20 4 -51q0 -42 -21 -111q-21 -68 -61 -116q32 -8 137 -32q48 -11 107 -11q77 0 123 34t90 107q1 6 19 3q20 -3 26 -7q11 -4 23 -17 q12 -12 10 -18zM412 143q-31 25 -68 38q-39 14 -78 14q-48 0 -72 -21t-24 -49q0 -35 20 -52q21 -18 80 -18q52 0 86 23q35 24 56 65z" />
<glyph unicode="&#xa4;" d="M1151 29q0 -11 -9 -29q-10 -20 -24 -31q-16 -14 -31 -22q-16 -8 -28 -8q-1 0 -7 2l-5 2l-111 112q-62 -47 -136 -72q-76 -26 -159 -26q-76 0 -157 26q-79 25 -136 72l-112 -112l-5 -2q-6 -2 -8 -2q-10 0 -28 8q-17 7 -31 22q-17 17 -23 32q-8 19 -8 28q0 2 2 8l2 4 l111 111q-43 57 -69 134q-25 75 -25 160q0 86 25 161q26 77 69 134l-111 111l-2 4q-2 6 -2 8q0 13 8 29q6 13 23 31q11 14 31 22q19 8 28 8q5 0 8 -1q5 -2 5 -3l112 -110q48 41 135 69q84 27 158 27q83 0 165 -28q78 -26 130 -68l111 110q0 1 5 3q3 1 7 1q14 0 30 -8 q14 -7 29 -22q16 -16 24 -31q9 -17 9 -29q0 -2 -2 -8l-2 -4l-113 -111q47 -58 70 -136q24 -81 24 -159q0 -83 -25 -161q-26 -81 -69 -133l113 -111l2 -4q2 -6 2 -8zM985 446q0 171 -103 268t-241 97q-140 0 -242 -96t-102 -269q0 -170 103 -267t241 -97q140 0 242 96 t102 268z" />
<glyph unicode="&#xa5;" horiz-adv-x="1415" d="M1427 1235q0 -11 -7 -28t-13 -17q-64 -5 -122 -54q-57 -48 -99 -112l-29 -50q-36 -63 -63 -106q-47 -77 -61 -100l-32 -53h261q12 0 18 -18t6 -29q0 -14 -6 -32t-18 -18h-316l-31 -51v-88h347q12 0 18 -17q6 -18 6 -30t-6 -30q-6 -17 -18 -17h-347v-139q0 -86 26 -121 t136 -47q5 0 10 -18q5 -20 5 -27q0 -9 -5 -27q-4 -16 -10 -16q-83 0 -178 5t-178 5q-79 0 -184 -5t-185 -5q-7 0 -11 16q-5 18 -5 27q0 10 5 27q5 16 11 18q112 15 144 50t32 118v139h-350q-12 0 -19 17t-7 30t7 30t19 17h350v86l-28 53h-322q-12 0 -19 18q-7 17 -7 32 q0 12 7 29q7 18 19 18h271l-168 309q-40 79 -95 118q-52 37 -139 48q-5 1 -10 18q-4 15 -4 27q0 14 4 29q4 16 10 16q67 0 162 -6t174 -6t197 6t204 6q7 0 11 -17q4 -16 4 -28t-4 -28q-4 -17 -11 -17q-64 -7 -91 -25q-25 -16 -25 -45q0 -30 6 -50q6 -18 18 -46l174 -344 l185 344q14 27 16 44q2 20 2 40q0 33 -22 52t-103 30q-4 1 -7 18q-3 16 -3 27t5 29q4 16 11 16q80 0 133 -6q52 -6 131 -6q58 0 102 6q43 6 95 6q7 0 11 -16q5 -18 5 -29z" />
<glyph unicode="&#xa6;" horiz-adv-x="352" d="M250 784q0 -11 -26 -16q-23 -4 -48 -4q-17 0 -47 5q-27 5 -27 15v611q0 11 27 16q24 4 47 4q25 0 48 -4q26 -5 26 -16v-611zM250 -31q0 -11 -26 -16q-23 -4 -48 -4q-17 0 -47 5q-27 4 -27 15v611q0 12 27 16q24 4 47 4q25 0 48 -4q26 -5 26 -16v-611z" />
<glyph unicode="&#xa7;" horiz-adv-x="1337" d="M674 -346q0 102 -93 210q-90 104 -192 208q-104 104 -196 225q-91 120 -91 250q0 155 108 298q109 144 236 216q24 155 157 270t321 115q133 0 214 -61q79 -60 79 -146q0 -75 -46 -126q-45 -50 -112 -50q-60 0 -90 38q-33 41 -54 85q-19 42 -45 83q-27 42 -59 42 q-64 0 -97 -31q-32 -30 -32 -123q0 -99 99 -210q88 -98 196 -210q91 -94 195 -236q98 -134 98 -259q0 -152 -115 -284q-114 -130 -237 -198q-27 -161 -165 -277q-139 -116 -321 -116q-142 0 -226 58q-83 57 -83 143q0 69 48 122q48 52 134 52q61 0 91 -39q29 -38 46 -82 q18 -43 39 -81t62 -38q62 0 96 34q35 35 35 118zM1004 47q0 104 -89 217q-92 117 -192 217q-146 150 -209 217q-84 90 -102 207q-31 -23 -45 -56q-15 -35 -15 -85q0 -120 88 -233q90 -116 193 -216q109 -104 201 -205q95 -104 110 -204q34 36 48 65q12 24 12 76z" />
<glyph unicode="&#xa8;" horiz-adv-x="819" d="M821 1227q0 -74 -53 -127t-127 -53q-73 0 -123 53q-49 52 -49 127t49 128q50 54 123 54q75 0 127 -54q53 -55 53 -128zM371 1227q0 -71 -58 -126q-57 -54 -133 -54q-73 0 -128 53q-54 52 -54 127q0 74 54 128t128 54t132 -55q59 -56 59 -127z" />
<glyph unicode="&#xa9;" horiz-adv-x="1669" d="M1575 702q0 -304 -219 -525q-219 -220 -525 -220q-307 0 -526 219t-219 526q0 306 220 525t525 219q310 0 527 -220t217 -524zM1509 702q0 282 -199 480q-200 198 -479 198q-281 0 -480 -199t-199 -479q0 -281 200 -480t479 -199q283 0 480 200q198 201 198 479z M1210 559q-6 -26 -21 -121q-14 -88 -22 -129q-62 0 -140 -17q-83 -18 -159 -18q-252 0 -373 132q-120 130 -120 292q0 165 131 299q130 133 373 133q79 0 145 -10t125 -10q4 -44 12 -124q2 -22 5 -45t6 -46.5t4 -34.5q0 -4 -11 -7q-10 -3 -16 -3q-5 0 -13 3q-9 4 -10 7 q-18 75 -89 142q-72 67 -163 67q-134 0 -200 -102t-66 -269q0 -163 65 -263q65 -99 195 -99q105 0 180 63q73 61 113 160q1 4 10 6q10 2 15 2q6 0 15 -3t9 -5z" />
<glyph unicode="&#xaa;" horiz-adv-x="737" d="M735 915q0 -7 -1 -9q-2 -4 -3 -5q-23 -28 -75 -45q-48 -16 -111 -16q-57 0 -86 22q-30 23 -41 62q-39 -51 -74 -68q-38 -18 -113 -18q-77 0 -127 31q-51 31 -51 104t74 123q73 49 295 96l2 108q0 35 -8 45q-7 9 -39 9q-22 0 -47 -5q-22 -4 -27 -36q-6 -81 -33 -109 t-82 -28q-51 0 -75 28q-25 30 -25 70q0 64 103 118q104 54 239 54q122 0 163 -56q42 -57 42 -165l-6 -197q-6 -47 10 -60q17 -14 29 -14t16 -1q6 -1 12 3q9 5 24 -13t15 -28zM422 1028v100q-77 -18 -111 -44q-32 -25 -32 -83q0 -33 16 -40q20 -9 47 -9q25 0 49 15 q25 16 31 61z" />
<glyph unicode="&#xab;" horiz-adv-x="997" d="M899 125q4 -10 -2 -27t-16 -24l-22 -16q-8 -5 -21 -5q-3 0 -5 1l-4 1l-331 328q-7 7 -10 15q-5 13 -5 22q0 8 6 20l9 17l331 325l4 2q4 2 5 2q12 0 22 -7l21 -15q9 -7 16 -24q7 -18 2 -27l-129 -293zM506 125q4 -10 -2 -27q-6 -16 -19 -24q-4 -3 -10.5 -8.5t-7.5 -6.5 q-7 -6 -23 -6q-3 0 -6 1l-4 1l-330 328q-5 5 -9 15q-5 13 -5 22q0 8 6 20l8 17l330 325l4 2l6 2q14 0 22 -6q8 -7 19 -16q11 -8 19 -25q7 -16 2 -26l-131 -293z" />
<glyph unicode="&#xac;" horiz-adv-x="999" d="M928 59q0 -11 -25 -19q-22 -7 -47 -7q-27 0 -49 7q-25 8 -25 17v326h-716q-13 0 -19 24t-6 48q0 26 7 48q7 23 18 23h821q17 0 29 -13t12 -34v-420z" />
<glyph unicode="&#xad;" horiz-adv-x="843" d="M733 453q0 -43 -7 -65q-7 -23 -19 -23h-533q-12 0 -19 23q-8 26 -8 65q0 37 8 63q8 25 19 25h533q11 0 19 -25q7 -22 7 -63z" />
<glyph unicode="&#xae;" horiz-adv-x="1669" d="M1575 702q0 -304 -219 -525q-219 -220 -525 -220q-307 0 -526 219t-219 526q0 306 220 525t525 219q310 0 527 -220t217 -524zM1509 702q0 282 -199 480q-200 198 -479 198q-281 0 -480 -199t-199 -479q0 -281 200 -480t479 -199q283 0 480 200q198 201 198 479z M1352 324q0 -8 -3 -19q-3 -10 -8 -10q-36 0 -81 5t-72 5q-45 0 -78 -4t-76 -4l-145 278q-28 49 -54 67q-24 17 -75 17v-192q0 -55 19 -81q21 -29 85 -36q2 0 5 -10t3 -18q0 -6 -3 -17q-3 -10 -5 -10q-62 0 -103 4t-112 4q-74 0 -119 -4t-108 -4q-2 0 -5 10t-3 17q0 8 3 17 t5 11q88 12 103 39q16 29 16 88v438q0 65 -17 90q-15 22 -102 37q-2 0 -5 11t-3 16q0 7 3 18t5 11q51 0 118 -5q80 -6 126 -6q44 0 112 5q55 4 117 4q146 0 229 -53q82 -52 82 -148q0 -62 -44 -115q-45 -54 -128 -84l162 -254q29 -46 52 -63q25 -19 95 -29q3 0 6 -9t3 -17z M981 881q0 75 -30 113t-109 38q-47 0 -64 -14q-18 -15 -18 -68v-229q8 0 24 -2t33 -2q86 0 125 36t39 128z" />
<glyph unicode="&#xaf;" horiz-adv-x="819" d="M752 1321q0 -28 -13 -59q-12 -29 -30 -29h-598q-20 0 -32 32q-11 29 -11 56q0 26 10 57q10 33 33 33h598q18 0 30 -32q13 -34 13 -58z" />
<glyph unicode="&#xb0;" horiz-adv-x="534" d="M502 1225q0 -87 -64 -156q-63 -68 -170 -68q-103 0 -169 69t-66 155q0 85 66 153t169 68q101 0 167 -68q67 -69 67 -153zM391 1225q0 58 -34 96q-35 39 -89 39q-48 0 -86 -39q-37 -38 -37 -96q0 -59 35 -99q35 -39 88 -39q54 0 88 39q35 40 35 99z" />
<glyph unicode="&#xb1;" horiz-adv-x="917" d="M840 604q0 -25 -7 -47q-8 -25 -20 -25h-278v-274q0 -11 -25 -19q-26 -8 -49 -8q-19 0 -46 8q-26 8 -26 19v274h-274q-12 0 -20 25q-7 22 -7 47q0 24 7 48q8 26 20 26h274v272q0 10 25 18q22 7 47 7t49 -6q25 -6 25 -19v-272h278q13 0 20 -27q7 -25 7 -47zM840 72 q0 -25 -7 -47q-8 -25 -20 -25h-698q-12 0 -20 25q-7 22 -7 47t7 47q7 24 20 24h698q13 0 20 -25q7 -24 7 -46z" />
<glyph unicode="&#xb2;" horiz-adv-x="804" d="M754 1020l-2 -8q-16 -27 -54 -111q-32 -72 -53 -127q-27 5 -113 7q-55 1 -182 1q-131 0 -193 -1q-100 -2 -120 -5q-6 0 -15 23q-10 25 -10 28q0 4 1 6l1 3q222 180 309 284q93 111 93 236q0 57 -29 92t-78 35q-57 0 -96 -24t-78 -91q-3 -3 -6 -4l-6 -2q-12 0 -38 20 q-28 22 -28 27l2 6q47 108 127 169q81 61 185 61q140 0 222 -73q81 -72 81 -190q0 -105 -90 -204t-299 -224h276q44 0 74 34q33 38 49 71q0 2 5 4q6 2 11 2q19 0 36 -14q18 -15 18 -31z" />
<glyph unicode="&#xb3;" horiz-adv-x="749" d="M686 1036q0 -130 -137 -246t-313 -116q-135 0 -181 46q-47 47 -47 87t24 70t77 30q29 0 48 -22q18 -21 31 -45q17 -27 34 -46q18 -20 54 -20q91 0 130 47q38 45 38 158q0 73 -28 117q-28 45 -109 45q-36 0 -55 -4q-16 -3 -35 -11q-5 0 -15 10q-11 11 -16 23q-5 11 -7 27 q-1 14 3 18q117 45 154 88t37 121q0 50 -22 77q-21 26 -64 26q-38 0 -67 -16q-28 -15 -60 -64q-5 -7 -20 -2q-17 5 -27 14q-16 14 -21 22q-8 12 -6 17q47 72 114 114q70 44 167 44q111 0 183 -57q73 -58 73 -138q0 -59 -51 -113q-50 -53 -166 -92q127 7 203 -52 q77 -60 77 -157z" />
<glyph unicode="&#xb4;" horiz-adv-x="819" d="M676 1356q0 -20 -12 -46q-12 -25 -31 -34l-387 -184l-2 -1q-2 -1 -2 -2q-2 -2 -9 -2l-6 3q-6 2 -12 6q-1 1 -5 3.5t-6 4.5q-1 1 -4 3.5t-5 4.5q-7 10 -10 16q-5 12 -5 21q0 2 2 10q1 5 4 8l277 330q8 11 26 19t31 8q28 0 66 -20q37 -19 55 -46q17 -26 25 -52 q10 -33 10 -50z" />
<glyph unicode="&#xb5;" d="M1280 80q0 -10 -5 -27q-4 -14 -11 -14q-59 -5 -190 -29q-117 -21 -185 -41q-2 0 -9 -2.5t-12 -4.5q-17 -5 -28 -5q-17 0 -26 9t-9 18l-10 143q-45 -82 -111 -127q-62 -43 -135 -43q-20 0 -41 3q-20 3 -31 9q-7 4 -16 6q-10 2 -17 2q-8 0 -14 -6t-6 -20q0 -115 12 -172 q12 -56 29 -86q17 -29 29 -38t12 -28q0 -57 -137 -128q-136 -70 -199 -70q-22 0 -34 16q-11 15 -11 37q0 16 4 35q3 14 8 84q3 30 8 165q5 127 5 271v602q0 93 -32 123t-114 29q-7 0 -11 14q-5 17 -5 29q0 8 5 28q5 19 11 19q72 0 216 13q155 14 231 34q18 6 32 -8 q15 -15 15 -21v-631q0 -81 33 -120t104 -39q50 0 88 39q39 41 63 100v391q0 89 -31 121q-31 33 -116 31q-7 0 -11 15q-5 17 -5 28q0 8 5 28q5 19 11 19q67 0 222 12q148 11 226 31q15 4 31 -10q15 -14 15 -19v-627q0 -89 23 -112q25 -25 108 -31q7 0 11 -17q5 -20 5 -28z " />
<glyph unicode="&#xb6;" horiz-adv-x="1327" d="M1372 1358q0 -11 -5 -29q-4 -16 -11 -16h-213v-1864q0 -6 -19 -11q-20 -5 -30 -5q-11 0 -31 5q-19 5 -19 11v1864h-122v-1551q0 -139 -89 -242q-89 -102 -231 -102q-148 0 -225 75q-76 75 -76 198q0 93 66 173q66 79 170 79q83 0 135 -52q51 -51 51 -135q0 -42 -27 -86 q-27 -43 -88 -43q-45 0 -72 29q-28 30 -28 70q0 48 26 63q25 15 25 35q0 11 -7 15q-8 5 -22 5q-59 0 -95 -44t-36 -109q0 -83 54 -132q53 -48 145 -48q105 0 165 73t60 178v467h-139q-150 0 -265 50t-188 129q-73 82 -109 187t-36 220q0 122 34 220q36 103 111 188 q70 81 188 130q120 50 265 50h672q6 0 11 -17q5 -18 5 -28z" />
<glyph unicode="&#xb7;" horiz-adv-x="655" d="M514 692q0 -76 -54 -131t-132 -55q-76 0 -131 55q-56 56 -56 131t56 131t131 56q78 0 132 -56t54 -131z" />
<glyph unicode="&#xb8;" horiz-adv-x="819" d="M561 -291q0 -86 -88 -135t-174 -49q-77 0 -112 25t-35 57q0 26 14 44q15 19 47 19q39 0 68 -30q29 -31 61 -31q25 0 36 14t11 51q0 38 -45 69q-48 34 -82 50q-8 5 -14 12t-6 19q0 3 2 9q0 2 2 5t2 4l127 187h114l-57 -101q-3 -3 -5 -9q-1 -3 -1 -9q0 -8 4 -15 q6 -10 16 -16q49 -30 82 -64q33 -35 33 -106z" />
<glyph unicode="&#xb9;" horiz-adv-x="647" d="M618 821q0 -10 -5 -28q-5 -17 -11 -17q-51 0 -129 3t-133 3q-51 0 -132 -3t-126 -3q-6 0 -11 16q-5 17 -5 29q0 16 4 29q4 14 12 16q72 6 102 24q31 19 31 79v393q0 63 -14 84q-15 22 -84 22q-10 0 -18 -1t-17 -1q-6 0 -11 14q-5 15 -5 27q0 16 4 29q4 14 12 16 q78 21 171 37q100 17 165 49q9 6 19 8q12 3 18 3q4 0 13 -7q7 -6 7 -16q0 -36 -6 -96t-6 -105v-456q0 -59 35 -79q34 -19 104 -24q8 0 12 -16q4 -15 4 -29z" />
<glyph unicode="&#xba;" horiz-adv-x="790" d="M756 1133q0 -122 -89 -213t-253 -91q-170 0 -256 92t-86 212q0 118 85 212q86 95 257 95q165 0 254 -95q88 -94 88 -212zM512 1133q0 125 -18 177t-80 52t-80 -51q-19 -54 -19 -178q0 -132 17 -180q16 -46 82 -46q62 0 80 50q18 49 18 176z" />
<glyph unicode="&#xbb;" horiz-adv-x="997" d="M944 420q0 -10 -5 -23t-9 -14l-330 -328l-4 -1q-3 -1 -6 -1q-13 0 -20 4q-2 1 -5 3.5t-7.5 6.5t-8.5 7q-14 12 -19 25q-6 16 -2 26l131 295l-131 293q-6 10 2 25q7 14 19 26q11 11 20 16q11 6 21 6q1 0 3 -1t3 -1l4 -2l330 -325l8 -17q6 -12 6 -20zM551 420q0 -10 -5 -23 t-9 -14l-332 -328l-3 -1q-2 -1 -5 -1q-9 0 -21 5q-7 3 -22 16q-15 15 -18 26q-5 16 -1 25l129 295l-129 293q-5 10 2 26q7 15 17 25q18 15 23 17q10 5 20 5q1 0 5 -2l3 -2l332 -325l8 -17q6 -12 6 -20z" />
<glyph unicode="&#xbf;" horiz-adv-x="804" d="M31 -76q0 178 71 243q73 67 158 97q28 12 78 26q45 13 74 34q32 23 46 46q15 26 5 83l-2 8q-1 3 2.5 6.5t12.5 7.5q21 9 32 12q17 2 32 -2q18 -4 19 -10l39 -270q12 -94 -52 -134q-63 -39 -143 -61q-68 -21 -143 -55q-76 -34 -76 -90q0 -35 30 -68t116 -33q45 0 108 15 q59 14 103 14q80 0 129 -49t49 -117q0 -81 -55 -130q-56 -50 -158 -50q-158 0 -317 147q-158 146 -158 330zM338 768q0 68 50 118t118 50t118 -50t50 -118q0 -72 -48 -120t-120 -48q-68 0 -118 50t-50 118z" />
<glyph unicode="&#xc0;" horiz-adv-x="1632" d="M1620 35q0 -11 -5 -29q-4 -16 -11 -16q-87 0 -199 5t-184 5q-82 0 -202 -5t-208 -5q-7 0 -11 15q-5 17 -5 30q0 9 3 26q3 18 9 19q99 6 130 25q32 20 32 61q0 19 -7 41q0 2 -16 45l-55 143h-430l-49 -119q-14 -32 -20 -54q-7 -24 -7 -44q0 -42 24 -68t130 -30q7 0 8 -18 q2 -24 2 -27q0 -13 -5 -30q-4 -15 -12 -15q-82 0 -137 5t-131 5q-62 0 -119 -5t-120 -5q-7 0 -11 17q-4 16 -4 28q0 10 9 26q9 17 16 19q87 7 137 53q48 44 100 152l508 1145q2 6 23 11q23 5 39 5t39 -5q20 -4 22 -11l455 -1145q38 -103 88 -149q50 -45 153 -56q7 0 14 -18 q7 -17 7 -27zM852 494l-172 450l-180 -450h352zM985 1597q0 -10 -5 -23q-4 -12 -9 -18q-9 -9 -23 -16q-16 -8 -20 -8h-8q-3 0 -5 2l-403 192q-26 11 -37 34q-12 24 -12 50q0 33 10 59q11 29 27 52q17 23 58 45q43 23 73 23q15 0 36 -7q17 -6 27 -20l285 -346q3 -3 4 -8 q2 -8 2 -11z" />
<glyph unicode="&#xc1;" horiz-adv-x="1632" d="M1620 35q0 -11 -5 -29q-4 -16 -11 -16q-87 0 -199 5t-184 5q-82 0 -202 -5t-208 -5q-7 0 -11 15q-5 17 -5 30q0 9 3 26q3 18 9 19q99 6 130 25q32 20 32 61q0 19 -7 41q0 2 -16 45l-55 143h-430l-49 -119q-14 -32 -20 -54q-7 -24 -7 -44q0 -42 24 -68t130 -30q7 0 8 -18 q2 -24 2 -27q0 -13 -5 -30q-4 -15 -12 -15q-82 0 -137 5t-131 5q-62 0 -119 -5t-120 -5q-7 0 -11 17q-4 16 -4 28q0 10 9 26q9 17 16 19q87 7 137 53q48 44 100 152l508 1145q2 6 23 11q23 5 39 5t39 -5q20 -4 22 -11l455 -1145q38 -103 88 -149q50 -45 153 -56q7 0 14 -18 q7 -17 7 -27zM852 494l-172 450l-180 -450h352zM1288 1812q0 -25 -10 -48q-10 -22 -35 -35l-405 -195q-3 0 -5 -1t-8 -1t-20 7q-17 8 -23 17q-4 6 -9 18q-5 13 -5 21q0 3 2 11q1 2 2.5 5.5t1.5 4.5l291 346q7 10 27 19q19 8 34 8q32 0 70 -21q36 -20 57 -47q20 -27 27 -54 q8 -32 8 -55z" />
<glyph unicode="&#xc2;" horiz-adv-x="1632" d="M1620 35q0 -11 -5 -29q-4 -16 -11 -16q-87 0 -199 5t-184 5q-82 0 -202 -5t-208 -5q-7 0 -11 15q-5 17 -5 30q0 9 3 26q3 18 9 19q99 6 130 25q32 20 32 61q0 19 -7 41q0 2 -16 45l-55 143h-430l-49 -119q-14 -32 -20 -54q-7 -24 -7 -44q0 -42 24 -68t130 -30q7 0 8 -18 q2 -24 2 -27q0 -13 -5 -30q-4 -15 -12 -15q-82 0 -137 5t-131 5q-62 0 -119 -5t-120 -5q-7 0 -11 17q-4 16 -4 28q0 10 9 26q9 17 16 19q87 7 137 53q48 44 100 152l508 1145q2 6 23 11q23 5 39 5t39 -5q20 -4 22 -11l455 -1145q38 -103 88 -149q50 -45 153 -56q7 0 14 -18 q7 -17 7 -27zM852 494l-172 450l-180 -450h352zM1257 1589q0 -11 -7 -22q-9 -14 -15 -19q-2 -2 -16 -10q-7 -4 -17 -4q-8 0 -15 3q-8 3 -13 7l-332 146l-332 -146q-7 -2 -14 -6t-15 -4q-9 0 -16 3q-8 3 -19 11q-9 7 -16 20q-6 12 -6 21q0 4 3 10l5 11l365 340q7 9 19 14 q13 6 26 6q16 0 26 -6q11 -6 17 -14l364 -340q2 -2 5 -9t3 -12z" />
<glyph unicode="&#xc3;" horiz-adv-x="1632" d="M1620 35q0 -11 -5 -29q-4 -16 -11 -16q-87 0 -199 5t-184 5q-82 0 -202 -5t-208 -5q-7 0 -11 15q-5 17 -5 30q0 9 3 26q3 18 9 19q99 6 130 25q32 20 32 61q0 19 -7 41q0 2 -16 45l-55 143h-430l-49 -119q-14 -32 -20 -54q-7 -24 -7 -44q0 -42 24 -68t130 -30q7 0 8 -18 q2 -24 2 -27q0 -13 -5 -30q-4 -15 -12 -15q-82 0 -137 5t-131 5q-62 0 -119 -5t-120 -5q-7 0 -11 17q-4 16 -4 28q0 10 9 26q9 17 16 19q87 7 137 53q48 44 100 152l508 1145q2 6 23 11q23 5 39 5t39 -5q20 -4 22 -11l455 -1145q38 -103 88 -149q50 -45 153 -56q7 0 14 -18 q7 -17 7 -27zM852 494l-172 450l-180 -450h352zM1295 1980q13 -6 24 -23t7 -38q-29 -187 -95 -256q-67 -70 -175 -53l-406 57q-63 8 -109 -18q-49 -28 -89 -103q-11 -18 -48 -5q-36 13 -28 63q33 169 113 253q81 85 214 64l367 -57q66 -8 108 17q43 25 72 95q5 9 18 10 q9 1 27 -6z" />
<glyph unicode="&#xc4;" horiz-adv-x="1632" d="M1620 35q0 -11 -5 -29q-4 -16 -11 -16q-87 0 -199 5t-184 5q-82 0 -202 -5t-208 -5q-7 0 -11 15q-5 17 -5 30q0 9 3 26q3 18 9 19q99 6 130 25q32 20 32 61q0 19 -7 41q0 2 -16 45l-55 143h-430l-49 -119q-14 -32 -20 -54q-7 -24 -7 -44q0 -42 24 -68t130 -30q7 0 8 -18 q2 -24 2 -27q0 -13 -5 -30q-4 -15 -12 -15q-82 0 -137 5t-131 5q-62 0 -119 -5t-120 -5q-7 0 -11 17q-4 16 -4 28q0 10 9 26q9 17 16 19q87 7 137 53q48 44 100 152l508 1145q2 6 23 11q23 5 39 5t39 -5q20 -4 22 -11l455 -1145q38 -103 88 -149q50 -45 153 -56q7 0 14 -18 q7 -17 7 -27zM852 494l-172 450l-180 -450h352zM1296 1743q0 -76 -57 -133q-58 -58 -133 -58q-76 0 -134 58q-57 57 -57 133t57 133t134 57q76 0 133 -57t57 -133zM780 1743q0 -76 -57 -133q-58 -58 -133 -58q-76 0 -134 58q-57 57 -57 133t57 133t134 57q76 0 133 -57 t57 -133z" />
<glyph unicode="&#xc5;" horiz-adv-x="1632" d="M922 494l-172 450l-181 -450h353zM1040 1577q0 58 -35 99q-36 42 -94 42q-51 0 -90 -42t-39 -99q0 -63 37 -103t92 -40q61 0 95 39q34 38 34 104zM819 1360q-67 27 -110 86t-43 131q0 88 69 160q68 71 176 71t176 -71q70 -73 70 -160q0 -72 -43 -133q-44 -62 -115 -86 l428 -1073q38 -104 90 -150q54 -48 152 -55q5 0 13 -20q8 -21 8 -27q0 -4 -6 -28q-4 -17 -11 -17q-94 0 -196 6t-187 6q-92 0 -200 -6t-209 -6l-9 17q-8 19 -8 28q0 11 6 29l7 18q99 0 130 22t31 64q0 16 -7 40q-7 23 -15 46l-55 143h-431l-49 -119q-6 -24 -17 -57 q-9 -27 -9 -41q0 -44 29 -70q31 -28 124 -28q6 0 8 -20q2 -26 2 -27q0 -8 -5 -28q-4 -17 -11 -17q-86 0 -136 6t-132 6q-64 0 -117 -6t-123 -6l-7 17q-7 17 -7 28q0 7 12 27l12 20q90 6 139 51q49 44 99 154z" />
<glyph unicode="&#xc6;" horiz-adv-x="2326" d="M2214 469q-12 -88 -28 -243q-12 -117 -19 -236q-103 4 -324 7q-195 3 -313 3q-143 0 -338 -4q-217 -4 -328 -6q-7 0 -11 16q-5 18 -5 29q0 8 5 26q5 17 11 19q123 15 159 51q38 38 38 121v209h-475l-113 -176q-32 -53 -43 -80q-12 -30 -12 -49q0 -30 25 -52t114 -24 q6 0 9 -18t3 -27q0 -13 -5 -30q-4 -15 -11 -15q-82 0 -145 5t-142 5q-62 0 -125 -5t-129 -5q-6 0 -10 15q-4 13 -4 30q0 10 9 26q9 17 16 19q87 7 152 53q64 45 138 152l568 850q50 74 16 127q-34 54 -178 61q-7 2 -11 18q-6 22 -6 27q0 10 6 30q4 15 11 15q49 0 160 -3 t233 -3q44 0 210 -2t187 -2q113 0 317 3q225 3 322 7q-2 -97 5 -224q7 -135 12 -233q0 -8 -17 -17q-16 -9 -41 -9q-15 0 -24 4q-10 4 -10 8q-17 130 -108 245q-92 116 -257 116h-123q-41 0 -80 -21t-39 -100v-424h70q103 0 165 61t73 162q0 7 17 11q20 5 28 5q12 0 29 -5 q16 -5 16 -11q0 -68 -5 -141q-6 -88 -6 -135q0 -51 6 -135q5 -70 5 -136q0 -6 -16 -11q-17 -5 -29 -5q-9 0 -27 5q-16 4 -18 11q-12 106 -69 165q-57 58 -169 58h-70v-436q0 -73 39 -97t80 -24h107q154 0 276 113t152 276q0 5 9 7q12 2 21 2q19 0 44 -9q22 -8 20 -20z M1061 559v651l-416 -651h416z" />
<glyph unicode="&#xc7;" horiz-adv-x="1624" d="M1509 492q-3 -26 -12.5 -104.5t-16.5 -130.5q-21 -167 -26 -212q-90 0 -228 -44t-292 -44q-212 0 -370 62q-160 63 -267 165q-106 101 -159 235q-52 131 -52 275q0 296 235 525q233 227 629 227q171 0 287 -31t207 -31q4 -95 12 -221q3 -48 9.5 -130.5t7.5 -94.5 q0 -6 -19 -11q-20 -5 -33 -5q-11 0 -23 4q-14 4 -18 12q-27 151 -152 280q-126 130 -286 130q-242 0 -338 -186t-96 -468q0 -275 95 -457t331 -182q188 0 307 131q117 129 178 306q1 7 18 12q13 4 25 4q9 0 29 -5q18 -5 18 -11zM1096 -291q0 -86 -88 -135t-174 -49 q-77 0 -112 25q-36 26 -36 57q0 26 14 44q15 19 48 19q38 0 67 -30q29 -31 62 -31q24 0 35 14q12 15 12 51q0 38 -45 69q-48 34 -82 50q-10 6 -15 12q-6 7 -6 19q0 3 2 9q0 1 2 4t2 5l127 187h115l-57 -101q-3 -3 -5 -9q-1 -3 -1 -9q0 -8 4 -15q6 -10 16 -16q49 -30 82 -64 q33 -35 33 -106z" />
<glyph unicode="&#xc8;" horiz-adv-x="1566" d="M1454 469q-12 -88 -28 -243q-12 -117 -19 -236q-103 4 -324 7q-195 3 -313 3q-143 0 -338 -4q-217 -4 -328 -6q-7 0 -11 16q-5 18 -5 29q0 8 5 26q5 17 11 19q123 15 159 51q38 38 38 121v899q0 83 -38 121q-36 36 -159 51q-7 2 -11 18q-5 18 -5 27q0 11 5 29q4 16 11 16 q112 -2 312 -6q180 -4 334 -4q110 0 313 3q228 3 328 7q-4 -84 3 -217q3 -62 11 -240q0 -8 -15 -17t-42 -9q-16 0 -25 4q-10 4 -10 8q-17 130 -108 245q-92 116 -257 116h-123q-41 0 -80 -21q-38 -20 -38 -100v-424h69q103 0 165 61t73 162q0 7 17 11q20 5 28 5q13 0 30 -5 q15 -4 15 -11q0 -68 -5 -141t-5 -135q0 -65 5 -135t5 -136q0 -6 -15 -11q-17 -5 -30 -5q-9 0 -27 5q-16 4 -18 11q-12 106 -69 165q-57 58 -169 58h-69v-436q0 -74 38 -97q39 -24 80 -24h107q154 0 276 113t152 276q0 5 9 7q12 2 22 2q19 0 44 -9q21 -7 19 -20zM1029 1597 q0 -10 -5 -23q-4 -12 -9 -18q-9 -9 -23 -16q-16 -8 -20 -8h-8q-3 0 -5 2l-403 192q-26 11 -37 34q-12 24 -12 50q0 33 10 59q11 29 27 52q17 23 58 45q43 23 73 23q15 0 36 -7q17 -6 27 -20l285 -346q3 -3 4 -8q2 -8 2 -11z" />
<glyph unicode="&#xc9;" horiz-adv-x="1566" d="M1454 469q-12 -88 -28 -243q-12 -117 -19 -236q-103 4 -324 7q-195 3 -313 3q-143 0 -338 -4q-217 -4 -328 -6q-7 0 -11 16q-5 18 -5 29q0 8 5 26q5 17 11 19q123 15 159 51q38 38 38 121v899q0 83 -38 121q-36 36 -159 51q-7 2 -11 18q-5 18 -5 27q0 11 5 29q4 16 11 16 q112 -2 312 -6q180 -4 334 -4q110 0 313 3q228 3 328 7q-4 -84 3 -217q3 -62 11 -240q0 -8 -15 -17t-42 -9q-16 0 -25 4q-10 4 -10 8q-17 130 -108 245q-92 116 -257 116h-123q-41 0 -80 -21q-38 -20 -38 -100v-424h69q103 0 165 61t73 162q0 7 17 11q20 5 28 5q13 0 30 -5 q15 -4 15 -11q0 -68 -5 -141t-5 -135q0 -65 5 -135t5 -136q0 -6 -15 -11q-17 -5 -30 -5q-9 0 -27 5q-16 4 -18 11q-12 106 -69 165q-57 58 -169 58h-69v-436q0 -74 38 -97q39 -24 80 -24h107q154 0 276 113t152 276q0 5 9 7q12 2 22 2q19 0 44 -9q21 -7 19 -20zM1085 1812 q0 -25 -10 -48q-10 -22 -35 -35l-405 -195q-3 0 -5 -1t-7 -1q-7 0 -21 7q-15 8 -22 17q-6 9 -10 18q-5 13 -5 21q0 3 2 11q1 2 2.5 5.5t1.5 4.5l291 346q7 10 27 19q19 8 35 8q32 0 69 -21q38 -21 58 -47q19 -25 26 -54q8 -32 8 -55z" />
<glyph unicode="&#xca;" horiz-adv-x="1566" d="M1200 1589q0 -11 -7 -22q-9 -14 -15 -19q-2 -2 -5 -3.5t-6.5 -3.5t-5.5 -3q-7 -4 -16 -4t-16 3q-8 3 -13 7l-332 146l-331 -146q-9 -2 -15 -6q-7 -4 -14 -4q-8 0 -16 3t-19 11q-9 7 -16 20q-6 12 -6 21q0 4 3 10l5 11l364 340q6 8 20 14q13 6 25 6q16 0 27 -6 q9 -5 16 -14l365 -340q2 -2 5 -9t3 -12zM1454 469q-12 -88 -28 -243q-12 -117 -19 -236q-103 4 -324 7q-195 3 -313 3q-143 0 -338 -4q-217 -4 -328 -6q-7 0 -11 16q-5 18 -5 29q0 8 5 26q5 17 11 19q123 15 159 51q38 38 38 121v899q0 83 -38 121q-36 36 -159 51 q-7 2 -11 18q-5 18 -5 27q0 11 5 29q4 16 11 16q112 -2 312 -6q180 -4 334 -4q110 0 313 3q228 3 328 7q-4 -84 3 -217q3 -62 11 -240q0 -8 -15 -17t-42 -9q-16 0 -25 4q-10 4 -10 8q-17 130 -108 245q-92 116 -257 116h-123q-41 0 -80 -21q-38 -20 -38 -100v-424h69 q103 0 165 61t73 162q0 7 17 11q20 5 28 5q13 0 30 -5q15 -4 15 -11q0 -68 -5 -141t-5 -135q0 -65 5 -135t5 -136q0 -6 -15 -11q-17 -5 -30 -5q-9 0 -27 5q-16 4 -18 11q-12 106 -69 165q-57 58 -169 58h-69v-436q0 -74 38 -97q39 -24 80 -24h107q154 0 276 113t152 276 q0 5 9 7q12 2 22 2q19 0 44 -9q21 -7 19 -20z" />
<glyph unicode="&#xcb;" horiz-adv-x="1566" d="M1454 469q-12 -88 -28 -243q-12 -117 -19 -236q-103 4 -324 7q-195 3 -313 3q-143 0 -338 -4q-217 -4 -328 -6q-7 0 -11 16q-5 18 -5 29q0 8 5 26q5 17 11 19q123 15 159 51q38 38 38 121v899q0 83 -38 121q-36 36 -159 51q-7 2 -11 18q-5 18 -5 27q0 11 5 29q4 16 11 16 q112 -2 312 -6q180 -4 334 -4q110 0 313 3q228 3 328 7q-4 -84 3 -217q3 -62 11 -240q0 -8 -15 -17t-42 -9q-16 0 -25 4q-10 4 -10 8q-17 130 -108 245q-92 116 -257 116h-123q-41 0 -80 -21q-38 -20 -38 -100v-424h69q103 0 165 61t73 162q0 7 17 11q20 5 28 5q13 0 30 -5 q15 -4 15 -11q0 -68 -5 -141t-5 -135q0 -65 5 -135t5 -136q0 -6 -15 -11q-17 -5 -30 -5q-9 0 -27 5q-16 4 -18 11q-12 106 -69 165q-57 58 -169 58h-69v-436q0 -74 38 -97q39 -24 80 -24h107q154 0 276 113t152 276q0 5 9 7q12 2 22 2q19 0 44 -9q21 -7 19 -20zM1268 1743 q0 -75 -58 -133t-133 -58q-76 0 -134 58q-56 56 -56 133t56 133q57 57 134 57q76 0 133 -57q58 -58 58 -133zM752 1743q0 -75 -58 -133t-133 -58q-76 0 -134 58q-56 56 -56 133t56 133q57 57 134 57q76 0 133 -57q58 -58 58 -133z" />
<glyph unicode="&#xcc;" horiz-adv-x="1007" d="M918 35q0 -10 -6 -30q-4 -15 -11 -15q-89 0 -202 5t-195 5q-84 0 -197 -5t-203 -5q-7 0 -11 16q-5 18 -5 29q0 8 5 26q5 17 11 19q123 15 159 51q38 38 38 121v899q0 83 -38 121q-36 36 -159 51q-7 2 -11 18q-5 18 -5 27q0 11 5 29q4 16 11 16q90 0 203 -5t197 -5 q82 0 195 5t202 5q7 0 11 -15q6 -20 6 -30q0 -4 -6 -28q-4 -17 -11 -17q-117 -12 -156 -51q-38 -38 -38 -121v-899q0 -83 38 -121q39 -39 156 -51q7 0 11 -18q6 -24 6 -27zM743 1597q0 -10 -5 -23q-4 -12 -9 -18q-10 -10 -22 -16q-16 -8 -21 -8h-8q-2 0 -4 2l-404 192 q-26 11 -37 34q-12 24 -12 50q0 33 10 59q11 29 27 52q17 23 58 45q43 23 73 23q15 0 36 -7q18 -6 28 -20l284 -346q3 -3 4 -8q2 -8 2 -11z" />
<glyph unicode="&#xcd;" horiz-adv-x="1007" d="M918 35q0 -10 -6 -30q-4 -15 -11 -15q-89 0 -202 5t-195 5q-84 0 -197 -5t-203 -5q-7 0 -11 16q-5 18 -5 29q0 8 5 26q5 17 11 19q123 15 159 51q38 38 38 121v899q0 83 -38 121q-36 36 -159 51q-7 2 -11 18q-5 18 -5 27q0 11 5 29q4 16 11 16q90 0 203 -5t197 -5 q82 0 195 5t202 5q7 0 11 -15q6 -20 6 -30q0 -4 -6 -28q-4 -17 -11 -17q-117 -12 -156 -51q-38 -38 -38 -121v-899q0 -83 38 -121q39 -39 156 -51q7 0 11 -18q6 -24 6 -27zM880 1812q0 -23 -11 -48q-10 -23 -34 -35l-406 -195q-3 0 -5 -1t-7 -1q-7 0 -21 7q-15 8 -22 17 q-4 6 -9 18q-6 16 -6 21q0 3 2 11q1 2 3 5.5t2 4.5l290 346q7 10 27 19q19 8 35 8q32 0 69 -21q38 -21 58 -47q19 -25 26 -54q9 -36 9 -55z" />
<glyph unicode="&#xce;" horiz-adv-x="1007" d="M918 35q0 -10 -6 -30q-4 -15 -11 -15q-89 0 -202 5t-195 5q-84 0 -197 -5t-203 -5q-7 0 -11 16q-5 18 -5 29q0 8 5 26q5 17 11 19q123 15 159 51q38 38 38 121v899q0 83 -38 121q-36 36 -159 51q-7 2 -11 18q-5 18 -5 27q0 11 5 29q4 16 11 16q90 0 203 -5t197 -5 q82 0 195 5t202 5q7 0 11 -15q6 -20 6 -30q0 -4 -6 -28q-4 -17 -11 -17q-117 -12 -156 -51q-38 -38 -38 -121v-899q0 -83 38 -121q39 -39 156 -51q7 0 11 -18q6 -24 6 -27zM919 1589q0 -9 -8 -22q-9 -14 -15 -19q-2 -2 -16 -10q-7 -4 -17 -4q-7 0 -15 3t-13 7l-332 146 l-332 -146q-7 -2 -14 -6t-15 -4t-16 3q-6 2 -18 11q-11 8 -17 20t-6 21q0 4 3 10l5 11l365 340q7 9 19 14q13 6 26 6q15 0 26 -6t17 -14l364 -340q2 -2 5 -9q4 -10 4 -12z" />
<glyph unicode="&#xcf;" horiz-adv-x="1007" d="M918 35q0 -10 -6 -30q-4 -15 -11 -15q-89 0 -202 5t-195 5q-84 0 -197 -5t-203 -5q-7 0 -11 16q-5 18 -5 29q0 8 5 26q5 17 11 19q123 15 159 51q38 38 38 121v899q0 83 -38 121q-36 36 -159 51q-7 2 -11 18q-5 18 -5 27q0 11 5 29q4 16 11 16q90 0 203 -5t197 -5 q82 0 195 5t202 5q7 0 11 -15q6 -20 6 -30q0 -4 -6 -28q-4 -17 -11 -17q-117 -12 -156 -51q-38 -38 -38 -121v-899q0 -83 38 -121q39 -39 156 -51q7 0 11 -18q6 -24 6 -27zM975 1743q0 -76 -57 -133q-58 -58 -134 -58t-134 58q-56 56 -56 133t56 133q57 57 134 57t134 -57 t57 -133zM459 1743q0 -75 -58 -133t-133 -58q-76 0 -134 58q-56 56 -56 133t56 133q57 57 134 57q76 0 133 -57q58 -58 58 -133z" />
<glyph unicode="&#xd0;" horiz-adv-x="1832" d="M707 741h200q11 0 18 -25q7 -24 7 -46q0 -27 -7 -49q-8 -25 -18 -25l-200 8v-391q0 -74 38 -96q40 -23 80 -23l80 -4q232 0 325 161t93 443q0 287 -87 454t-331 165l-80 -4q-40 0 -80 -23q-38 -22 -38 -96v-449zM301 604l-219 -8q-9 0 -17 25q-8 26 -8 49q0 19 8 46 q7 25 17 25h219v410q0 83 -38 121q-36 36 -159 51q-7 2 -11 18q-5 18 -5 27q0 11 5 29q4 16 11 16q178 -4 203 -4q174 -2 219 -2q78 0 195 3t192 3q210 0 369 -54q158 -54 264 -155q104 -102 151 -228q48 -127 48 -282q0 -138 -43 -267q-44 -131 -143 -226 q-109 -104 -253 -157q-147 -54 -393 -54q-77 0 -193 3q-115 3 -194 3q-45 0 -219 -2q-25 0 -203 -4q-7 0 -11 16q-5 18 -5 29q0 8 5 26q5 17 11 19q123 15 159 51q38 38 38 121v352z" />
<glyph unicode="&#xd1;" horiz-adv-x="1808" d="M1808 1368q0 -8 -5 -28q-4 -17 -11 -17q-114 -12 -161 -50q-46 -37 -48 -122l-22 -1169q0 -6 -14 -14q-13 -7 -44 -7q-23 0 -39 3q-17 3 -24 13l-996 1006l-12 -731q-4 -79 43 -120q46 -40 166 -52q7 0 11 -15q5 -17 5 -30q0 -11 -5 -29q-4 -16 -11 -16q-70 0 -143 5 t-138 5q-66 0 -136 -5t-132 -5q-7 0 -11 16q-5 18 -5 29q0 13 6 28q6 16 12 17q117 12 162 51t45 121l33 833q1 110 -45 167q-45 56 -178 71q-7 2 -11 18q-4 15 -4 27q0 13 5 30q5 15 12 15q41 0 116 -5t111 -5q49 0 104 5t127 5l889 -926v664q0 84 -49 121q-47 36 -168 51 q-7 2 -11 16q-5 17 -5 29q0 11 5 29q4 16 11 16q79 0 136 -6t128 -6q74 0 146 6t139 6q6 0 11 -15q5 -17 5 -30zM1397 1980q11 -6 23 -23q11 -17 7 -38q-29 -187 -95 -256q-67 -70 -175 -53l-405 57q-64 8 -110 -18q-49 -28 -89 -103q-11 -18 -47 -5q-37 13 -29 63 q33 167 114 253q81 85 214 64l366 -57q66 -8 108 17q45 26 73 95q5 9 17 10q10 1 28 -6z" />
<glyph unicode="&#xd2;" horiz-adv-x="1781" d="M1694 694q0 -308 -210 -522q-210 -215 -593 -215t-594 216q-211 215 -211 521t211 529t594 223q375 0 589 -220t214 -532zM1272 694q0 283 -82 468q-82 186 -299 186q-219 0 -300 -188t-81 -466q0 -285 81 -462t300 -177q217 0 299 178q82 177 82 461zM1110 1597 q0 -10 -5 -23q-5 -12 -9 -18q-9 -9 -23 -16q-16 -8 -20 -8h-9q-2 0 -4 2l-403 192q-26 11 -37 34q-12 24 -12 50q0 33 10 59q11 29 27 52q17 23 58 45q43 23 73 23q15 0 36 -7q17 -6 27 -20l285 -346q3 -3 4 -8q2 -8 2 -11z" />
<glyph unicode="&#xd3;" horiz-adv-x="1781" d="M1694 694q0 -308 -210 -522q-210 -215 -593 -215t-594 216q-211 215 -211 521t211 529t594 223q375 0 589 -220t214 -532zM1272 694q0 283 -82 468q-82 186 -299 186q-219 0 -300 -188t-81 -466q0 -285 81 -462t300 -177q217 0 299 178q82 177 82 461zM1304 1812 q0 -23 -11 -48q-10 -22 -35 -35l-405 -195q-3 0 -5 -1t-7 -1q-7 0 -21 7q-15 8 -22 17t-10 18q-5 13 -5 21q0 3 2 11q1 2 3 5.5t2 4.5l290 346q7 10 27 19q19 8 35 8q32 0 69 -21q38 -21 58 -47q19 -25 26 -54q9 -36 9 -55z" />
<glyph unicode="&#xd4;" horiz-adv-x="1781" d="M1694 694q0 -308 -210 -522q-210 -215 -593 -215t-594 216q-211 215 -211 521t211 529t594 223q375 0 589 -220t214 -532zM1272 694q0 283 -82 468q-82 186 -299 186q-219 0 -300 -188t-81 -466q0 -285 81 -462t300 -177q217 0 299 178q82 177 82 461zM1305 1589 q0 -9 -8 -22q-9 -14 -15 -19q-2 -2 -16 -10q-7 -4 -17 -4q-7 0 -15 3t-13 7l-332 146l-332 -146q-7 -2 -14 -6t-15 -4t-16 3q-6 2 -18 11q-11 8 -17 20t-6 21q0 4 3 10l5 11l365 340q7 9 19 14q14 6 26 6q15 0 26 -6t17 -14l364 -340q4 -4 6 -9q3 -7 3 -12z" />
<glyph unicode="&#xd5;" horiz-adv-x="1781" d="M1331 1980q13 -6 24 -23t7 -38q-29 -187 -95 -256q-67 -70 -175 -53l-406 57q-63 8 -109 -18q-51 -28 -90 -103q-11 -18 -47 -5t-28 63q33 169 113 253q81 85 214 64l367 -57q65 -8 107 17q45 26 73 95q5 9 18 10q9 1 27 -6zM1694 694q0 -308 -210 -522 q-210 -215 -593 -215t-594 216q-211 215 -211 521t211 529t594 223q375 0 589 -220t214 -532zM1272 694q0 283 -82 468q-82 186 -299 186q-219 0 -300 -188t-81 -466q0 -285 81 -462t300 -177q217 0 299 178q82 177 82 461z" />
<glyph unicode="&#xd6;" horiz-adv-x="1781" d="M1694 694q0 -308 -210 -522q-210 -215 -593 -215t-594 216q-211 215 -211 521t211 529t594 223q375 0 589 -220t214 -532zM1272 694q0 283 -82 468q-82 186 -299 186q-219 0 -300 -188t-81 -466q0 -285 81 -462t300 -177q217 0 299 178q82 177 82 461zM1348 1743 q0 -75 -58 -133t-133 -58q-76 0 -134 58q-56 56 -56 133t56 133q57 57 134 57q76 0 133 -57q58 -58 58 -133zM831 1743q0 -76 -57 -133q-58 -58 -133 -58q-76 0 -134 58q-56 56 -56 133t56 133q57 57 134 57q76 0 133 -57t57 -133z" />
<glyph unicode="&#xd7;" horiz-adv-x="786" d="M694 246q0 -9 -13 -28q-15 -21 -24 -28q-13 -13 -28 -24q-17 -12 -25 -12q-2 0 -8 2l-4 2l-199 202l-198 -202l-5 -2q-6 -2 -8 -2q-9 0 -24 11q-22 16 -31 25q-12 12 -24 30q-11 16 -11 26l2 6l2 4l201 199l-201 198l-2 4q-2 6 -2 9q0 9 13 26q4 5 11.5 15l10.5 14 q8 8 29 22q20 13 26 13q5 0 8 -1q5 -2 5 -3l198 -201l199 201q0 2 4 3q3 1 8 1q6 0 26 -13q15 -10 27 -22q15 -15 25 -30q12 -18 12 -25q0 -3 -2 -9l-2 -4l-203 -198l203 -199l2 -4z" />
<glyph unicode="&#xd8;" horiz-adv-x="1781" d="M1221 1092l-99 -139q-138 -192 -215 -296q-27 -37 -102 -141.5t-113 -156.5l-98 -136q46 -83 115 -126q67 -42 182 -42q217 0 299 178q82 177 82 461q0 112 -12 217q-12 104 -39 181zM559 305l625 869q-44 83 -115 129q-69 45 -178 45q-219 0 -300 -188t-81 -466 q0 -135 10 -216q10 -84 39 -173zM401 86q-153 101 -234 259q-81 159 -81 349q0 306 211 529t594 223q122 0 228 -25q100 -24 192 -71l98 137q4 10 18 6t25 -12q8 -5 19 -18q7 -8 -1 -21l-27 -39q-18 -27 -67 -92q154 -103 236 -264t82 -353q0 -308 -210 -522 q-210 -215 -593 -215q-121 0 -227 24q-110 25 -195 68q-30 -42 -68 -95l-26 -38q-5 -10 -18 -8q-9 1 -25 14q-15 7 -20 18q-5 10 -1 19z" />
<glyph unicode="&#xd9;" horiz-adv-x="1703" d="M1702 1368q0 -8 -5 -28q-4 -17 -11 -17q-120 -12 -160 -49q-41 -38 -41 -123v-645q0 -222 -137 -386q-136 -163 -418 -163q-339 0 -517 151q-177 150 -177 463v580q0 83 -38 121q-36 36 -159 51q-7 2 -11 18q-5 18 -5 27q0 11 5 29q4 16 11 16q90 0 203 -5t196 -5 q81 0 196 5t202 5q7 0 11 -16q5 -18 5 -29q0 -8 -5 -28q-4 -17 -11 -17q-119 -12 -158 -51t-39 -121v-649q0 -208 78 -307t278 -99q182 0 270 115q87 114 87 315v625q0 84 -40 121q-39 36 -159 51q-7 2 -11 18q-5 18 -5 27q0 13 5 30q4 15 11 15q61 0 131 -5t135 -5t132 5 t135 5q7 0 11 -16q5 -18 5 -29zM1102 1597q0 -10 -5 -23q-3 -9 -10 -18q-10 -10 -22 -16q-16 -8 -21 -8h-8q-2 0 -4 2l-403 192q-26 11 -37 34q-12 24 -12 50q0 33 10 59q13 33 26 52q16 22 59 45t73 23q14 0 35 -7q18 -6 28 -20l285 -346q3 -3 4 -8q2 -8 2 -11z" />
<glyph unicode="&#xda;" horiz-adv-x="1703" d="M1702 1368q0 -8 -5 -28q-4 -17 -11 -17q-120 -12 -160 -49q-41 -38 -41 -123v-645q0 -222 -137 -386q-136 -163 -418 -163q-339 0 -517 151q-177 150 -177 463v580q0 83 -38 121q-36 36 -159 51q-7 2 -11 18q-5 18 -5 27q0 11 5 29q4 16 11 16q90 0 203 -5t196 -5 q81 0 196 5t202 5q7 0 11 -16q5 -18 5 -29q0 -8 -5 -28q-4 -17 -11 -17q-119 -12 -158 -51t-39 -121v-649q0 -208 78 -307t278 -99q182 0 270 115q87 114 87 315v625q0 84 -40 121q-39 36 -159 51q-7 2 -11 18q-5 18 -5 27q0 13 5 30q4 15 11 15q61 0 131 -5t135 -5t132 5 t135 5q7 0 11 -16q5 -18 5 -29zM1396 1812q0 -23 -11 -48q-10 -23 -34 -35l-406 -195q-3 0 -5 -1t-7 -1q-7 0 -21 7q-15 8 -22 17q-4 6 -9 18q-5 13 -5 21q0 3 2 11q1 2 2.5 5.5t1.5 4.5l290 346q7 10 27 19q19 8 35 8q32 0 70 -21q36 -20 57 -47q20 -27 27 -54q8 -32 8 -55 z" />
<glyph unicode="&#xdb;" horiz-adv-x="1703" d="M1702 1368q0 -8 -5 -28q-4 -17 -11 -17q-120 -12 -160 -49q-41 -38 -41 -123v-645q0 -222 -137 -386q-136 -163 -418 -163q-339 0 -517 151q-177 150 -177 463v580q0 83 -38 121q-36 36 -159 51q-7 2 -11 18q-5 18 -5 27q0 11 5 29q4 16 11 16q90 0 203 -5t196 -5 q81 0 196 5t202 5q7 0 11 -16q5 -18 5 -29q0 -8 -5 -28q-4 -17 -11 -17q-119 -12 -158 -51t-39 -121v-649q0 -208 78 -307t278 -99q182 0 270 115q87 114 87 315v625q0 84 -40 121q-39 36 -159 51q-7 2 -11 18q-5 18 -5 27q0 13 5 30q4 15 11 15q61 0 131 -5t135 -5t132 5 t135 5q7 0 11 -16q5 -18 5 -29zM1418 1589q0 -11 -7 -22q-9 -14 -15 -19q-2 -2 -5 -3.5t-6.5 -3.5t-5.5 -3q-7 -4 -16 -4q-7 0 -15 3q-10 4 -14 7l-332 146l-331 -146q-9 -2 -15 -6q-7 -4 -14 -4q-8 0 -16 3t-19 11q-9 7 -16 20q-6 12 -6 21q0 4 3 10l5 11l364 340 q6 8 20 14q13 6 25 6q16 0 27 -6t17 -14l364 -340q2 -2 5 -9t3 -12z" />
<glyph unicode="&#xdc;" horiz-adv-x="1703" d="M1702 1368q0 -8 -5 -28q-4 -17 -11 -17q-120 -12 -160 -49q-41 -38 -41 -123v-645q0 -222 -137 -386q-136 -163 -418 -163q-339 0 -517 151q-177 150 -177 463v580q0 83 -38 121q-36 36 -159 51q-7 2 -11 18q-5 18 -5 27q0 11 5 29q4 16 11 16q90 0 203 -5t196 -5 q81 0 196 5t202 5q7 0 11 -16q5 -18 5 -29q0 -8 -5 -28q-4 -17 -11 -17q-119 -12 -158 -51t-39 -121v-649q0 -208 78 -307t278 -99q182 0 270 115q87 114 87 315v625q0 84 -40 121q-39 36 -159 51q-7 2 -11 18q-5 18 -5 27q0 13 5 30q4 15 11 15q61 0 131 -5t135 -5t132 5 t135 5q7 0 11 -16q5 -18 5 -29zM1386 1743q0 -76 -57 -133q-58 -58 -133 -58q-76 0 -134 58q-56 56 -56 133t56 133q57 57 134 57q76 0 133 -57t57 -133zM870 1743q0 -76 -57 -133q-58 -58 -133 -58q-76 0 -134 58q-57 57 -57 133t57 133t134 57q76 0 133 -57t57 -133z" />
<glyph unicode="&#xdd;" horiz-adv-x="1595" d="M1665 1368q0 -9 -8 -28q-7 -17 -15 -17q-83 -7 -144 -47q-60 -39 -122 -125l-360 -522v-377q0 -81 31 -121q30 -39 149 -51q6 0 11 -18q5 -20 5 -27q0 -11 -5 -29q-4 -16 -11 -16q-90 0 -195 5t-188 5t-196 -5t-201 -5q-8 0 -12 15q-5 17 -5 30q0 8 5 26q5 17 12 19 q120 15 156 51q38 38 38 121v375l-331 524q-56 86 -112 123t-169 49q-7 2 -11 18q-5 18 -5 27q0 11 5 29q4 16 11 16q60 0 175 -5t183 -5q67 0 212 5t231 5q7 0 11 -15q5 -17 5 -30q0 -8 -5 -28q-4 -17 -11 -17q-73 -7 -105 -28q-30 -19 -30 -46q0 -21 12 -45q9 -19 31 -53 l260 -403l270 403q15 21 27 46q10 20 10 42q0 31 -29 52t-115 32q-7 2 -8 18q-2 22 -2 27q0 13 5 30q5 15 12 15q82 0 145 -5t141 -5q59 0 117 5t109 5q7 0 11 -16q5 -18 5 -29zM1379 1812q0 -25 -10 -48q-10 -22 -35 -35l-405 -195q-3 0 -5 -1t-8 -1t-20 7q-17 8 -23 17 q-5 6 -9 18q-5 13 -5 21q0 3 2 11q1 2 2.5 5.5t1.5 4.5l291 346q7 10 27 19q19 8 35 8q32 0 69 -21q38 -21 58 -47q19 -25 26 -54q8 -32 8 -55z" />
<glyph unicode="&#xde;" horiz-adv-x="1513" d="M1444 711q0 -197 -163 -305q-165 -109 -452 -109q-43 0 -74 4q-35 5 -69 12v-61q0 -82 39 -121t158 -51q7 0 11 -18q5 -20 5 -27q0 -11 -5 -29q-4 -16 -11 -16q-90 0 -203 5t-197 5q-82 0 -195 -5t-202 -5q-6 0 -11 15q-5 17 -5 30q0 8 5 26q5 17 11 19q121 15 157 51 q38 38 38 121v899q0 83 -38 121q-36 36 -157 51q-7 2 -11 18q-5 18 -5 27q0 13 5 30q5 15 11 15q89 0 202 -5t195 -5q84 0 197 5t203 5q7 0 11 -16q5 -18 5 -29q0 -8 -5 -28q-4 -17 -11 -17q-119 -12 -158 -51t-39 -121v-16l75 3q25 1 73 1q332 0 471 -111t139 -317z M1022 739q0 180 -55 239q-55 60 -158 60q-65 0 -94 -30q-29 -31 -29 -99v-438q0 -47 42 -60q44 -14 58 -14q123 0 180 81q56 80 56 261z" />
<glyph unicode="&#xdf;" horiz-adv-x="1419" d="M1354 434q0 -182 -126 -329q-125 -146 -335 -146q-99 0 -159 61t-60 154q0 70 39 117t94 47q44 0 75 -28q29 -26 29 -70q0 -55 -38 -66q-37 -10 -37 -47q0 -28 14 -48q16 -22 35 -22q13 0 40 10q24 9 36 37q17 38 28 98q10 54 10 199q0 169 -75 297q-77 131 -232 131 q-6 0 -11 18q-5 20 -5 27q0 13 5 30q5 16 11 16q108 0 165 61q56 60 56 170q0 113 -36 166q-37 55 -109 55q-86 0 -151 -73q-64 -71 -64 -224v-856q0 -75 24 -105t64 -34q7 0 11 -18q5 -20 5 -27q0 -13 -5 -30q-4 -15 -11 -15q-57 0 -127 5t-135 5q-63 0 -161 -5t-152 -5 q-8 0 -12 16q-5 18 -5 29q0 8 5 26q5 17 12 19q91 10 115 40t24 132v473q0 10 -6 19q-7 10 -19 10h-112q-9 0 -15 17q-6 18 -6 26t6 26q6 19 13 21q35 8 86 24q53 17 53 33q0 239 161 409q160 169 404 169q206 0 332 -97q125 -96 125 -208q0 -113 -69 -182t-240 -103 q225 -34 330 -164q106 -130 106 -291z" />
<glyph unicode="&#xe0;" horiz-adv-x="1093" d="M1120 88q-2 -8 -2 -10q0 -4 -6 -8q-40 -46 -121 -74q-84 -29 -168 -29q-83 0 -136 38q-52 37 -69 101q-45 -69 -119 -105q-71 -34 -180 -34q-115 0 -197 53q-81 52 -81 162q0 121 133 197q132 76 447 145l6 201q0 62 -19 84q-17 20 -61 20t-79 -16t-40 -68 q-11 -128 -53 -176q-43 -49 -127 -49q-75 0 -116 44q-40 43 -40 106q0 102 167 188t374 86q188 0 257 -94q68 -93 62 -256l-10 -356q-4 -72 21 -94q24 -21 47 -21q18 0 34 6q18 7 29 16q8 6 28 -15q19 -20 19 -42zM616 449q-122 -29 -174 -78q-53 -50 -53 -142q0 -51 28 -82 q27 -30 77 -30q40 0 74 25t42 98zM667 1151q0 -12 -4 -23t-11 -16q-8 -10 -20 -16q-18 -9 -21 -9t-7 2l-3 1l-385 184q-26 13 -35 33q-10 21 -10 47q0 27 10 55q7 21 25 49q17 24 55 45q39 21 68 21q18 0 33 -6q14 -6 26 -19l272 -330q4 -4 5 -8q2 -8 2 -10z" />
<glyph unicode="&#xe1;" horiz-adv-x="1093" d="M1120 88q-2 -8 -2 -10q0 -4 -6 -8q-40 -46 -121 -74q-84 -29 -168 -29q-83 0 -136 38q-52 37 -69 101q-45 -69 -119 -105q-71 -34 -180 -34q-115 0 -197 53q-81 52 -81 162q0 121 133 197q132 76 447 145l6 201q0 62 -19 84q-17 20 -61 20t-79 -16t-40 -68 q-11 -128 -53 -176q-43 -49 -127 -49q-75 0 -116 44q-40 43 -40 106q0 102 167 188t374 86q188 0 257 -94q68 -93 62 -256l-10 -356q-4 -72 21 -94q24 -21 47 -21q18 0 34 6q18 7 29 16q8 6 28 -15q19 -20 19 -42zM616 449q-122 -29 -174 -78q-53 -50 -53 -142q0 -51 28 -82 q27 -30 77 -30q40 0 74 25t42 98zM971 1356q0 -20 -12 -46q-12 -25 -31 -34l-387 -184q-1 0 -2 -1l-2 -2q-2 -2 -9 -2l-6 3q-6 2 -12 6q-1 1 -5 3.5t-6 4.5q-2 1 -5.5 3.5t-4.5 4.5q-5 7 -9 16q-5 12 -5 21q0 2 2 10q1 5 4 8l277 330q8 11 26 19t31 8q28 0 66 -20 q37 -19 55 -46q17 -26 25 -52q10 -33 10 -50z" />
<glyph unicode="&#xe2;" horiz-adv-x="1093" d="M1120 88q-2 -8 -2 -10q0 -4 -6 -8q-40 -46 -121 -74q-84 -29 -168 -29q-83 0 -136 38q-52 37 -69 101q-45 -69 -119 -105q-71 -34 -180 -34q-115 0 -197 53q-81 52 -81 162q0 121 133 197q132 76 447 145l6 201q0 62 -19 84q-17 20 -61 20t-79 -16t-40 -68 q-11 -128 -53 -176q-43 -49 -127 -49q-75 0 -116 44q-40 43 -40 106q0 102 167 188t374 86q188 0 257 -94q68 -93 62 -256l-10 -356q-4 -72 21 -94q24 -21 47 -21q18 0 34 6q18 7 29 16q8 6 28 -15q19 -20 19 -42zM616 449q-122 -29 -174 -78q-53 -50 -53 -142q0 -51 28 -82 q27 -30 77 -30q40 0 74 25t42 98zM907 1149q0 -10 -7 -21q-8 -12 -15 -18q-2 -2 -5 -3.5t-6.5 -3.5t-5.5 -3q-7 -4 -14 -4q-6 0 -14 3q-12 5 -15 7l-252 156l-254 -156q-8 -5 -13 -7q-9 -3 -15 -3q-7 0 -14 3t-17 11q-10 7 -16 19t-6 20t2 12t6 8l284 340q11 11 20 14 q15 5 23 5q11 0 24 -5q8 -3 17 -14l285 -340q4 -4 6 -8t2 -12z" />
<glyph unicode="&#xe3;" horiz-adv-x="1093" d="M1120 88q-2 -8 -2 -10q0 -4 -6 -8q-40 -46 -121 -74q-84 -29 -168 -29q-83 0 -136 38q-52 37 -69 101q-45 -69 -119 -105q-71 -34 -180 -34q-115 0 -197 53q-81 52 -81 162q0 121 133 197q132 76 447 145l6 201q0 62 -19 84q-17 20 -61 20t-79 -16t-40 -68 q-11 -128 -53 -176q-43 -49 -127 -49q-75 0 -116 44q-40 43 -40 106q0 102 167 188t374 86q188 0 257 -94q68 -93 62 -256l-10 -356q-4 -72 21 -94q24 -21 47 -21q18 0 34 6q18 7 29 16q8 6 28 -15q19 -20 19 -42zM616 449q-122 -29 -174 -78q-53 -50 -53 -142q0 -51 28 -82 q27 -30 77 -30q40 0 74 25t42 98zM963 1450q-28 -182 -93 -244q-63 -60 -163 -51l-277 27q-65 6 -111 -25q-43 -29 -77 -90q-2 -5 -6 -6q-6 -2 -13 -2q-22 0 -40 14q-19 15 -13 49q28 151 101 234q72 82 210 67l238 -26q75 -8 111 21q39 31 61 87q1 4 8 6q8 2 12 2 q18 0 37 -16q20 -17 15 -47z" />
<glyph unicode="&#xe4;" horiz-adv-x="1093" d="M1120 88q-2 -8 -2 -10q0 -4 -6 -8q-40 -46 -121 -74q-84 -29 -168 -29q-83 0 -136 38q-52 37 -69 101q-45 -69 -119 -105q-71 -34 -180 -34q-115 0 -197 53q-81 52 -81 162q0 121 133 197q132 76 447 145l6 201q0 62 -19 84q-17 20 -61 20t-79 -16t-40 -68 q-11 -128 -53 -176q-43 -49 -127 -49q-75 0 -116 44q-40 43 -40 106q0 102 167 188t374 86q188 0 257 -94q68 -93 62 -256l-10 -356q-4 -72 21 -94q24 -21 47 -21q18 0 34 6q18 7 29 16q8 6 28 -15q19 -20 19 -42zM616 449q-122 -29 -174 -78q-53 -50 -53 -142q0 -51 28 -82 q27 -30 77 -30q40 0 74 25t42 98zM976 1227q0 -74 -53 -127t-127 -53q-73 0 -123 53q-49 52 -49 127t49 128q49 54 123 54t127 -54q53 -55 53 -128zM525 1227q0 -72 -57 -126t-133 -54q-73 0 -128 53q-54 52 -54 127q0 74 54 128t128 54t132 -55t58 -127z" />
<glyph unicode="&#xe5;" horiz-adv-x="1093" d="M1120 88q-2 -8 -2 -10q0 -4 -6 -8q-40 -46 -121 -74q-84 -29 -168 -29q-83 0 -136 38q-52 37 -69 101q-45 -69 -119 -105q-71 -34 -180 -34q-115 0 -197 53q-81 52 -81 162q0 121 133 197q132 76 447 145l6 201q0 62 -19 84q-17 20 -61 20t-79 -16t-40 -68 q-11 -128 -53 -176q-43 -49 -127 -49q-75 0 -116 44q-40 43 -40 106q0 102 167 188t374 86q188 0 257 -94q68 -93 62 -256l-10 -356q-4 -72 21 -94q24 -21 47 -21q18 0 34 6q18 7 29 16q8 6 28 -15q19 -20 19 -42zM616 449q-122 -29 -174 -78q-53 -50 -53 -142q0 -51 28 -82 q27 -30 77 -30q40 0 74 25t42 98zM816 1260q0 -88 -63 -156t-170 -68q-103 0 -169 69q-67 70 -67 155q0 84 67 153q66 68 169 68q101 0 167 -68q66 -67 66 -153zM706 1260q0 58 -34 96q-34 39 -89 39q-49 0 -86 -39q-37 -38 -37 -96q0 -59 35 -99q35 -39 88 -39t88 39 q35 40 35 99z" />
<glyph unicode="&#xe6;" horiz-adv-x="1628" d="M1573 582q0 -15 -11 -25q-12 -11 -26 -12l-545 -86q-1 -11 -3 -15q-1 -3 -1 -18q0 -172 57 -240q57 -67 162 -67q76 0 166 37q94 39 133 92q2 5 13 -3q5 -3 18 -14q10 -10 17 -21q8 -13 8 -22v-8q0 -3 -5 -8q-59 -81 -146 -147t-275 -66q-145 0 -254 65q-108 65 -164 173 q-40 -121 -130 -180q-88 -58 -233 -58q-148 0 -231 54q-82 54 -82 161q0 124 117 200q116 76 463 142l6 201q0 62 -19 84q-17 20 -61 20q-39 0 -77 -18q-37 -18 -42 -66q-11 -124 -52 -174q-42 -51 -128 -51q-75 0 -116 44q-40 43 -40 106q0 103 166 188q167 86 346 86 q104 0 152 -25q46 -24 86 -94q61 56 144 87q87 32 165 32q190 0 297 -103q108 -103 123 -212q0 -14 1 -21t1 -18zM1243 678q0 61 -23 110q-24 52 -77 52q-65 0 -99 -82t-45 -207l158 29q51 11 68 32q18 22 18 66zM616 432q-126 -24 -176 -74q-49 -49 -49 -137q0 -52 27 -82 t76 -30q40 0 74 25q35 26 42 97z" />
<glyph unicode="&#xe7;" horiz-adv-x="1067" d="M1020 692q0 -54 -35 -101q-34 -46 -102 -46q-79 0 -110 45t-48 102t-37 100q-22 48 -80 48q-80 0 -126 -75q-46 -74 -46 -298q0 -156 45 -252t191 -96q78 0 159 32t121 72q2 5 14 -3q10 -6 17 -15q9 -9 17 -22t8 -19q0 -5 -1 -8l-3 -9q-55 -78 -166 -133 q-110 -55 -250 -55q-208 0 -365 133t-157 359q0 225 156 355q155 130 386 130q151 0 282 -71q130 -70 130 -173zM764 -291q0 -86 -88 -135t-174 -49q-77 0 -112 25q-36 26 -36 57q0 25 15 44t47 19q38 0 67 -30q29 -31 62 -31q25 0 36 14t11 51q0 38 -45 69q-48 34 -82 50 q-8 5 -14 12q-7 9 -7 19q0 3 2 9q0 2 2 5t3 4l127 187h114l-57 -101q-3 -3 -5 -9q-1 -3 -1 -9q0 -8 4 -15q6 -10 16 -16q49 -30 82 -64q33 -35 33 -106z" />
<glyph unicode="&#xe8;" horiz-adv-x="1103" d="M1049 539q0 -15 -11 -23t-28 -8h-566q-2 -20 -2 -38v-44q0 -172 57 -240q57 -67 163 -67q75 0 165 37q95 39 134 92q1 4 12 -3q5 -3 18 -14q13 -13 18 -21q7 -11 7 -22q0 -5 -1 -8q-1 -5 -5 -8q-51 -74 -152 -143q-102 -70 -268 -70q-219 0 -369 141q-149 140 -149 334 q0 218 142 360t376 142q212 0 336 -115q123 -114 123 -282zM709 692q0 60 -28 105q-27 43 -83 43q-67 0 -100 -66q-32 -65 -43 -172l168 4q42 1 65 18q21 15 21 68zM711 1151q0 -12 -4 -23t-11 -16q-8 -10 -20 -16q-18 -9 -21 -9t-7 2l-3 1l-385 184q-26 13 -35 33 q-10 21 -10 47q0 27 10 55q7 21 25 49q17 24 55 45q39 21 68 21q18 0 33 -6q14 -6 26 -19l273 -330q3 -3 4 -8q2 -8 2 -10z" />
<glyph unicode="&#xe9;" horiz-adv-x="1103" d="M1049 539q0 -15 -11 -23t-28 -8h-566q-2 -20 -2 -38v-44q0 -172 57 -240q57 -67 163 -67q75 0 165 37q95 39 134 92q1 4 12 -3q5 -3 18 -14q13 -13 18 -21q7 -11 7 -22q0 -5 -1 -8q-1 -5 -5 -8q-51 -74 -152 -143q-102 -70 -268 -70q-219 0 -369 141q-149 140 -149 334 q0 218 142 360t376 142q212 0 336 -115q123 -114 123 -282zM709 692q0 60 -28 105q-27 43 -83 43q-67 0 -100 -66q-32 -65 -43 -172l168 4q42 1 65 18q21 15 21 68zM942 1356q0 -20 -12 -46q-12 -25 -31 -34l-387 -184q-1 -1 -4 -3q-2 -2 -8 -2l-6 3q-8 2 -13 6q-1 1 -5 3.5 t-6 4.5q-2 1 -5 3.5t-4 4.5q-5 7 -9 16q-6 14 -6 21q0 2 2 10q1 4 5 8l276 330q8 11 26 19t31 8q28 0 66 -20q37 -19 55 -46q17 -26 25 -52q10 -33 10 -50z" />
<glyph unicode="&#xea;" horiz-adv-x="1103" d="M1049 539q0 -15 -11 -23t-28 -8h-566q-2 -20 -2 -38v-44q0 -172 57 -240q57 -67 163 -67q75 0 165 37q95 39 134 92q1 4 12 -3q5 -3 18 -14q13 -13 18 -21q7 -11 7 -22q0 -5 -1 -8q-1 -5 -5 -8q-51 -74 -152 -143q-102 -70 -268 -70q-219 0 -369 141q-149 140 -149 334 q0 218 142 360t376 142q212 0 336 -115q123 -114 123 -282zM709 692q0 60 -28 105q-27 43 -83 43q-67 0 -100 -66q-32 -65 -43 -172l168 4q42 1 65 18q21 15 21 68zM962 1149q0 -8 -8 -21q-8 -12 -15 -18q-2 -2 -16 -10q-7 -4 -15 -4q-6 0 -14 3q-10 4 -14 7l-252 156 l-254 -156q-7 -5 -14 -7q-9 -3 -15 -3q-7 0 -14 3t-17 11q-10 7 -16 19t-6 20t2 12t6 8l285 340q11 11 20 14q15 5 23 5q10 0 23 -5q10 -4 18 -14l284 -340q4 -4 6 -8q3 -6 3 -12z" />
<glyph unicode="&#xeb;" horiz-adv-x="1103" d="M1049 539q0 -15 -11 -23t-28 -8h-566q-2 -20 -2 -38v-44q0 -172 57 -240q57 -67 163 -67q75 0 165 37q95 39 134 92q1 4 12 -3q5 -3 18 -14q13 -13 18 -21q7 -11 7 -22q0 -5 -1 -8q-1 -5 -5 -8q-51 -74 -152 -143q-102 -70 -268 -70q-219 0 -369 141q-149 140 -149 334 q0 218 142 360t376 142q212 0 336 -115q123 -114 123 -282zM709 692q0 60 -28 105q-27 43 -83 43q-67 0 -100 -66q-32 -65 -43 -172l168 4q42 1 65 18q21 15 21 68zM1000 1227q0 -74 -53 -127t-127 -53q-73 0 -123 53q-49 52 -49 127t49 128q49 54 123 54t127 -54 q53 -55 53 -128zM550 1227q0 -72 -57 -126t-134 -54q-73 0 -128 53q-54 52 -54 127q0 74 54 128t128 54q75 0 133 -55t58 -127z" />
<glyph unicode="&#xec;" horiz-adv-x="673" d="M690 35q0 -11 -5 -29q-4 -16 -11 -16q-54 0 -159 5t-167 5q-60 0 -153 -5t-146 -5q-7 0 -11 16q-5 18 -5 29q0 8 5 26q5 17 11 19q76 7 108 41q31 32 31 131v307q0 83 -31 107q-32 25 -108 32q-6 2 -11 18q-5 17 -5 25q0 9 5 27q4 16 11 16q100 21 221 67q130 49 191 79 q6 4 20 10q15 6 25 6q23 0 36 -8q11 -7 9 -18q-2 -26 -5 -85.5t-5 -89.5q-6 -102 -6 -172v-321q0 -98 32 -131q33 -35 107 -41q6 0 11 -18q5 -20 5 -27zM562 1151q0 -12 -4 -23q-4 -12 -10 -16q-7 -9 -21 -16q-18 -9 -20 -9q-3 0 -7 2l-3 1l-385 184q-26 13 -35 33 q-10 21 -10 47q0 30 9 55q7 21 25 49q16 24 56 45q39 21 67 21q19 0 34 -6q14 -6 26 -19l272 -330q4 -4 5 -8t1 -10z" />
<glyph unicode="&#xed;" horiz-adv-x="673" d="M690 35q0 -11 -5 -29q-4 -16 -11 -16q-54 0 -159 5t-167 5q-60 0 -153 -5t-146 -5q-7 0 -11 16q-5 18 -5 29q0 8 5 26q5 17 11 19q76 7 108 41q31 32 31 131v307q0 83 -31 107q-32 25 -108 32q-6 2 -11 18q-5 17 -5 25q0 9 5 27q4 16 11 16q100 21 221 67q130 49 191 79 q6 4 20 10q15 6 25 6q23 0 36 -8q11 -7 9 -18q-2 -26 -5 -85.5t-5 -89.5q-6 -102 -6 -172v-321q0 -98 32 -131q33 -35 107 -41q6 0 11 -18q5 -20 5 -27zM718 1356q0 -20 -12 -46q-12 -25 -31 -34l-387 -184l-2 -1q-2 -1 -2 -2q-2 -2 -9 -2l-6 3q-6 2 -12 6q-1 1 -5 3.5 t-6 4.5q-1 1 -4 3.5t-5 4.5q-7 10 -10 16q-5 12 -5 21q0 2 2 10q1 5 4 8l277 330q8 11 26 19t31 8q28 0 66 -20q37 -19 55 -46q17 -26 25 -52q10 -33 10 -50z" />
<glyph unicode="&#xee;" horiz-adv-x="673" d="M690 35q0 -11 -5 -29q-4 -16 -11 -16q-54 0 -159 5t-167 5q-60 0 -153 -5t-146 -5q-7 0 -11 16q-5 18 -5 29q0 8 5 26q5 17 11 19q76 7 108 41q31 32 31 131v307q0 83 -31 107q-32 25 -108 32q-6 2 -11 18q-5 17 -5 25q0 9 5 27q4 16 11 16q100 21 221 67q130 49 191 79 q6 4 20 10q15 6 25 6q23 0 36 -8q11 -7 9 -18q-2 -26 -5 -85.5t-5 -89.5q-6 -102 -6 -172v-321q0 -98 32 -131q33 -35 107 -41q6 0 11 -18q5 -20 5 -27zM696 1149q0 -10 -7 -21q-7 -12 -15 -18q-2 -2 -5 -3.5t-6.5 -3.5t-5.5 -3q-7 -4 -14 -4t-14 3q-12 5 -15 7l-252 156 l-253 -156q-7 -5 -14 -7q-9 -3 -15 -3t-14 3q-7 3 -17 11q-10 7 -16 19t-6 20t2 12t6 8l284 340q11 11 20 14q15 5 23 5q11 0 24 -5q8 -3 17 -14l285 -340q4 -4 6 -8t2 -12z" />
<glyph unicode="&#xef;" horiz-adv-x="673" d="M690 35q0 -11 -5 -29q-4 -16 -11 -16q-54 0 -159 5t-167 5q-60 0 -153 -5t-146 -5q-7 0 -11 16q-5 18 -5 29q0 8 5 26q5 17 11 19q76 7 108 41q31 32 31 131v307q0 83 -31 107q-32 25 -108 32q-6 2 -11 18q-5 17 -5 25q0 9 5 27q4 16 11 16q100 21 221 67q130 49 191 79 q6 4 20 10q15 6 25 6q23 0 36 -8q11 -7 9 -18q-2 -26 -5 -85.5t-5 -89.5q-6 -102 -6 -172v-321q0 -98 32 -131q33 -35 107 -41q6 0 11 -18q5 -20 5 -27zM774 1227q0 -74 -53 -127t-127 -53q-73 0 -123 53q-49 52 -49 127t49 128q49 54 123 54t127 -54q53 -55 53 -128z M324 1227q0 -71 -58 -126q-57 -54 -133 -54q-73 0 -128 53q-54 52 -54 127q0 74 54 128t128 54t132 -55q59 -56 59 -127z" />
<glyph unicode="&#xf0;" horiz-adv-x="1214" d="M1151 551q0 -291 -142 -442q-143 -152 -434 -152q-243 0 -376 138q-133 137 -133 323q0 235 153 376q152 140 406 140q34 0 59 -7q10 -3 47 -16q-40 88 -55 118q-24 47 -60 97l-227 -133l-6 -2q-1 0 -3 -1t-3 -1q-12 0 -24 11t-25 30q-12 20 -13 31q-2 16 -2 24q0 7 3 11 l8 8l213 123q-39 41 -96 87q-49 40 -117 87q-6 5 -5 20q1 14 7 27q5 12 15 22q13 13 17 13q103 -32 189 -71q77 -35 158 -89l213 125l4 2l6 2q9 0 24 -12q13 -11 25 -29q10 -18 12 -31q2 -16 2 -24q0 -5 -2 -11q-2 -7 -8 -8l-170 -96q171 -146 256 -331q84 -183 84 -359z M778 440q0 204 -21 299t-124 95q-105 0 -150 -101t-45 -315q0 -186 43 -275q43 -90 115 -90q108 0 145 96q37 95 37 291z" />
<glyph unicode="&#xf1;" d="M1317 33q0 -11 -5 -29q-4 -16 -12 -16q-64 0 -146 6t-155 6q-70 0 -137 -6q-68 -6 -129 -6q-7 0 -11 16q-5 18 -5 29q0 10 5 27q5 16 11 18q41 6 62 40q20 33 20 132v325q0 104 -23 146q-24 43 -96 43q-59 0 -96 -40q-36 -39 -74 -128v-346q0 -89 20 -129q19 -38 60 -43 q6 0 11 -16q6 -20 6 -29q0 -10 -6 -30q-4 -15 -11 -15q-63 0 -129 6t-137 6q-72 0 -155 -6t-144 -6q-7 0 -11 15q-5 17 -5 30q0 11 5 28q5 15 11 17q90 12 114 42q23 29 23 130v321q0 86 -18 110q-18 25 -94 32q-8 0 -12 16q-5 18 -5 27q0 8 5 25q5 16 12 16q75 19 191 64 q124 47 179 75q5 3 21 10q15 6 24 6q24 0 36 -9q11 -8 9 -17l-8 -197q41 101 130 154t188 53q154 0 239 -96q86 -97 86 -215v-375q0 -97 25 -130q24 -32 114 -42q8 0 12 -18q5 -20 5 -27zM1062 1450q-28 -183 -92 -244q-63 -60 -164 -51l-277 27q-64 6 -110 -25 q-45 -30 -78 -90q-1 -5 -6 -6q-6 -2 -12 -2q-22 0 -40 14q-20 15 -14 49q28 149 102 234q72 82 210 67l237 -26q76 -8 112 21q38 30 60 87q1 4 8 6q8 2 13 2q17 0 36 -16q20 -17 15 -47z" />
<glyph unicode="&#xf2;" horiz-adv-x="1218" d="M1153 440q0 -195 -138 -339t-405 -144q-264 0 -404 143t-140 340q0 196 139 345q140 151 405 151q261 0 402 -149t141 -347zM780 442q0 200 -32 296q-33 100 -138 100q-104 0 -138 -102q-34 -101 -34 -294q0 -199 34 -292q35 -95 138 -95q101 0 136 96q34 93 34 291z M720 1151q0 -12 -4 -23q-4 -12 -10 -16q-7 -9 -21 -16q-18 -9 -20 -9q-4 0 -8 2l-3 1l-385 184q-26 13 -35 33q-10 21 -10 47q0 27 10 55q7 21 25 49q17 24 55 45q39 21 68 21q18 0 33 -6q14 -6 26 -19l273 -330q3 -3 4 -8q2 -8 2 -10z" />
<glyph unicode="&#xf3;" horiz-adv-x="1218" d="M1153 440q0 -195 -138 -339t-405 -144q-264 0 -404 143t-140 340q0 196 139 345q140 151 405 151q261 0 402 -149t141 -347zM780 442q0 200 -32 296q-33 100 -138 100q-104 0 -138 -102q-34 -101 -34 -294q0 -199 34 -292q35 -95 138 -95q101 0 136 96q34 93 34 291z M1020 1356q0 -20 -12 -46q-12 -25 -31 -34l-387 -184q-1 -1 -4 -3q-2 -2 -8 -2l-7 3q-6 2 -12 6q-1 1 -5 3.5t-6 4.5q-2 1 -5 3.5t-4 4.5q-7 10 -10 16q-5 12 -5 21q0 2 2 10q1 5 4 8l277 330q8 11 26 19t31 8q28 0 66 -20q37 -19 55 -46q17 -26 25 -52q10 -33 10 -50z" />
<glyph unicode="&#xf4;" horiz-adv-x="1218" d="M1153 440q0 -195 -138 -339t-405 -144q-264 0 -404 143t-140 340q0 196 139 345q140 151 405 151q261 0 402 -149t141 -347zM780 442q0 200 -32 296q-33 100 -138 100q-104 0 -138 -102q-34 -101 -34 -294q0 -199 34 -292q35 -95 138 -95q101 0 136 96q34 93 34 291z M944 1149q0 -10 -7 -21q-7 -12 -15 -18q-2 -2 -5 -3.5t-6.5 -3.5t-5.5 -3q-7 -4 -14 -4t-14 3q-12 5 -15 7l-252 156l-254 -156q-8 -5 -13 -7q-9 -3 -15 -3t-14 3q-7 3 -17 11q-10 7 -16 19q-7 14 -7 20t3 12q2 4 6 8l284 340q11 11 20 14q15 5 23 5q11 0 24 -5q8 -3 17 -14 l285 -340q4 -4 6 -8t2 -12z" />
<glyph unicode="&#xf5;" horiz-adv-x="1218" d="M1153 440q0 -195 -138 -339t-405 -144q-264 0 -404 143t-140 340q0 196 139 345q140 151 405 151q261 0 402 -149t141 -347zM780 442q0 200 -32 296q-33 100 -138 100q-104 0 -138 -102q-34 -101 -34 -294q0 -199 34 -292q35 -95 138 -95q101 0 136 96q34 93 34 291z M1011 1450q-28 -183 -92 -244q-63 -60 -164 -51l-277 27q-64 6 -110 -25q-45 -30 -78 -90q-2 -5 -6 -6q-6 -2 -13 -2q-22 0 -40 14q-19 15 -13 49q28 151 101 234q72 82 210 67l238 -26q76 -8 112 21q37 30 60 87q1 4 8 6q8 2 12 2q18 0 37 -16q20 -17 15 -47z" />
<glyph unicode="&#xf6;" horiz-adv-x="1218" d="M1153 440q0 -195 -138 -339t-405 -144q-264 0 -404 143t-140 340q0 196 139 345q140 151 405 151q261 0 402 -149t141 -347zM780 442q0 200 -32 296q-33 100 -138 100q-104 0 -138 -102q-34 -101 -34 -294q0 -199 34 -292q35 -95 138 -95q101 0 136 96q34 93 34 291z M1025 1227q0 -74 -53 -127t-127 -53q-73 0 -123 53q-49 52 -49 127t49 128q50 54 123 54q75 0 127 -54q53 -55 53 -128zM574 1227q0 -72 -57 -126t-133 -54q-73 0 -128 53q-54 52 -54 127q0 74 54 128t128 54t132 -55t58 -127z" />
<glyph unicode="&#xf7;" horiz-adv-x="804" d="M492 707q0 -37 -27 -63q-28 -26 -64 -26q-33 0 -61 26q-27 26 -27 63t27 62q28 26 61 26q36 0 64 -26q27 -25 27 -62zM764 455q0 -30 -6 -51t-21 -21h-671q-13 0 -19 24t-6 48q0 26 7 48q7 23 18 23h673q11 0 18 -23q7 -22 7 -48zM492 203q0 -35 -27 -62q-26 -26 -64 -26 q-35 0 -61 26q-27 27 -27 62q0 36 27 62q28 26 61 26q36 0 64 -26q27 -26 27 -62z" />
<glyph unicode="&#xf8;" horiz-adv-x="1218" d="M774 606l-49 -68q-18 -25 -53 -75t-51 -72q-78 -109 -113 -158l-43 -61q18 -60 52 -88q35 -29 93 -29q101 0 136 96q34 93 34 291q0 51 -1 80q-2 57 -5 84zM444 279l312 434q-17 60 -54 93q-35 32 -92 32q-104 0 -138 -102q-34 -101 -34 -294q0 -40 2 -94 q1 -16 2.5 -40.5t1.5 -28.5zM276 43q-104 67 -157 171t-53 226q0 196 139 345q140 151 405 151q74 0 140 -13q73 -14 127 -40l65 92q4 10 19 6q12 -4 24 -12q10 -7 20 -18q7 -8 -1 -21l-18 -25q-13 -18 -42 -59q104 -69 156 -177q53 -111 53 -229q0 -195 -138 -339 t-405 -144q-78 0 -142 13q-65 13 -122 38q-24 -34 -45 -63l-20 -29q-5 -10 -18 -8q-9 1 -25 14q-15 7 -20 18q-5 10 -1 19z" />
<glyph unicode="&#xf9;" d="M1280 82q0 -14 -5 -27q-5 -12 -11 -12q-59 -6 -187 -29q-124 -23 -188 -43q-4 0 -21 -5t-28 -5q-17 0 -26 9t-9 16l-10 143q-46 -84 -125 -126q-78 -42 -189 -42q-159 0 -245 92t-86 260v330q0 92 -32 122q-31 30 -114 28q-7 0 -11 14q-5 17 -5 29t5 30q5 17 11 17 q79 0 219 14q150 15 228 33q18 6 32 -8q15 -15 15 -21v-629q0 -80 33 -119q34 -40 104 -40q49 0 88 39t63 100v391q0 89 -31 120q-32 32 -116 30q-7 0 -11 15q-5 17 -5 28q0 12 5 30q5 17 11 17q67 0 219 12q144 11 229 31q19 6 32 -8q14 -16 14 -21v-625q0 -89 23 -113 q25 -26 108 -32q7 0 11 -17q5 -20 5 -28zM744 1151q0 -12 -4 -23q-4 -12 -10 -16q-8 -10 -20 -16q-18 -9 -21 -9t-7 2l-3 1l-385 184q-26 13 -35 33q-10 21 -10 47q0 27 10 55q7 21 25 49q17 24 55 45q39 21 68 21q18 0 33 -6q14 -6 26 -19l272 -330q4 -4 5 -8t1 -10z" />
<glyph unicode="&#xfa;" d="M1280 82q0 -14 -5 -27q-5 -12 -11 -12q-59 -6 -187 -29q-124 -23 -188 -43q-4 0 -21 -5t-28 -5q-17 0 -26 9t-9 16l-10 143q-46 -84 -125 -126q-78 -42 -189 -42q-159 0 -245 92t-86 260v330q0 92 -32 122q-31 30 -114 28q-7 0 -11 14q-5 17 -5 29t5 30q5 17 11 17 q79 0 219 14q150 15 228 33q18 6 32 -8q15 -15 15 -21v-629q0 -80 33 -119q34 -40 104 -40q49 0 88 39t63 100v391q0 89 -31 120q-32 32 -116 30q-7 0 -11 15q-5 17 -5 28q0 12 5 30q5 17 11 17q67 0 219 12q144 11 229 31q19 6 32 -8q14 -16 14 -21v-625q0 -89 23 -113 q25 -26 108 -32q7 0 11 -17q5 -20 5 -28zM1014 1356q0 -20 -12 -46q-12 -25 -31 -34l-387 -184q-1 -1 -4 -3q-2 -2 -9 -2l-6 3q-6 2 -12 6q-1 1 -5 3.5t-6 4.5q-1 1 -4.5 3.5t-5.5 4.5q-5 7 -9 16q-5 12 -5 21q0 2 2 10q1 5 4 8l277 330q8 11 26 19t31 8q28 0 66 -20 q37 -19 55 -46q17 -26 25 -52q10 -33 10 -50z" />
<glyph unicode="&#xfb;" d="M1280 82q0 -14 -5 -27q-5 -12 -11 -12q-59 -6 -187 -29q-124 -23 -188 -43q-4 0 -21 -5t-28 -5q-17 0 -26 9t-9 16l-10 143q-46 -84 -125 -126q-78 -42 -189 -42q-159 0 -245 92t-86 260v330q0 92 -32 122q-31 30 -114 28q-7 0 -11 14q-5 17 -5 29t5 30q5 17 11 17 q79 0 219 14q150 15 228 33q18 6 32 -8q15 -15 15 -21v-629q0 -80 33 -119q34 -40 104 -40q49 0 88 39t63 100v391q0 89 -31 120q-32 32 -116 30q-7 0 -11 15q-5 17 -5 28q0 12 5 30q5 17 11 17q67 0 219 12q144 11 229 31q19 6 32 -8q14 -16 14 -21v-625q0 -89 23 -113 q25 -26 108 -32q7 0 11 -17q5 -20 5 -28zM963 1149q0 -8 -8 -21q-7 -12 -15 -18q-2 -2 -16 -10q-7 -4 -15 -4q-7 0 -14 3q-10 4 -14 7l-252 156l-254 -156q-7 -5 -14 -7q-9 -3 -15 -3t-14 3q-7 3 -17 11q-10 7 -16 19t-6 20t2 12t6 8l285 340q11 11 20 14q15 5 23 5 q10 0 23 -5q10 -4 18 -14l284 -340q4 -4 6 -8q3 -6 3 -12z" />
<glyph unicode="&#xfc;" d="M1280 82q0 -14 -5 -27q-5 -12 -11 -12q-59 -6 -187 -29q-124 -23 -188 -43q-4 0 -21 -5t-28 -5q-17 0 -26 9t-9 16l-10 143q-46 -84 -125 -126q-78 -42 -189 -42q-159 0 -245 92t-86 260v330q0 92 -32 122q-31 30 -114 28q-7 0 -11 14q-5 17 -5 29t5 30q5 17 11 17 q79 0 219 14q150 15 228 33q18 6 32 -8q15 -15 15 -21v-629q0 -80 33 -119q34 -40 104 -40q49 0 88 39t63 100v391q0 89 -31 120q-32 32 -116 30q-7 0 -11 15q-5 17 -5 28q0 12 5 30q5 17 11 17q67 0 219 12q144 11 229 31q19 6 32 -8q14 -16 14 -21v-625q0 -89 23 -113 q25 -26 108 -32q7 0 11 -17q5 -20 5 -28zM1057 1227q0 -74 -53 -127t-127 -53q-73 0 -123 53q-49 52 -49 127t49 128q50 54 123 54q74 0 127 -54q53 -55 53 -128zM606 1227q0 -72 -57 -126t-133 -54q-73 0 -128 53t-55 127q0 73 55 128q54 54 128 54t132 -55t58 -127z" />
<glyph unicode="&#xfd;" horiz-adv-x="1116" d="M1145 860q0 -13 -5 -30q-4 -15 -12 -15q-69 -6 -114 -42q-46 -37 -74 -99l-385 -828q-109 -230 -180 -324q-69 -91 -185 -91q-79 0 -124 39q-46 40 -46 104t46 108t112 44q53 0 85 -20q31 -19 59 -19q24 0 56 38q30 36 91 177l29 65l-357 707q-34 70 -66 99 q-35 31 -114 42q-7 2 -11 16q-5 17 -5 29q0 13 5 30q4 15 11 15q64 0 148 -6t155 -6q72 0 161 6t153 6q7 0 11 -16q5 -18 5 -29q0 -7 -5 -27q-5 -18 -11 -18q-52 -5 -75 -18q-28 -16 -28 -45q0 -24 7 -41q2 -6 8 -18.5t8 -18.5l164 -346l153 346q11 30 11 31q3 11 3 28 q0 32 -22 53q-23 22 -82 29q-7 2 -11 16q-5 17 -5 29q0 13 5 30q4 15 11 15q64 0 112 -6t107 -6q34 0 84 6t100 6q8 0 12 -15q5 -17 5 -30zM1001 1356q0 -23 -11 -46q-12 -25 -32 -34l-387 -184q-1 0 -2 -1l-2 -2q-2 -2 -8 -2l-6 3q-6 2 -12 6q-2 1 -6 3.5t-6 4.5 q-2 1 -5 3.5t-4 4.5q-5 7 -9 16q-5 12 -5 21q0 6 1 10t5 8l276 330q8 10 27 19q18 8 31 8q27 0 65 -20q39 -20 56 -46t25 -52q9 -30 9 -50z" />
<glyph unicode="&#xfe;" horiz-adv-x="1269" d="M1206 469q0 -186 -142 -349t-415 -163q-50 0 -86 11q-40 12 -67 28v-275q0 -99 32 -131q34 -34 123 -41q7 0 12 -18q5 -20 5 -29q0 -7 -5 -27q-5 -18 -12 -18q-66 0 -162 6q-112 7 -167 7q-58 0 -161 -7q-89 -6 -151 -6q-6 0 -11 18q-5 20 -5 27q0 13 5 30q5 15 11 17 q90 11 114 40q23 29 23 132v1375q0 79 -30 106q-31 28 -107 35q-7 0 -11 15q-5 17 -5 26t5 27q4 16 11 16q91 21 220 68q130 47 190 77q9 6 20 11q15 6 25 6q26 0 37 -8q10 -7 10 -19q-7 -93 -11 -180q-5 -113 -5 -166v-287q39 53 105 82q71 31 155 31q186 0 318 -114 t132 -353zM836 461q0 178 -40 257t-147 79q-72 0 -113 -47q-40 -46 -40 -101v-456q0 -61 30 -98q30 -38 99 -38q121 0 166 124t45 280z" />
<glyph unicode="&#xff;" horiz-adv-x="1116" d="M1041 1227q0 -74 -53 -127t-127 -53q-73 0 -123 53q-49 52 -49 127t49 128q50 54 123 54q75 0 127 -54q53 -55 53 -128zM591 1227q0 -72 -57 -126t-134 -54q-73 0 -128 53q-54 52 -54 127q0 74 54 128t128 54t132 -55q59 -56 59 -127zM1145 860q0 -13 -5 -30 q-4 -15 -12 -15q-69 -6 -114 -42q-46 -37 -74 -99l-385 -828q-109 -230 -180 -324q-69 -91 -185 -91q-79 0 -124 39q-46 40 -46 104t46 108t112 44q53 0 85 -20q31 -19 59 -19q24 0 56 38q30 36 91 177l29 65l-357 707q-34 70 -66 99q-35 31 -114 42q-7 2 -11 16 q-5 17 -5 29q0 13 5 30q4 15 11 15q64 0 148 -6t155 -6q72 0 161 6t153 6q7 0 11 -16q5 -18 5 -29q0 -7 -5 -27q-5 -18 -11 -18q-52 -5 -75 -18q-28 -16 -28 -45q0 -24 7 -41q2 -6 8 -18.5t8 -18.5l164 -346l153 346q11 30 11 31q3 11 3 28q0 32 -22 53q-23 22 -82 29 q-7 2 -11 16q-5 17 -5 29q0 13 5 30q4 15 11 15q64 0 112 -6t107 -6q34 0 84 6t100 6q8 0 12 -15q5 -17 5 -30z" />
<glyph unicode="&#x152;" horiz-adv-x="2390" d="M2277 469q-7 -49 -27 -243q-14 -137 -20 -236q-104 4 -323 7q-195 3 -314 3q-98 0 -336 -5t-333 -5q-216 0 -372 56q-159 57 -263 155q-105 99 -154 224t-49 269q0 296 218 508q217 211 620 211q89 0 321 -5t328 -5q111 0 313 3q228 3 328 7q-4 -84 3 -217q3 -62 11 -240 q0 -8 -15 -17t-42 -9q-16 0 -25 4q-10 4 -10 8q-17 131 -107 245q-92 116 -257 116h-123q-41 0 -80 -21t-39 -100v-424h69q103 0 165 61t73 162q0 7 17 11q20 5 28 5q13 0 30 -5q15 -4 15 -11q0 -68 -5 -141t-5 -135q0 -65 5 -135t5 -136q0 -6 -15 -11q-17 -5 -30 -5 q-9 0 -27 5q-16 4 -18 11q-12 106 -69 165q-57 58 -169 58h-69v-436q0 -73 39 -97t80 -24h106q155 0 277 113q121 112 151 276q0 5 9 7q12 2 22 2q19 0 44 -9q21 -7 19 -20zM1124 213v977q0 72 -42 97q-43 26 -156 26q-208 0 -313 -168t-105 -451q0 -278 107 -440 q108 -164 311 -164q101 0 150 20q48 19 48 103z" />
<glyph unicode="&#x153;" horiz-adv-x="1812" d="M1757 539q0 -15 -9 -23q-10 -8 -28 -8h-565q-2 -17 -3 -38q-1 -16 -1 -44q0 -172 57 -240q57 -67 162 -67q76 0 166 37q94 39 133 92q1 4 13 -3q11 -7 18 -14q10 -7 18 -20t8 -23q0 -5 -1 -8q-1 -5 -5 -8q-53 -76 -152 -143q-103 -70 -270 -70q-93 0 -180 41 q-83 39 -147 111q-65 -71 -150 -112q-83 -40 -213 -40q-266 0 -404 145q-138 146 -138 338q0 197 139 345q140 149 403 149q112 0 203 -38t154 -110q57 67 146 108q87 40 187 40q212 0 336 -115q123 -114 123 -282zM1419 692q0 62 -28 105t-84 43q-63 0 -98 -64 q-34 -62 -46 -174l168 4q45 1 68 18q20 14 20 68zM780 442q0 198 -34 297q-35 101 -138 101q-102 0 -137 -101q-35 -102 -35 -297q0 -197 34 -290q35 -95 138 -95t138 96q34 93 34 289z" />
<glyph unicode="&#x178;" horiz-adv-x="1595" d="M1364 1743q0 -76 -57 -133q-58 -58 -133 -58q-77 0 -135 58q-56 56 -56 133t56 133q57 57 135 57q76 0 133 -57t57 -133zM848 1743q0 -76 -57 -133q-58 -58 -134 -58t-134 58q-56 56 -56 133t56 133q57 57 134 57t134 -57t57 -133zM1665 1368q0 -9 -8 -28q-7 -17 -15 -17 q-83 -7 -144 -47q-60 -39 -122 -125l-360 -522v-377q0 -81 31 -121q30 -39 149 -51q6 0 11 -18q5 -20 5 -27q0 -11 -5 -29q-4 -16 -11 -16q-90 0 -195 5t-188 5t-196 -5t-201 -5q-8 0 -12 15q-5 17 -5 30q0 8 5 26q5 17 12 19q120 15 156 51q38 38 38 121v375l-331 524 q-56 86 -112 123t-169 49q-7 2 -11 18q-5 18 -5 27q0 11 5 29q4 16 11 16q60 0 175 -5t183 -5q67 0 212 5t231 5q7 0 11 -15q5 -17 5 -30q0 -8 -5 -28q-4 -17 -11 -17q-73 -7 -105 -28q-30 -19 -30 -46q0 -21 12 -45q9 -19 31 -53l260 -403l270 403q15 21 27 46q10 20 10 42 q0 31 -29 52t-115 32q-7 2 -8 18q-2 22 -2 27q0 13 5 30q5 15 12 15q82 0 145 -5t141 -5q59 0 117 5t109 5q7 0 11 -16q5 -18 5 -29z" />
<glyph unicode="&#x2c6;" horiz-adv-x="819" d="M743 1149q0 -10 -7 -21q-8 -12 -15 -18q-2 -2 -16 -10q-7 -4 -15 -4q-6 0 -14 3q-10 4 -14 7l-252 156l-254 -156q-7 -5 -14 -7q-9 -3 -15 -3q-7 0 -14 3t-17 11q-10 7 -16 19t-6 20t2 12t6 8l285 340q11 11 20 14q15 5 23 5q10 0 23 -5q10 -4 18 -14l284 -340q4 -4 6 -8 t2 -12z" />
<glyph unicode="&#x2dc;" horiz-adv-x="819" d="M803 1450q-28 -183 -92 -244q-63 -60 -164 -51l-277 27q-64 6 -110 -25q-45 -30 -78 -90q-2 -5 -6 -6q-6 -2 -13 -2q-21 0 -39 14q-20 15 -14 49q28 149 102 234q72 82 210 67l237 -26q76 -8 112 21q37 30 60 87q1 4 8 6q8 2 13 2q17 0 36 -16q20 -17 15 -47z" />
<glyph unicode="&#x2000;" horiz-adv-x="994" />
<glyph unicode="&#x2001;" horiz-adv-x="1989" />
<glyph unicode="&#x2002;" horiz-adv-x="994" />
<glyph unicode="&#x2003;" horiz-adv-x="1989" />
<glyph unicode="&#x2004;" horiz-adv-x="663" />
<glyph unicode="&#x2005;" horiz-adv-x="497" />
<glyph unicode="&#x2006;" horiz-adv-x="331" />
<glyph unicode="&#x2007;" horiz-adv-x="331" />
<glyph unicode="&#x2008;" horiz-adv-x="248" />
<glyph unicode="&#x2009;" horiz-adv-x="397" />
<glyph unicode="&#x200a;" horiz-adv-x="110" />
<glyph unicode="&#x2010;" horiz-adv-x="843" d="M733 453q0 -43 -7 -65q-7 -23 -19 -23h-533q-12 0 -19 23q-8 26 -8 65q0 37 8 63q8 25 19 25h533q11 0 19 -25q7 -22 7 -63z" />
<glyph unicode="&#x2011;" horiz-adv-x="843" d="M733 453q0 -43 -7 -65q-7 -23 -19 -23h-533q-12 0 -19 23q-8 26 -8 65q0 37 8 63q8 25 19 25h533q11 0 19 -25q7 -22 7 -63z" />
<glyph unicode="&#x2012;" horiz-adv-x="843" d="M733 453q0 -43 -7 -65q-7 -23 -19 -23h-533q-12 0 -19 23q-8 26 -8 65q0 37 8 63q8 25 19 25h533q11 0 19 -25q7 -22 7 -63z" />
<glyph unicode="&#x2013;" horiz-adv-x="1224" d="M1141 453q0 -23 -6 -47q-6 -25 -19 -25h-1022q-11 0 -19 25q-7 22 -7 47q0 26 7 48q7 23 17 23h1024q11 0 18 -23q7 -22 7 -48z" />
<glyph unicode="&#x2014;" horiz-adv-x="2248" d="M2165 453q0 -23 -6 -47q-6 -25 -19 -25h-2046q-11 0 -19 25q-7 22 -7 47q0 26 7 48q7 23 17 23h2048q11 0 18 -23q7 -22 7 -48z" />
<glyph unicode="&#x2018;" horiz-adv-x="552" d="M100 981q0 155 82 273t228 202q6 4 20 -7q16 -13 21 -19t13 -26q8 -18 1 -20q-61 -38 -115 -101q-55 -64 -55 -146q0 -25 3 -35t11 -10q7 0 14 3q8 3 17 3q59 0 104 -42t45 -132q0 -77 -52 -139t-134 -62q-91 0 -147 74t-56 184z" />
<glyph unicode="&#x2019;" horiz-adv-x="552" d="M479 1188q0 -156 -84 -276q-83 -119 -225 -199q-6 -2 -19 7q-16 11 -22 19q-8 11 -14 26t0 19q67 45 119 97q51 51 51 151q0 24 -3 35q-3 10 -12 10q-6 0 -13 -3q-8 -3 -17 -3q-60 0 -105 42t-45 132q0 76 52 138q53 63 134 63q92 0 148 -74q55 -73 55 -184z" />
<glyph unicode="&#x201a;" horiz-adv-x="614" d="M510 72q0 -156 -84 -276q-83 -119 -225 -199q-7 -2 -20 7q-14 9 -21 19q-10 15 -15 26q-6 15 0 19q74 50 120 96q50 50 50 152q0 24 -3 35q-3 10 -11 10q-5 0 -13 -3t-18 -3q-59 0 -104 42t-45 132q0 76 52 138q53 63 134 63q92 0 148 -74q55 -73 55 -184z" />
<glyph unicode="&#x201c;" horiz-adv-x="1026" d="M573 981q0 155 82 273t228 202q6 4 20 -7q16 -13 21 -19t13 -26q8 -18 1 -20q-61 -38 -115 -101q-55 -64 -55 -146q0 -25 3 -35t11 -10q6 0 14 3t17 3q60 0 105 -42t45 -132q0 -75 -53 -139q-52 -62 -134 -62q-91 0 -147 74t-56 184zM100 981q0 155 82 273t228 202 q6 4 20 -7t21 -20q5 -7 13 -25t1 -20q-61 -38 -115 -101q-55 -64 -55 -146q0 -25 3 -35t11 -10q7 0 14 3q8 3 17 3q59 0 104 -42t45 -132q0 -77 -52 -139t-134 -62q-91 0 -147 74t-56 184z" />
<glyph unicode="&#x201d;" horiz-adv-x="1026" d="M479 1188q0 -156 -84 -276q-83 -119 -225 -199q-6 -2 -19 7q-16 11 -22 19q-8 11 -14 26t0 19q67 45 119 97q51 51 51 151q0 24 -3 35q-3 10 -12 10q-6 0 -13 -3q-8 -3 -17 -3q-60 0 -105 42t-45 132q0 76 52 138q53 63 134 63q92 0 148 -74q55 -73 55 -184zM952 1188 q0 -156 -84 -276q-83 -119 -225 -199q-6 -2 -19 7q-16 11 -22 19q-8 11 -14 26t0 19q71 48 120 97q50 50 50 151q0 24 -3 35q-3 10 -12 10q-5 0 -13 -3t-17 -3q-60 0 -105 42t-45 132q0 76 52 138q53 63 135 63q91 0 147 -74q55 -73 55 -184z" />
<glyph unicode="&#x201e;" horiz-adv-x="1056" d="M510 72q0 -156 -84 -276q-83 -119 -225 -199q-7 -2 -20 7q-14 9 -21 19q-10 15 -15 26q-6 15 0 19q74 50 120 96q50 50 50 152q0 24 -3 35q-3 10 -11 10q-5 0 -13 -3t-18 -3q-59 0 -104 42t-45 132q0 76 52 138q53 63 134 63q92 0 148 -74q55 -73 55 -184zM983 72 q0 -156 -84 -276q-83 -119 -225 -199q-7 -2 -20 7q-14 9 -21 19q-10 15 -15 26q-6 15 0 19q74 50 120 96q50 50 50 152q0 24 -3 35q-3 10 -11 10q-6 0 -13 -3t-18 -3q-59 0 -104 42t-45 132q0 76 52 138q52 63 134 63q92 0 148 -74q55 -73 55 -184z" />
<glyph unicode="&#x2022;" horiz-adv-x="768" d="M715 694q0 -136 -97 -233q-96 -96 -233 -96t-234 97q-98 98 -98 232q0 137 98 235q97 97 234 97q135 0 232 -97q98 -98 98 -235z" />
<glyph unicode="&#x2026;" horiz-adv-x="1806" d="M487 143q0 -75 -54 -131q-54 -55 -132 -55q-76 0 -131 55t-55 131t55 131q56 56 131 56q78 0 132 -56t54 -131zM1090 143q0 -74 -55 -131q-54 -55 -132 -55q-76 0 -131 55t-55 131t55 131q56 56 131 56q78 0 132 -56q55 -57 55 -131zM1692 143q0 -74 -55 -131 q-54 -55 -132 -55q-76 0 -131 55t-55 131t55 131q56 56 131 56q78 0 132 -56q55 -57 55 -131z" />
<glyph unicode="&#x202f;" horiz-adv-x="397" />
<glyph unicode="&#x2039;" horiz-adv-x="602" d="M506 125q4 -10 -2 -27q-6 -16 -17 -24l-21 -16q-8 -5 -22 -5q-3 0 -5 1l-3 1l-332 328q-5 5 -9 15q-5 13 -5 22q0 8 6 20l8 17l332 325l3 2q4 2 5 2q13 0 23 -7q4 -3 10 -8t10 -7q11 -8 17 -24q7 -18 2 -27l-129 -293z" />
<glyph unicode="&#x203a;" horiz-adv-x="602" d="M551 420q0 -10 -5 -23t-9 -14l-332 -328l-3 -1q-2 -1 -5 -1q-9 0 -21 5q-7 3 -22 16q-15 15 -18 26q-5 16 -1 25l129 295l-129 293q-5 10 2 26q7 15 17 25q18 15 23 17q10 5 20 5q1 0 5 -2l3 -2l332 -325l8 -17q6 -12 6 -20z" />
<glyph unicode="&#x205f;" horiz-adv-x="497" />
<glyph unicode="&#x20ac;" horiz-adv-x="1642" d="M1552 446l-12 -92q-2 -13 -7.5 -52t-8.5 -62q-11 -86 -14 -116q-1 -13 -11 -93q-45 0 -97 -12q-9 -2 -49 -10.5t-63 -14.5q-45 -11 -126 -26q-60 -11 -136 -11q-157 0 -277 34q-127 36 -213 92q-87 57 -151 139q-62 80 -96 169l-170 -2q-15 0 -21 22q-6 21 -6 48 q0 21 7 46q6 21 18 21l137 -2q-6 49 -6 101q0 29 1 45q1 18 5 45l-135 -2q-12 0 -19 20q-8 22 -8 47q0 23 8 47q8 23 17 23l172 -2q37 99 101 181q66 84 160 145t218 96q125 35 274 35q71 0 137 -8q51 -6 114 -17q86 -15 100 -17q50 -8 90 -8q0 -11 5 -96q4 -81 7 -115 q1 -17 3.5 -54.5t4.5 -57.5q7 -83 8 -92q0 -4 -5 -7q-3 -2 -12 -4q-2 -1 -8 -2t-8 -1q-5 -1 -14 -1q-11 0 -24 3q-14 3 -17 12q-13 70 -46 131q-38 70 -88 120q-54 54 -117 86q-64 33 -138 33q-85 0 -147 -25q-65 -26 -107 -73q-44 -49 -71 -116q-25 -63 -41 -150l409 4 q9 0 17 -22t8 -48q0 -7 -2 -23t-4 -22q-3 -10 -8 -16q-4 -6 -11 -6l-424 2q-2 -28 -2 -44v-46v-52q0 -17 2 -49l424 2q5 0 10 -6q3 -4 7 -16q5 -16 6 -22q2 -16 2 -23q0 -14 -1 -22q-2 -16 -4 -23q-3 -9 -8 -18q-4 -7 -12 -7l-405 2q15 -76 42 -139q27 -64 69 -107 q43 -44 102 -68q60 -24 141 -24q85 0 156 34q70 33 123 88q54 55 93 126q40 71 66 145q4 9 17 12t24 3q12 0 27 -4q16 -4 18 -11z" />
<glyph unicode="&#x2122;" horiz-adv-x="2420" d="M2304 643q0 -5 -3 -19t-5 -14q-64 0 -119 4t-113 4t-111 -4t-114 -4q-4 0 -7 14t-3 19q0 9 3 21t5 14q65 10 80 35q14 23 8 88l-24 391l-244 -592q-1 -6 -15 -9q-12 -3 -28 -3q-18 0 -29 4q-13 5 -14 8l-260 582l-25 -381q-6 -61 12 -87q18 -25 99 -36q5 0 6 -13 q2 -18 2 -22q0 -7 -4 -19q-5 -14 -6 -14q-47 0 -80 4t-76 4q-46 0 -90 -4t-86 -4q-4 0 -6 14q-2 18 -2 19q0 9 3 21q3 13 7 14q76 12 101 32q24 19 28 91l37 422q4 58 -19 86q-22 26 -90 37q-2 0 -5 13t-3 19q0 10 4 22q4 13 8 13q26 0 96 -5t91 -5q27 0 87 5t93 5l213 -465 l197 461q26 4 91 -1q67 -5 97 -5t88 5t88 5q4 0 7 -13t3 -22q0 -6 -3 -19t-5 -13q-69 -8 -85 -33q-15 -23 -13 -76l29 -436q5 -70 21 -92q19 -25 73 -31q4 0 7 -13t3 -22zM1024 1108q0 -6 -11 -12q-12 -6 -26 -6q-6 0 -16 3t-10 5q-28 81 -92 158q-63 75 -109 75 q-34 0 -41 -13q-8 -14 -8 -42v-475q0 -71 17 -92q19 -24 91 -31q2 0 6 -13q4 -12 4 -22q0 -7 -4 -19q-5 -14 -6 -14q-64 0 -120 4t-128 4q-73 0 -129 -4t-118 -4q-5 0 -8 14q-3 13 -3 19q0 9 3 21t8 14q73 10 90 32q16 20 16 91v475q0 34 -8 45q-7 10 -39 10q-44 0 -113 -77 q-71 -78 -100 -156q-5 -5 -13 -6q-12 -2 -16 -2q-9 0 -23 6t-14 12q4 24 13 80t13 82q11 63 19 153q52 -8 119 -14q72 -6 303 -6q187 0 289 6q98 6 141 14q0 -43 9 -153q1 -17 14 -162z" />
<glyph unicode="&#x25fc;" horiz-adv-x="906" d="M0 906h906v-906h-906v906z" />
</font>
</defs>
</svg>
